                                                                        S      1
,,,18HGY-530 VL53L0X ToF,,7Hunknown,32,38,7,99,15,,1.,1,4HINCH,1,0.08,  G      1
15H20250902.205955,0.000393700787401575,10000.,,,11,0,;                 G      2
     314       1                                                00000200D      1
     314                       2       0                               0D      2
     314       3                                                00000200D      3
     314                       2       0                               0D      4
     314       5                                                00000200D      5
     314                       2       0                               0D      6
     314       7                                                00000200D      7
     314                       1       0                               0D      8
     314       8                                                00000200D      9
     314                       2       0                               0D     10
     314      10                                                00000200D     11
     314                       2       0                               0D     12
     314      12                                                00000200D     13
     314                       2       0                               0D     14
314,3.52941176470588,3.52941176470588,3.52941176470588,38HMateri       1P      1
al #2130  ( CoronaPhysicalMtl );                                      1P      2
314,3.52941176470588,3.52941176470588,3.52941176470588,36HMateri       3P      3
al #2131  ( CoronaLayeredMtl );                                        3P      4
314,86.6666666666667,60.3921568627451,10.1960784313725,38HMateri       5P      5
al #2038  ( CoronaPhysicalMtl );                                      5P      6
314,0.,0.,0.,36HAluminium Satin  ( CoronaLegacyMtl );                  7P      7
314,50.1960784313725,50.1960784313725,50.1960784313725,38HMateri       9P      8
al #1864  ( CoronaPhysicalMtl );                                      9P      9
314,50.1960784313725,50.1960784313725,50.1960784313725,36HMateri      11P     10
al #2132  ( CoronaLayeredMtl );                                       11P     11
314,50.1960784313725,50.1960784313725,50.1960784313725,36HMateri      13P     12
al #2133  ( CoronaLayeredMtl );                                       13P     13
S      1G      2D     14P     13                                        T      1
