%TF.GenerationSoftware,KiCad,Pcbnew,10.0.0*%
%TF.CreationDate,2026-04-04T16:00:47+02:00*%
%TF.ProjectId,minisumo,6d696e69-7375-46d6-9f2e-6b696361645f,rev?*%
%TF.SameCoordinates,Original*%
%TF.FileFunction,Copper,L1,Top*%
%TF.FilePolarity,Positive*%
%FSLAX46Y46*%
G04 Gerber Fmt 4.6, Leading zero omitted, Abs format (unit mm)*
G04 Created by KiCad (PCBNEW 10.0.0) date 2026-04-04 16:00:47*
%MOMM*%
%LPD*%
G01*
G04 APERTURE LIST*
G04 Aperture macros list*
%AMRoundRect*
0 Rectangle with rounded corners*
0 $1 Rounding radius*
0 $2 $3 $4 $5 $6 $7 $8 $9 X,Y pos of 4 corners*
0 Add a 4 corners polygon primitive as box body*
4,1,4,$2,$3,$4,$5,$6,$7,$8,$9,$2,$3,0*
0 Add four circle primitives for the rounded corners*
1,1,$1+$1,$2,$3*
1,1,$1+$1,$4,$5*
1,1,$1+$1,$6,$7*
1,1,$1+$1,$8,$9*
0 Add four rect primitives between the rounded corners*
20,1,$1+$1,$2,$3,$4,$5,0*
20,1,$1+$1,$4,$5,$6,$7,0*
20,1,$1+$1,$6,$7,$8,$9,0*
20,1,$1+$1,$8,$9,$2,$3,0*%
%AMRotRect*
0 Rectangle, with rotation*
0 The origin of the aperture is its center*
0 $1 length*
0 $2 width*
0 $3 Rotation angle, in degrees counterclockwise*
0 Add horizontal line*
21,1,$1,$2,0,0,$3*%
%AMFreePoly0*
4,1,23,0.550000,-0.750000,0.000000,-0.750000,0.000000,-0.745722,-0.065263,-0.745722,-0.191342,-0.711940,-0.304381,-0.646677,-0.396677,-0.554381,-0.461940,-0.441342,-0.495722,-0.315263,-0.495722,-0.250000,-0.500000,-0.250000,-0.500000,0.250000,-0.495722,0.250000,-0.495722,0.315263,-0.461940,0.441342,-0.396677,0.554381,-0.304381,0.646677,-0.191342,0.711940,-0.065263,0.745722,0.000000,0.745722,
0.000000,0.750000,0.550000,0.750000,0.550000,-0.750000,0.550000,-0.750000,$1*%
%AMFreePoly1*
4,1,23,0.000000,0.745722,0.065263,0.745722,0.191342,0.711940,0.304381,0.646677,0.396677,0.554381,0.461940,0.441342,0.495722,0.315263,0.495722,0.250000,0.500000,0.250000,0.500000,-0.250000,0.495722,-0.250000,0.495722,-0.315263,0.461940,-0.441342,0.396677,-0.554381,0.304381,-0.646677,0.191342,-0.711940,0.065263,-0.745722,0.000000,-0.745722,0.000000,-0.750000,-0.550000,-0.750000,
-0.550000,0.750000,0.000000,0.750000,0.000000,0.745722,0.000000,0.745722,$1*%
%AMFreePoly2*
4,1,37,0.800000,0.796148,0.878414,0.796148,1.032228,0.765552,1.177117,0.705537,1.307515,0.618408,1.418408,0.507515,1.505537,0.377117,1.565552,0.232228,1.596148,0.078414,1.596148,-0.078414,1.565552,-0.232228,1.505537,-0.377117,1.418408,-0.507515,1.307515,-0.618408,1.177117,-0.705537,1.032228,-0.765552,0.878414,-0.796148,0.800000,-0.796148,0.800000,-0.800000,-1.400000,-0.800000,
-1.403843,-0.796157,-1.439018,-0.796157,-1.511114,-0.766294,-1.566294,-0.711114,-1.596157,-0.639018,-1.596157,-0.603843,-1.600000,-0.600000,-1.600000,0.600000,-1.596157,0.603843,-1.596157,0.639018,-1.566294,0.711114,-1.511114,0.766294,-1.439018,0.796157,-1.403843,0.796157,-1.400000,0.800000,0.800000,0.800000,0.800000,0.796148,0.800000,0.796148,$1*%
%AMFreePoly3*
4,1,37,1.403843,0.796157,1.439018,0.796157,1.511114,0.766294,1.566294,0.711114,1.596157,0.639018,1.596157,0.603843,1.600000,0.600000,1.600000,-0.600000,1.596157,-0.603843,1.596157,-0.639018,1.566294,-0.711114,1.511114,-0.766294,1.439018,-0.796157,1.403843,-0.796157,1.400000,-0.800000,-0.800000,-0.800000,-0.800000,-0.796148,-0.878414,-0.796148,-1.032228,-0.765552,-1.177117,-0.705537,
-1.307515,-0.618408,-1.418408,-0.507515,-1.505537,-0.377117,-1.565552,-0.232228,-1.596148,-0.078414,-1.596148,0.078414,-1.565552,0.232228,-1.505537,0.377117,-1.418408,0.507515,-1.307515,0.618408,-1.177117,0.705537,-1.032228,0.765552,-0.878414,0.796148,-0.800000,0.796148,-0.800000,0.800000,1.400000,0.800000,1.403843,0.796157,1.403843,0.796157,$1*%
G04 Aperture macros list end*
%TA.AperFunction,SMDPad,CuDef*%
%ADD10RoundRect,0.140000X-0.170000X0.140000X-0.170000X-0.140000X0.170000X-0.140000X0.170000X0.140000X0*%
%TD*%
%TA.AperFunction,SMDPad,CuDef*%
%ADD11RoundRect,0.087500X-0.187500X-0.087500X0.187500X-0.087500X0.187500X0.087500X-0.187500X0.087500X0*%
%TD*%
%TA.AperFunction,SMDPad,CuDef*%
%ADD12RoundRect,0.087500X-0.087500X-0.187500X0.087500X-0.187500X0.087500X0.187500X-0.087500X0.187500X0*%
%TD*%
%TA.AperFunction,SMDPad,CuDef*%
%ADD13FreePoly0,0.000000*%
%TD*%
%TA.AperFunction,SMDPad,CuDef*%
%ADD14R,1.000000X1.500000*%
%TD*%
%TA.AperFunction,SMDPad,CuDef*%
%ADD15FreePoly1,0.000000*%
%TD*%
%TA.AperFunction,SMDPad,CuDef*%
%ADD16RoundRect,0.135000X0.135000X0.185000X-0.135000X0.185000X-0.135000X-0.185000X0.135000X-0.185000X0*%
%TD*%
%TA.AperFunction,ComponentPad*%
%ADD17RotRect,1.700000X1.700000X225.000000*%
%TD*%
%TA.AperFunction,ComponentPad*%
%ADD18C,1.700000*%
%TD*%
%TA.AperFunction,SMDPad,CuDef*%
%ADD19RoundRect,0.080000X0.120000X-0.220000X0.120000X0.220000X-0.120000X0.220000X-0.120000X-0.220000X0*%
%TD*%
%TA.AperFunction,SMDPad,CuDef*%
%ADD20RoundRect,0.099000X1.301000X-0.891000X1.301000X0.891000X-1.301000X0.891000X-1.301000X-0.891000X0*%
%TD*%
%TA.AperFunction,SMDPad,CuDef*%
%ADD21RoundRect,0.218750X-0.256250X0.218750X-0.256250X-0.218750X0.256250X-0.218750X0.256250X0.218750X0*%
%TD*%
%TA.AperFunction,SMDPad,CuDef*%
%ADD22RoundRect,0.250000X0.475000X-0.250000X0.475000X0.250000X-0.475000X0.250000X-0.475000X-0.250000X0*%
%TD*%
%TA.AperFunction,SMDPad,CuDef*%
%ADD23RoundRect,0.140000X0.140000X0.170000X-0.140000X0.170000X-0.140000X-0.170000X0.140000X-0.170000X0*%
%TD*%
%TA.AperFunction,ComponentPad*%
%ADD24C,0.800000*%
%TD*%
%TA.AperFunction,ComponentPad*%
%ADD25C,6.400000*%
%TD*%
%TA.AperFunction,SMDPad,CuDef*%
%ADD26RoundRect,0.135000X0.185000X-0.135000X0.185000X0.135000X-0.185000X0.135000X-0.185000X-0.135000X0*%
%TD*%
%TA.AperFunction,ComponentPad*%
%ADD27R,1.700000X1.700000*%
%TD*%
%TA.AperFunction,SMDPad,CuDef*%
%ADD28RoundRect,0.135000X-0.135000X-0.185000X0.135000X-0.185000X0.135000X0.185000X-0.135000X0.185000X0*%
%TD*%
%TA.AperFunction,SMDPad,CuDef*%
%ADD29RoundRect,0.150000X-0.825000X-0.150000X0.825000X-0.150000X0.825000X0.150000X-0.825000X0.150000X0*%
%TD*%
%TA.AperFunction,SMDPad,CuDef*%
%ADD30RoundRect,0.135000X-0.226274X-0.035355X-0.035355X-0.226274X0.226274X0.035355X0.035355X0.226274X0*%
%TD*%
%TA.AperFunction,ComponentPad*%
%ADD31RoundRect,0.250000X0.600000X-0.600000X0.600000X0.600000X-0.600000X0.600000X-0.600000X-0.600000X0*%
%TD*%
%TA.AperFunction,SMDPad,CuDef*%
%ADD32RoundRect,0.140000X-0.140000X-0.170000X0.140000X-0.170000X0.140000X0.170000X-0.140000X0.170000X0*%
%TD*%
%TA.AperFunction,ComponentPad*%
%ADD33RotRect,1.700000X1.700000X315.000000*%
%TD*%
%TA.AperFunction,ComponentPad*%
%ADD34O,2.200000X3.500000*%
%TD*%
%TA.AperFunction,ComponentPad*%
%ADD35R,1.500000X2.500000*%
%TD*%
%TA.AperFunction,ComponentPad*%
%ADD36O,1.500000X2.500000*%
%TD*%
%TA.AperFunction,SMDPad,CuDef*%
%ADD37RoundRect,0.250000X-0.475000X0.250000X-0.475000X-0.250000X0.475000X-0.250000X0.475000X0.250000X0*%
%TD*%
%TA.AperFunction,SMDPad,CuDef*%
%ADD38RoundRect,0.135000X-0.185000X0.135000X-0.185000X-0.135000X0.185000X-0.135000X0.185000X0.135000X0*%
%TD*%
%TA.AperFunction,SMDPad,CuDef*%
%ADD39RoundRect,0.135000X0.035355X-0.226274X0.226274X-0.035355X-0.035355X0.226274X-0.226274X0.035355X0*%
%TD*%
%TA.AperFunction,SMDPad,CuDef*%
%ADD40RoundRect,0.250000X0.312500X0.625000X-0.312500X0.625000X-0.312500X-0.625000X0.312500X-0.625000X0*%
%TD*%
%TA.AperFunction,SMDPad,CuDef*%
%ADD41RoundRect,0.197500X-0.197500X-0.632500X0.197500X-0.632500X0.197500X0.632500X-0.197500X0.632500X0*%
%TD*%
%TA.AperFunction,SMDPad,CuDef*%
%ADD42RoundRect,0.150000X0.150000X-0.512500X0.150000X0.512500X-0.150000X0.512500X-0.150000X-0.512500X0*%
%TD*%
%TA.AperFunction,SMDPad,CuDef*%
%ADD43FreePoly2,90.000000*%
%TD*%
%TA.AperFunction,SMDPad,CuDef*%
%ADD44RoundRect,0.800000X0.000010X-0.800000X0.000010X0.800000X-0.000010X0.800000X-0.000010X-0.800000X0*%
%TD*%
%TA.AperFunction,SMDPad,CuDef*%
%ADD45FreePoly3,90.000000*%
%TD*%
%TA.AperFunction,ComponentPad*%
%ADD46RoundRect,0.200000X0.600000X-0.600000X0.600000X0.600000X-0.600000X0.600000X-0.600000X-0.600000X0*%
%TD*%
%TA.AperFunction,ComponentPad*%
%ADD47C,1.600000*%
%TD*%
%TA.AperFunction,SMDPad,CuDef*%
%ADD48RoundRect,0.225000X-0.250000X0.225000X-0.250000X-0.225000X0.250000X-0.225000X0.250000X0.225000X0*%
%TD*%
%TA.AperFunction,SMDPad,CuDef*%
%ADD49RoundRect,0.218750X0.256250X-0.218750X0.256250X0.218750X-0.256250X0.218750X-0.256250X-0.218750X0*%
%TD*%
%TA.AperFunction,ComponentPad*%
%ADD50RoundRect,0.412500X0.412500X-0.412500X0.412500X0.412500X-0.412500X0.412500X-0.412500X-0.412500X0*%
%TD*%
%TA.AperFunction,ComponentPad*%
%ADD51C,1.650000*%
%TD*%
%TA.AperFunction,SMDPad,CuDef*%
%ADD52RoundRect,0.250000X0.750000X-0.275000X0.750000X0.275000X-0.750000X0.275000X-0.750000X-0.275000X0*%
%TD*%
%TA.AperFunction,SMDPad,CuDef*%
%ADD53RoundRect,0.080000X-0.120000X0.220000X-0.120000X-0.220000X0.120000X-0.220000X0.120000X0.220000X0*%
%TD*%
%TA.AperFunction,SMDPad,CuDef*%
%ADD54RoundRect,0.099000X-1.301000X0.891000X-1.301000X-0.891000X1.301000X-0.891000X1.301000X0.891000X0*%
%TD*%
%TA.AperFunction,SMDPad,CuDef*%
%ADD55RoundRect,0.218750X-0.218750X-0.256250X0.218750X-0.256250X0.218750X0.256250X-0.218750X0.256250X0*%
%TD*%
%TA.AperFunction,SMDPad,CuDef*%
%ADD56RoundRect,0.150000X0.150000X-0.587500X0.150000X0.587500X-0.150000X0.587500X-0.150000X-0.587500X0*%
%TD*%
%TA.AperFunction,SMDPad,CuDef*%
%ADD57RoundRect,0.150000X-0.200000X0.150000X-0.200000X-0.150000X0.200000X-0.150000X0.200000X0.150000X0*%
%TD*%
%TA.AperFunction,SMDPad,CuDef*%
%ADD58RoundRect,0.249999X0.450001X1.850001X-0.450001X1.850001X-0.450001X-1.850001X0.450001X-1.850001X0*%
%TD*%
%TA.AperFunction,SMDPad,CuDef*%
%ADD59RoundRect,0.225000X0.250000X-0.225000X0.250000X0.225000X-0.250000X0.225000X-0.250000X-0.225000X0*%
%TD*%
%TA.AperFunction,SMDPad,CuDef*%
%ADD60R,1.050000X0.450000*%
%TD*%
%TA.AperFunction,SMDPad,CuDef*%
%ADD61R,1.470000X0.895000*%
%TD*%
%TA.AperFunction,SMDPad,CuDef*%
%ADD62RoundRect,0.250000X0.250000X0.475000X-0.250000X0.475000X-0.250000X-0.475000X0.250000X-0.475000X0*%
%TD*%
%TA.AperFunction,ViaPad*%
%ADD63C,0.500000*%
%TD*%
%TA.AperFunction,Conductor*%
%ADD64C,0.200000*%
%TD*%
%TA.AperFunction,Conductor*%
%ADD65C,1.000000*%
%TD*%
%TA.AperFunction,Conductor*%
%ADD66C,0.300000*%
%TD*%
%TA.AperFunction,Conductor*%
%ADD67C,1.500000*%
%TD*%
%TA.AperFunction,Conductor*%
%ADD68C,0.500000*%
%TD*%
%TA.AperFunction,Conductor*%
%ADD69C,0.250000*%
%TD*%
%TA.AperFunction,Conductor*%
%ADD70C,0.150000*%
%TD*%
%TA.AperFunction,Conductor*%
%ADD71C,0.400000*%
%TD*%
%TA.AperFunction,Conductor*%
%ADD72C,2.000000*%
%TD*%
G04 APERTURE END LIST*
D10*
%TO.P,C13,1*%
%TO.N,+3.3V*%
X83350000Y-83045000D03*
%TO.P,C13,2*%
%TO.N,GND*%
X83350000Y-84005000D03*
%TD*%
D11*
%TO.P,U11,1,VDD_IO_1*%
%TO.N,+3.3V*%
X138062500Y-53400000D03*
%TO.P,U11,2,NC_2*%
%TO.N,unconnected-(U11-NC-Pad2)*%
X138062500Y-53900000D03*
%TO.P,U11,3,NC_3*%
%TO.N,unconnected-(U11-NC-Pad3)*%
X138062500Y-54400000D03*
%TO.P,U11,4,SCL_4*%
%TO.N,/I2C_SCL*%
X138062500Y-54900000D03*
%TO.P,U11,5,GND_5*%
%TO.N,GND*%
X138062500Y-55400000D03*
D12*
%TO.P,U11,6,SDA_6*%
%TO.N,/I2C_SDA*%
X138787500Y-55625000D03*
%TO.P,U11,7,SA0_7*%
%TO.N,Net-(U11-CS)*%
X139287500Y-55625000D03*
%TO.P,U11,8,CS_8*%
X139787500Y-55625000D03*
D11*
%TO.P,U11,9,INT2_9*%
%TO.N,unconnected-(U11-INT2-Pad9)*%
X140512500Y-55400000D03*
%TO.P,U11,10,GND_10*%
%TO.N,GND*%
X140512500Y-54900000D03*
%TO.P,U11,11,INT1_11*%
%TO.N,/IMU_INT1*%
X140512500Y-54400000D03*
%TO.P,U11,12,GND_12*%
%TO.N,GND*%
X140512500Y-53900000D03*
%TO.P,U11,13,ADC3_13*%
%TO.N,unconnected-(U11-ADC3-Pad13)*%
X140512500Y-53400000D03*
D12*
%TO.P,U11,14,VDD_14*%
%TO.N,+3.3V*%
X139787500Y-53175000D03*
%TO.P,U11,15,ADC2_15*%
%TO.N,unconnected-(U11-ADC2-Pad15)*%
X139287500Y-53175000D03*
%TO.P,U11,16,ADC1_16*%
%TO.N,unconnected-(U11-ADC1-Pad16)*%
X138787500Y-53175000D03*
%TD*%
D13*
%TO.P,JP1,1,A_1*%
%TO.N,Net-(JP1-A)*%
X74400000Y-81700000D03*
D14*
%TO.P,JP1,2,C_2*%
%TO.N,/Sensors/ITR_THR*%
X75700000Y-81700000D03*
D15*
%TO.P,JP1,3,B_3*%
%TO.N,Net-(JP1-B)*%
X77000000Y-81700000D03*
%TD*%
D10*
%TO.P,C5,1*%
%TO.N,/BTN_0*%
X73500000Y-95920000D03*
%TO.P,C5,2*%
%TO.N,GND*%
X73500000Y-96880000D03*
%TD*%
D16*
%TO.P,R4,1*%
%TO.N,Net-(U12A--)*%
X57510000Y-62100000D03*
%TO.P,R4,2*%
%TO.N,+3.3V*%
X56490000Y-62100000D03*
%TD*%
D17*
%TO.P,U8,1,VIN_1*%
%TO.N,+3.3V*%
X133490128Y-89490128D03*
D18*
%TO.P,U8,2,GND_2*%
%TO.N,GND*%
X131694077Y-87694077D03*
%TO.P,U8,3,SCL_3*%
%TO.N,/I2C_SCL*%
X129898026Y-85898026D03*
%TO.P,U8,4,SDA_4*%
%TO.N,/I2C_SDA*%
X128101974Y-84101974D03*
%TO.P,U8,5,GPIO_5*%
%TO.N,unconnected-(U8-GPIO-Pad5)*%
X126305923Y-85898026D03*
%TO.P,U8,6,XSHUT_6*%
%TO.N,/XSHUT_4*%
X128101974Y-87694077D03*
%TD*%
D19*
%TO.P,Q2,1,S_1*%
%TO.N,Net-(Q2-S-Pad1)*%
X125475000Y-95000000D03*
%TO.P,Q2,2,S_2*%
X126125000Y-95000000D03*
%TO.P,Q2,3,S_3*%
X126775000Y-95000000D03*
%TO.P,Q2,4,G_4*%
%TO.N,Net-(Q2-G)*%
X127425000Y-95000000D03*
D20*
%TO.P,Q2,5,D_5*%
%TO.N,+BATT*%
X126450000Y-92990000D03*
D19*
X125475000Y-92050000D03*
X126125000Y-92050000D03*
X126775000Y-92050000D03*
X127425000Y-92050000D03*
%TD*%
D21*
%TO.P,D2,1,K_1*%
%TO.N,Net-(D1-A)*%
X79800000Y-97225000D03*
%TO.P,D2,2,A_2*%
%TO.N,/Motors/AOUT1*%
X79800000Y-98800000D03*
%TD*%
D22*
%TO.P,C1,1*%
%TO.N,Net-(U1-VINT)*%
X106400000Y-85250000D03*
%TO.P,C1,2*%
%TO.N,GND*%
X106400000Y-83350000D03*
%TD*%
D23*
%TO.P,C11,1*%
%TO.N,+3.3V*%
X82480000Y-56800000D03*
%TO.P,C11,2*%
%TO.N,GND*%
X81520000Y-56800000D03*
%TD*%
D24*
%TO.P,H4,1,1_1*%
%TO.N,unconnected-(H4-Pad1)_5*%
X129650000Y-95500000D03*
%TO.N,unconnected-(H4-Pad1)_8*%
X130352944Y-93802944D03*
%TO.N,unconnected-(H4-Pad1)_3*%
X130352944Y-97197056D03*
%TO.N,unconnected-(H4-Pad1)_6*%
X132050000Y-93100000D03*
D25*
%TO.N,unconnected-(H4-Pad1)_4*%
X132050000Y-95500000D03*
D24*
%TO.N,unconnected-(H4-Pad1)*%
X132050000Y-97900000D03*
%TO.N,unconnected-(H4-Pad1)_1*%
X133747056Y-93802944D03*
%TO.N,unconnected-(H4-Pad1)_7*%
X133747056Y-97197056D03*
%TO.N,unconnected-(H4-Pad1)_2*%
X134450000Y-95500000D03*
%TD*%
D26*
%TO.P,R27,1*%
%TO.N,/XSHUT_0*%
X54500000Y-89260000D03*
%TO.P,R27,2*%
%TO.N,+3.3V*%
X54500000Y-88240000D03*
%TD*%
D16*
%TO.P,R7,1*%
%TO.N,Net-(D3-A)*%
X115460000Y-96000000D03*
%TO.P,R7,2*%
%TO.N,/Motors/BOUT2*%
X114440000Y-96000000D03*
%TD*%
D27*
%TO.P,U7,1,VIN_1*%
%TO.N,+3.3V*%
X126150000Y-53960000D03*
D18*
%TO.P,U7,2,GND_2*%
%TO.N,GND*%
X123610000Y-53960000D03*
%TO.P,U7,3,SCL_3*%
%TO.N,/I2C_SCL*%
X121070000Y-53960000D03*
%TO.P,U7,4,SDA_4*%
%TO.N,/I2C_SDA*%
X118530000Y-53960000D03*
%TO.P,U7,5,GPIO_5*%
%TO.N,unconnected-(U7-GPIO-Pad5)*%
X118530000Y-56500000D03*
%TO.P,U7,6,XSHUT_6*%
%TO.N,/XSHUT_3*%
X121070000Y-56500000D03*
%TD*%
D27*
%TO.P,J5,1,Pin_1_1*%
%TO.N,+3.3V*%
X69400000Y-90600000D03*
D18*
%TO.P,J5,2,Pin_2_2*%
%TO.N,GND*%
X69400000Y-93140000D03*
%TO.P,J5,3,Pin_3_3*%
%TO.N,/DBG_0*%
X69400000Y-95680000D03*
%TO.P,J5,4,Pin_4_4*%
%TO.N,/User/KILL*%
X69400000Y-98220000D03*
%TD*%
D16*
%TO.P,R15,1*%
%TO.N,Net-(Q5-G)*%
X123610000Y-95900000D03*
%TO.P,R15,2*%
%TO.N,GND*%
X122590000Y-95900000D03*
%TD*%
D28*
%TO.P,R16,1*%
%TO.N,+5V*%
X117890000Y-87000000D03*
%TO.P,R16,2*%
%TO.N,Net-(U2-FB)*%
X118910000Y-87000000D03*
%TD*%
D29*
%TO.P,U12,1*%
%TO.N,/ITR_0*%
X79525000Y-58195000D03*
%TO.P,U12,2,-_2*%
%TO.N,Net-(U12A--)*%
X79525000Y-59465000D03*
%TO.P,U12,3,+_3*%
%TO.N,/Sensors/ITR_THR*%
X79525000Y-60735000D03*
%TO.P,U12,4,V-_4*%
%TO.N,GND*%
X79525000Y-62005000D03*
%TO.P,U12,5,+_5*%
%TO.N,/Sensors/ITR_THR*%
X84475000Y-62005000D03*
%TO.P,U12,6,-_6*%
%TO.N,Net-(U12B--)*%
X84475000Y-60735000D03*
%TO.P,U12,7*%
%TO.N,/ITR_1*%
X84475000Y-59465000D03*
%TO.P,U12,8,V+_8*%
%TO.N,+3.3V*%
X84475000Y-58195000D03*
%TD*%
D30*
%TO.P,R31,1*%
%TO.N,/XSHUT_4*%
X129889376Y-89639376D03*
%TO.P,R31,2*%
%TO.N,+3.3V*%
X130610624Y-90360624D03*
%TD*%
D31*
%TO.P,J1,1,Pin_1_1*%
%TO.N,/Motors/AOUT1*%
X86170000Y-96250000D03*
D18*
%TO.P,J1,2,Pin_2_2*%
%TO.N,/Motors/AOUT2*%
X86170000Y-93710000D03*
%TO.P,J1,3,Pin_3_3*%
%TO.N,GND*%
X88710000Y-96250000D03*
%TO.P,J1,4,Pin_4_4*%
%TO.N,+5V*%
X88710000Y-93710000D03*
%TO.P,J1,5,Pin_5_5*%
%TO.N,Net-(J1-Pin_5)*%
X91250000Y-96250000D03*
%TO.P,J1,6,Pin_6_6*%
%TO.N,Net-(J1-Pin_6)*%
X91250000Y-93710000D03*
%TD*%
D32*
%TO.P,C14,1*%
%TO.N,Net-(JP1-B)*%
X90920000Y-80800000D03*
%TO.P,C14,2*%
%TO.N,GND*%
X91880000Y-80800000D03*
%TD*%
D33*
%TO.P,U5,1,VIN_1*%
%TO.N,+3.3V*%
X69490128Y-80509872D03*
D18*
%TO.P,U5,2,GND_2*%
%TO.N,GND*%
X67694077Y-82305923D03*
%TO.P,U5,3,SCL_3*%
%TO.N,/I2C_SCL*%
X65898026Y-84101974D03*
%TO.P,U5,4,SDA_4*%
%TO.N,/I2C_SDA*%
X64101974Y-85898026D03*
%TO.P,U5,5,GPIO_5*%
%TO.N,unconnected-(U5-GPIO-Pad5)*%
X65898026Y-87694077D03*
%TO.P,U5,6,XSHUT_6*%
%TO.N,/XSHUT_1*%
X67694077Y-85898026D03*
%TD*%
D28*
%TO.P,R29,1*%
%TO.N,/XSHUT_2*%
X73140000Y-56300000D03*
%TO.P,R29,2*%
%TO.N,+3.3V*%
X74160000Y-56300000D03*
%TD*%
D34*
%TO.P,SW1,*%
%TO.N,*%
X114800000Y-93000000D03*
X123000000Y-93000000D03*
D35*
%TO.P,SW1,1,A_1*%
%TO.N,Net-(Q2-G)*%
X116900000Y-93000000D03*
D36*
%TO.P,SW1,2,B_2*%
%TO.N,GND*%
X118900000Y-93000000D03*
%TO.P,SW1,3,C_3*%
%TO.N,unconnected-(SW1-C-Pad3)*%
X120900000Y-93000000D03*
%TD*%
D31*
%TO.P,J2,1,Pin_1_1*%
%TO.N,/Motors/BOUT2*%
X102705000Y-96252500D03*
D18*
%TO.P,J2,2,Pin_2_2*%
%TO.N,/Motors/BOUT1*%
X102705000Y-93712500D03*
%TO.P,J2,3,Pin_3_3*%
%TO.N,GND*%
X105245000Y-96252500D03*
%TO.P,J2,4,Pin_4_4*%
%TO.N,+5V*%
X105245000Y-93712500D03*
%TO.P,J2,5,Pin_5_5*%
%TO.N,Net-(J2-Pin_5)*%
X107785000Y-96252500D03*
%TO.P,J2,6,Pin_6_6*%
%TO.N,Net-(J2-Pin_6)*%
X107785000Y-93712500D03*
%TD*%
D26*
%TO.P,R21,1*%
%TO.N,/ITR_1*%
X86300000Y-59110000D03*
%TO.P,R21,2*%
%TO.N,+3.3V*%
X86300000Y-58090000D03*
%TD*%
D37*
%TO.P,C9,1*%
%TO.N,GND*%
X108500000Y-83350000D03*
%TO.P,C9,2*%
%TO.N,+5V*%
X108500000Y-85250000D03*
%TD*%
D16*
%TO.P,R34,1*%
%TO.N,Net-(JP1-B)*%
X91930000Y-79800000D03*
%TO.P,R34,2*%
%TO.N,Net-(C4-Pad1)*%
X90910000Y-79800000D03*
%TD*%
D38*
%TO.P,R42,1*%
%TO.N,/ENC_L_B*%
X134100000Y-82590000D03*
%TO.P,R42,2*%
%TO.N,GND*%
X134100000Y-83610000D03*
%TD*%
D28*
%TO.P,R22,1*%
%TO.N,+BATT*%
X121090000Y-81800000D03*
%TO.P,R22,2*%
%TO.N,/V_batt*%
X122110000Y-81800000D03*
%TD*%
D10*
%TO.P,C6,1*%
%TO.N,/RST*%
X61700000Y-74995000D03*
%TO.P,C6,2*%
%TO.N,GND*%
X61700000Y-75955000D03*
%TD*%
D27*
%TO.P,U3,1,VIN_1*%
%TO.N,+3.3V*%
X52000000Y-86650000D03*
D18*
%TO.P,U3,2,GND_2*%
%TO.N,GND*%
X52000000Y-89190000D03*
%TO.P,U3,3,SCL_3*%
%TO.N,/I2C_SCL*%
X52000000Y-91730000D03*
%TO.P,U3,4,SDA_4*%
%TO.N,/I2C_SDA*%
X52000000Y-94270000D03*
%TO.P,U3,5,GPIO_5*%
%TO.N,unconnected-(U3-GPIO-Pad5)*%
X54540000Y-94270000D03*
%TO.P,U3,6,XSHUT_6*%
%TO.N,/XSHUT_0*%
X54540000Y-91730000D03*
%TD*%
D38*
%TO.P,R38,1*%
%TO.N,/ENC_R_A*%
X135100000Y-82590000D03*
%TO.P,R38,2*%
%TO.N,GND*%
X135100000Y-83610000D03*
%TD*%
%TO.P,R3,1*%
%TO.N,+3.3V*%
X131700000Y-55990000D03*
%TO.P,R3,2*%
%TO.N,Net-(U10-A)*%
X131700000Y-57010000D03*
%TD*%
D10*
%TO.P,C2,1*%
%TO.N,+BATT*%
X107300000Y-87820000D03*
%TO.P,C2,2*%
%TO.N,GND*%
X107300000Y-88780000D03*
%TD*%
D26*
%TO.P,R40,1*%
%TO.N,Net-(J1-Pin_6)*%
X133100000Y-83610000D03*
%TO.P,R40,2*%
%TO.N,/ENC_L_B*%
X133100000Y-82590000D03*
%TD*%
D39*
%TO.P,R28,1*%
%TO.N,/XSHUT_1*%
X69089376Y-84210624D03*
%TO.P,R28,2*%
%TO.N,+3.3V*%
X69810624Y-83489376D03*
%TD*%
D40*
%TO.P,R24,1*%
%TO.N,/Motors/AISEN_RAW*%
X95062500Y-84300000D03*
%TO.P,R24,2*%
%TO.N,GND*%
X92137500Y-84300000D03*
%TD*%
D27*
%TO.P,U9,1,VIN_1*%
%TO.N,+3.3V*%
X142150000Y-98100000D03*
D18*
%TO.P,U9,2,GND_2*%
%TO.N,GND*%
X142150000Y-95560000D03*
%TO.P,U9,3,SCL_3*%
%TO.N,/I2C_SCL*%
X142150000Y-93020000D03*
%TO.P,U9,4,SDA_4*%
%TO.N,/I2C_SDA*%
X142150000Y-90480000D03*
%TO.P,U9,5,GPIO_5*%
%TO.N,unconnected-(U9-GPIO-Pad5)*%
X139610000Y-90480000D03*
%TO.P,U9,6,XSHUT_6*%
%TO.N,/XSHUT_5*%
X139610000Y-93020000D03*
%TD*%
D41*
%TO.P,U15,1,K_1*%
%TO.N,unconnected-(U15-K-Pad1)*%
X59100000Y-60000000D03*
%TO.P,U15,2,A_2*%
%TO.N,unconnected-(U15-A-Pad2)*%
X59100000Y-56000000D03*
%TO.P,U15,3*%
%TO.N,unconnected-(U15-Pad3)*%
X60900000Y-60000000D03*
%TO.P,U15,4*%
%TO.N,unconnected-(U15-Pad4)*%
X60900000Y-56000000D03*
%TD*%
D27*
%TO.P,J6,1,Pin_1_1*%
%TO.N,GND*%
X80750000Y-87810000D03*
D18*
%TO.P,J6,2,Pin_2_2*%
%TO.N,+3.3V*%
X80750000Y-85270000D03*
%TO.P,J6,3,Pin_3_3*%
%TO.N,/I2C_SCL*%
X80750000Y-82730000D03*
%TO.P,J6,4,Pin_4_4*%
%TO.N,/I2C_SDA*%
X80750000Y-80190000D03*
%TD*%
D38*
%TO.P,R36,1*%
%TO.N,/ENC_R_B*%
X138100000Y-82590000D03*
%TO.P,R36,2*%
%TO.N,GND*%
X138100000Y-83610000D03*
%TD*%
D16*
%TO.P,R6,1*%
%TO.N,Net-(D1-A)*%
X79560000Y-96012500D03*
%TO.P,R6,2*%
%TO.N,/Motors/AOUT2*%
X78540000Y-96012500D03*
%TD*%
D24*
%TO.P,H3,1,1_1*%
%TO.N,unconnected-(H3-Pad1)_5*%
X59600000Y-95500000D03*
%TO.N,unconnected-(H3-Pad1)_6*%
X60302944Y-93802944D03*
%TO.N,unconnected-(H3-Pad1)_8*%
X60302944Y-97197056D03*
%TO.N,unconnected-(H3-Pad1)_1*%
X62000000Y-93100000D03*
D25*
%TO.N,unconnected-(H3-Pad1)_3*%
X62000000Y-95500000D03*
D24*
%TO.N,unconnected-(H3-Pad1)_7*%
X62000000Y-97900000D03*
%TO.N,unconnected-(H3-Pad1)_4*%
X63697056Y-93802944D03*
%TO.N,unconnected-(H3-Pad1)*%
X63697056Y-97197056D03*
%TO.N,unconnected-(H3-Pad1)_2*%
X64400000Y-95500000D03*
%TD*%
D42*
%TO.P,U2,1,CB_1*%
%TO.N,Net-(U2-CB)*%
X118787500Y-85537500D03*
%TO.P,U2,2,GND_2*%
%TO.N,GND*%
X119737500Y-85537500D03*
%TO.P,U2,3,FB_3*%
%TO.N,Net-(U2-FB)*%
X120687500Y-85537500D03*
%TO.P,U2,4,EN_4*%
%TO.N,+BATT*%
X120687500Y-83262500D03*
%TO.P,U2,5,VIN_5*%
X119737500Y-83262500D03*
%TO.P,U2,6,SW_6*%
%TO.N,Net-(U2-SW)*%
X118787500Y-83262500D03*
%TD*%
D43*
%TO.P,A1,1,GPIO0_1*%
%TO.N,/ITR_THR_UC*%
X94345000Y-79440000D03*
D44*
%TO.P,A1,2,GPIO1_2*%
%TO.N,/XSHUT_0*%
X96885000Y-79440000D03*
D45*
%TO.P,A1,3,GND_3*%
%TO.N,GND*%
X99425000Y-79440000D03*
D44*
%TO.P,A1,4,GPIO2_4*%
%TO.N,/XSHUT_1*%
X101965000Y-79440000D03*
%TO.P,A1,5,GPIO3_5*%
%TO.N,/BTN_0*%
X104505000Y-79440000D03*
%TO.P,A1,6,GPIO4_6*%
%TO.N,/DBG_0*%
X107045000Y-79440000D03*
%TO.P,A1,7,GPIO5_7*%
%TO.N,/DBG_1*%
X109585000Y-79440000D03*
D45*
%TO.P,A1,8,GND_8*%
%TO.N,GND*%
X112125000Y-79440000D03*
D44*
%TO.P,A1,9,GPIO6_9*%
%TO.N,/AIN1*%
X114665000Y-79440000D03*
%TO.P,A1,10,GPIO7_10*%
%TO.N,/AIN2*%
X117205000Y-79440000D03*
%TO.P,A1,11,GPIO8_11*%
%TO.N,/BIN2*%
X119745000Y-79440000D03*
%TO.P,A1,12,GPIO9_12*%
%TO.N,/BIN1*%
X122285000Y-79440000D03*
D45*
%TO.P,A1,13,GND_13*%
%TO.N,GND*%
X124825000Y-79440000D03*
D44*
%TO.P,A1,14,GPIO10_14*%
%TO.N,/ENC_L_A*%
X127365000Y-79440000D03*
%TO.P,A1,15,GPIO11_15*%
%TO.N,/ENC_L_B*%
X129905000Y-79440000D03*
%TO.P,A1,16,GPIO12_16*%
%TO.N,/ENC_R_A*%
X132445000Y-79440000D03*
%TO.P,A1,17,GPIO13_17*%
%TO.N,/ENC_R_B*%
X134985000Y-79440000D03*
D45*
%TO.P,A1,18,GND_18*%
%TO.N,GND*%
X137525000Y-79440000D03*
D44*
%TO.P,A1,19,GPIO14_19*%
%TO.N,/XSHUT_4*%
X140065000Y-79440000D03*
%TO.P,A1,20,GPIO15_20*%
%TO.N,/XSHUT_5*%
X142605000Y-79440000D03*
%TO.P,A1,21,GPIO16_21*%
%TO.N,/IMU_INT1*%
X142605000Y-60060000D03*
%TO.P,A1,22,GPIO17_22*%
%TO.N,/XSHUT_3*%
X140065000Y-60060000D03*
D43*
%TO.P,A1,23,GND_23*%
%TO.N,GND*%
X137525000Y-60060000D03*
D44*
%TO.P,A1,24,GPIO18_24*%
%TO.N,/I2C_SDA*%
X134985000Y-60060000D03*
%TO.P,A1,25,GPIO19_25*%
%TO.N,/I2C_SCL*%
X132445000Y-60060000D03*
%TO.P,A1,26,GPIO20_26*%
%TO.N,/XSHUT_2*%
X129905000Y-60060000D03*
%TO.P,A1,27,GPIO21_27*%
%TO.N,/ITR_0*%
X127365000Y-60060000D03*
D43*
%TO.P,A1,28,GND_28*%
%TO.N,GND*%
X124825000Y-60060000D03*
D44*
%TO.P,A1,29,GPIO22_29*%
%TO.N,/ITR_1*%
X122285000Y-60060000D03*
%TO.P,A1,30,RUN_30*%
%TO.N,/RST*%
X119745000Y-60060000D03*
%TO.P,A1,31,GPIO26_ADC0_31*%
%TO.N,/V_batt*%
X117205000Y-60060000D03*
%TO.P,A1,32,GPIO27_ADC1_32*%
%TO.N,/AISEN*%
X114665000Y-60060000D03*
D43*
%TO.P,A1,33,AGND_33*%
%TO.N,GND*%
X112125000Y-60060000D03*
D44*
%TO.P,A1,34,GPIO28_ADC2_34*%
%TO.N,/BISEN*%
X109585000Y-60060000D03*
%TO.P,A1,35,ADC_VREF_35*%
%TO.N,unconnected-(A1-ADC_VREF-Pad35)*%
X107045000Y-60060000D03*
%TO.P,A1,36,3V3_36*%
%TO.N,+3.3V*%
X104505000Y-60060000D03*
%TO.P,A1,37,3V3_EN_37*%
%TO.N,unconnected-(A1-3V3_EN-Pad37)*%
X101965000Y-60060000D03*
D43*
%TO.P,A1,38,GND_38*%
%TO.N,GND*%
X99425000Y-60060000D03*
D44*
%TO.P,A1,39,VSYS_39*%
%TO.N,Net-(A1-VSYS)*%
X96885000Y-60060000D03*
%TO.P,A1,40,VBUS_40*%
%TO.N,Net-(A1-VBUS)*%
X94345000Y-60060000D03*
D46*
%TO.P,A1,D1*%
%TO.N,N/C*%
X124175000Y-69165900D03*
D47*
%TO.P,A1,D2*%
X124175000Y-66625900D03*
%TO.P,A1,D3*%
X124175000Y-64085900D03*
%TD*%
D28*
%TO.P,R23,1*%
%TO.N,/V_batt*%
X122990000Y-81800000D03*
%TO.P,R23,2*%
%TO.N,GND*%
X124010000Y-81800000D03*
%TD*%
D27*
%TO.P,J4,1,Pin_1_1*%
%TO.N,GND*%
X119725000Y-98200000D03*
D18*
%TO.P,J4,2,Pin_2_2*%
%TO.N,Net-(J4-Pin_2)*%
X122265000Y-98200000D03*
%TD*%
D48*
%TO.P,C3,1*%
%TO.N,+BATT*%
X106100000Y-87525000D03*
%TO.P,C3,2*%
%TO.N,GND*%
X106100000Y-89075000D03*
%TD*%
D16*
%TO.P,R5,1*%
%TO.N,Net-(U1-VINT)*%
X101710000Y-82600000D03*
%TO.P,R5,2*%
%TO.N,Net-(U1-~{SLEEP})*%
X100690000Y-82600000D03*
%TD*%
D38*
%TO.P,R26,1*%
%TO.N,+3.3V*%
X132200000Y-52090000D03*
%TO.P,R26,2*%
%TO.N,/I2C_SDA*%
X132200000Y-53110000D03*
%TD*%
D28*
%TO.P,R30,1*%
%TO.N,/XSHUT_3*%
X123240000Y-56200000D03*
%TO.P,R30,2*%
%TO.N,+3.3V*%
X124260000Y-56200000D03*
%TD*%
%TO.P,R17,1*%
%TO.N,Net-(U2-FB)*%
X119790000Y-87000000D03*
%TO.P,R17,2*%
%TO.N,GND*%
X120810000Y-87000000D03*
%TD*%
D27*
%TO.P,U6,1,VIN_1*%
%TO.N,+3.3V*%
X76050000Y-53960000D03*
D18*
%TO.P,U6,2,GND_2*%
%TO.N,GND*%
X73510000Y-53960000D03*
%TO.P,U6,3,SCL_3*%
%TO.N,/I2C_SCL*%
X70970000Y-53960000D03*
%TO.P,U6,4,SDA_4*%
%TO.N,/I2C_SDA*%
X68430000Y-53960000D03*
%TO.P,U6,5,GPIO_5*%
%TO.N,unconnected-(U6-GPIO-Pad5)*%
X68430000Y-56500000D03*
%TO.P,U6,6,XSHUT_6*%
%TO.N,/XSHUT_2*%
X70970000Y-56500000D03*
%TD*%
D49*
%TO.P,D1,1,K_1*%
%TO.N,/Motors/AOUT1*%
X78300000Y-98800000D03*
%TO.P,D1,2,A_2*%
%TO.N,Net-(D1-A)*%
X78300000Y-97225000D03*
%TD*%
D50*
%TO.P,RV2,1,1_1*%
%TO.N,+3.3V*%
X75687500Y-90740000D03*
D51*
%TO.P,RV2,2,2_2*%
%TO.N,Net-(JP1-A)*%
X75687500Y-88200000D03*
%TO.P,RV2,3,3_3*%
%TO.N,GND*%
X75687500Y-85660000D03*
%TD*%
D42*
%TO.P,U14,1*%
%TO.N,/BISEN*%
X84650000Y-88750000D03*
%TO.P,U14,2,GND_2*%
%TO.N,GND*%
X85600000Y-88750000D03*
%TO.P,U14,3,+_3*%
%TO.N,/Motors/BISEN_RAW*%
X86550000Y-88750000D03*
%TO.P,U14,4,-_4*%
%TO.N,GND*%
X86550000Y-86475000D03*
%TO.P,U14,5,V+_5*%
%TO.N,+3.3V*%
X84650000Y-86475000D03*
%TD*%
D52*
%TO.P,SW3,1,1_1*%
%TO.N,GND*%
X75800000Y-98750000D03*
%TO.P,SW3,2,2_2*%
%TO.N,/BTN_0*%
X75800000Y-94300000D03*
%TD*%
D53*
%TO.P,Q5,1,S_1*%
%TO.N,Net-(Q2-S-Pad1)*%
X127425000Y-95900000D03*
%TO.P,Q5,2,S_2*%
X126775000Y-95900000D03*
%TO.P,Q5,3,S_3*%
X126125000Y-95900000D03*
%TO.P,Q5,4,G_4*%
%TO.N,Net-(Q5-G)*%
X125475000Y-95900000D03*
D54*
%TO.P,Q5,5,D_5*%
%TO.N,Net-(J4-Pin_2)*%
X126450000Y-97910000D03*
D53*
X127425000Y-98850000D03*
X126775000Y-98850000D03*
X126125000Y-98850000D03*
X125475000Y-98850000D03*
%TD*%
D55*
%TO.P,D5,1,K_1*%
%TO.N,GND*%
X54925000Y-73800000D03*
%TO.P,D5,2,A_2*%
%TO.N,Net-(D5-A)*%
X56500000Y-73800000D03*
%TD*%
D16*
%TO.P,R13,1*%
%TO.N,/DBG_0*%
X58710000Y-77600000D03*
%TO.P,R13,2*%
%TO.N,Net-(D6-A)*%
X57690000Y-77600000D03*
%TD*%
D10*
%TO.P,C7,1*%
%TO.N,+3.3V*%
X141700000Y-52620000D03*
%TO.P,C7,2*%
%TO.N,GND*%
X141700000Y-53580000D03*
%TD*%
D21*
%TO.P,D4,1,K_1*%
%TO.N,Net-(D3-A)*%
X115700000Y-97212500D03*
%TO.P,D4,2,A_2*%
%TO.N,/Motors/BOUT1*%
X115700000Y-98787500D03*
%TD*%
D56*
%TO.P,Q3,1,G_1*%
%TO.N,Net-(A1-VBUS)*%
X94650000Y-57037500D03*
%TO.P,Q3,2,S_2*%
%TO.N,Net-(A1-VSYS)*%
X96550000Y-57037500D03*
%TO.P,Q3,3,D_3*%
%TO.N,+5V*%
X95600000Y-55162500D03*
%TD*%
D42*
%TO.P,U13,1*%
%TO.N,/AISEN*%
X84650000Y-84600000D03*
%TO.P,U13,2,GND_2*%
%TO.N,GND*%
X85600000Y-84600000D03*
%TO.P,U13,3,+_3*%
%TO.N,/Motors/AISEN_RAW*%
X86550000Y-84600000D03*
%TO.P,U13,4,-_4*%
%TO.N,GND*%
X86550000Y-82325000D03*
%TO.P,U13,5,V+_5*%
%TO.N,+3.3V*%
X84650000Y-82325000D03*
%TD*%
D41*
%TO.P,U16,1,K_1*%
%TO.N,unconnected-(U16-K-Pad1)*%
X62900000Y-60000000D03*
%TO.P,U16,2,A_2*%
%TO.N,unconnected-(U16-A-Pad2)*%
X62900000Y-56000000D03*
%TO.P,U16,3*%
%TO.N,unconnected-(U16-Pad3)*%
X64700000Y-60000000D03*
%TO.P,U16,4*%
%TO.N,unconnected-(U16-Pad4)*%
X64700000Y-56000000D03*
%TD*%
D38*
%TO.P,R10,1*%
%TO.N,+3.3V*%
X73500000Y-93990000D03*
%TO.P,R10,2*%
%TO.N,/BTN_0*%
X73500000Y-95010000D03*
%TD*%
%TO.P,R41,1*%
%TO.N,/ENC_L_A*%
X131100000Y-82590000D03*
%TO.P,R41,2*%
%TO.N,GND*%
X131100000Y-83610000D03*
%TD*%
D26*
%TO.P,R37,1*%
%TO.N,Net-(J2-Pin_5)*%
X136100000Y-83610000D03*
%TO.P,R37,2*%
%TO.N,/ENC_R_A*%
X136100000Y-82590000D03*
%TD*%
%TO.P,R2,1*%
%TO.N,Net-(U12B--)*%
X129700000Y-57010000D03*
%TO.P,R2,2*%
%TO.N,+3.3V*%
X129700000Y-55990000D03*
%TD*%
%TO.P,R20,1*%
%TO.N,/ITR_0*%
X77800000Y-58410000D03*
%TO.P,R20,2*%
%TO.N,+3.3V*%
X77800000Y-57390000D03*
%TD*%
D16*
%TO.P,R14,1*%
%TO.N,/DBG_1*%
X58720000Y-75700000D03*
%TO.P,R14,2*%
%TO.N,Net-(D7-A)*%
X57700000Y-75700000D03*
%TD*%
D57*
%TO.P,D8,1,K_1*%
%TO.N,/V_batt*%
X115900000Y-57400000D03*
%TO.P,D8,2,A_2*%
%TO.N,GND*%
X115900000Y-56000000D03*
%TD*%
D55*
%TO.P,D7,1,K_1*%
%TO.N,GND*%
X54912500Y-75700000D03*
%TO.P,D7,2,A_2*%
%TO.N,Net-(D7-A)*%
X56487500Y-75700000D03*
%TD*%
D16*
%TO.P,R1,1*%
%TO.N,+3.3V*%
X55610000Y-62100000D03*
%TO.P,R1,2*%
%TO.N,Net-(U4-A)*%
X54590000Y-62100000D03*
%TD*%
D38*
%TO.P,R32,1*%
%TO.N,/XSHUT_5*%
X139750000Y-95490000D03*
%TO.P,R32,2*%
%TO.N,+3.3V*%
X139750000Y-96510000D03*
%TD*%
D55*
%TO.P,D6,1,K_1*%
%TO.N,GND*%
X54912500Y-77600000D03*
%TO.P,D6,2,A_2*%
%TO.N,Net-(D6-A)*%
X56487500Y-77600000D03*
%TD*%
D38*
%TO.P,R11,1*%
%TO.N,+3.3V*%
X61700000Y-73065000D03*
%TO.P,R11,2*%
%TO.N,/RST*%
X61700000Y-74085000D03*
%TD*%
D58*
%TO.P,L1,1*%
%TO.N,Net-(U2-SW)*%
X115550000Y-84900000D03*
%TO.P,L1,2*%
%TO.N,+5V*%
X111850000Y-84900000D03*
%TD*%
D49*
%TO.P,D3,1,K_1*%
%TO.N,/Motors/BOUT1*%
X114200000Y-98787500D03*
%TO.P,D3,2,A_2*%
%TO.N,Net-(D3-A)*%
X114200000Y-97212500D03*
%TD*%
D59*
%TO.P,C8,1*%
%TO.N,Net-(U2-CB)*%
X117300000Y-85675000D03*
%TO.P,C8,2*%
%TO.N,Net-(U2-SW)*%
X117300000Y-84125000D03*
%TD*%
D60*
%TO.P,U1,1,~{SLEEP}_1*%
%TO.N,Net-(U1-~{SLEEP})*%
X98490000Y-83767500D03*
%TO.P,U1,2,AOUT1_2*%
%TO.N,/Motors/AOUT1*%
X98490000Y-84417500D03*
%TO.P,U1,3,AISEN_3*%
%TO.N,/Motors/AISEN_RAW*%
X98490000Y-85067500D03*
%TO.P,U1,4,AOUT2_4*%
%TO.N,/Motors/AOUT2*%
X98490000Y-85717500D03*
%TO.P,U1,5,BOUT2_5*%
%TO.N,/Motors/BOUT2*%
X98490000Y-86367500D03*
%TO.P,U1,6,BISEN_6*%
%TO.N,/Motors/BISEN_RAW*%
X98490000Y-87017500D03*
%TO.P,U1,7,BOUT1_7*%
%TO.N,/Motors/BOUT1*%
X98490000Y-87667500D03*
%TO.P,U1,8,~{FAULT}_8*%
%TO.N,unconnected-(U1-~{FAULT}-Pad8)*%
X98490000Y-88317500D03*
%TO.P,U1,9,BIN1_9*%
%TO.N,/BIN1*%
X104040000Y-88317500D03*
%TO.P,U1,10,BIN2_10*%
%TO.N,/BIN2*%
X104040000Y-87667500D03*
%TO.P,U1,11,VREF_11*%
%TO.N,Net-(U1-VINT)*%
X104040000Y-87017500D03*
%TO.P,U1,12,VM_12*%
%TO.N,+BATT*%
X104040000Y-86367500D03*
%TO.P,U1,13,GND_13*%
%TO.N,GND*%
X104040000Y-85717500D03*
%TO.P,U1,14,VINT_14*%
%TO.N,Net-(U1-VINT)*%
X104040000Y-85067500D03*
%TO.P,U1,15,AIN2_15*%
%TO.N,/AIN2*%
X104040000Y-84417500D03*
%TO.P,U1,16,AIN1_16*%
%TO.N,/AIN1*%
X104040000Y-83767500D03*
D61*
%TO.P,U1,17,GND_17*%
%TO.N,GND*%
X100530000Y-84700000D03*
X100530000Y-85595000D03*
X100530000Y-86490000D03*
X100530000Y-87385000D03*
X102000000Y-84700000D03*
X102000000Y-85595000D03*
X102000000Y-86490000D03*
X102000000Y-87385000D03*
%TD*%
D38*
%TO.P,R8,1*%
%TO.N,+3.3V*%
X130700000Y-55990000D03*
%TO.P,R8,2*%
%TO.N,Net-(U11-CS)*%
X130700000Y-57010000D03*
%TD*%
D26*
%TO.P,R35,1*%
%TO.N,Net-(J2-Pin_6)*%
X137100000Y-83610000D03*
%TO.P,R35,2*%
%TO.N,/ENC_R_B*%
X137100000Y-82590000D03*
%TD*%
D16*
%TO.P,R12,1*%
%TO.N,+3.3V*%
X58722500Y-73800000D03*
%TO.P,R12,2*%
%TO.N,Net-(D5-A)*%
X57702500Y-73800000D03*
%TD*%
D28*
%TO.P,R33,1*%
%TO.N,Net-(C4-Pad1)*%
X90910000Y-77800000D03*
%TO.P,R33,2*%
%TO.N,/ITR_THR_UC*%
X91930000Y-77800000D03*
%TD*%
D62*
%TO.P,C10,1*%
%TO.N,GND*%
X124150000Y-83300000D03*
%TO.P,C10,2*%
%TO.N,+BATT*%
X122250000Y-83300000D03*
%TD*%
D52*
%TO.P,SW4,1,1_1*%
%TO.N,GND*%
X64000000Y-77825000D03*
%TO.P,SW4,2,2_2*%
%TO.N,/RST*%
X64000000Y-73375000D03*
%TD*%
D10*
%TO.P,C12,1*%
%TO.N,+3.3V*%
X83350000Y-87145000D03*
%TO.P,C12,2*%
%TO.N,GND*%
X83350000Y-88105000D03*
%TD*%
D26*
%TO.P,R39,1*%
%TO.N,Net-(J1-Pin_5)*%
X132100000Y-83610000D03*
%TO.P,R39,2*%
%TO.N,/ENC_L_A*%
X132100000Y-82590000D03*
%TD*%
D40*
%TO.P,R25,1*%
%TO.N,/Motors/BISEN_RAW*%
X95062500Y-87800000D03*
%TO.P,R25,2*%
%TO.N,GND*%
X92137500Y-87800000D03*
%TD*%
D38*
%TO.P,R9,1*%
%TO.N,+3.3V*%
X131200000Y-52090000D03*
%TO.P,R9,2*%
%TO.N,/I2C_SCL*%
X131200000Y-53110000D03*
%TD*%
D32*
%TO.P,C4,1*%
%TO.N,Net-(C4-Pad1)*%
X90940000Y-78800000D03*
%TO.P,C4,2*%
%TO.N,GND*%
X91900000Y-78800000D03*
%TD*%
D63*
%TO.N,GND*%
X111700000Y-57900000D03*
X125800000Y-83800000D03*
X134000000Y-62800000D03*
X91100000Y-83700000D03*
X125200000Y-77200000D03*
X141600000Y-54900000D03*
X102000000Y-87385000D03*
X99100000Y-77400000D03*
X124500000Y-76500000D03*
X117400000Y-67400000D03*
X119800000Y-84400000D03*
X87500000Y-88000000D03*
X108800000Y-82400000D03*
X64000000Y-75600000D03*
X112500000Y-77200000D03*
X109900000Y-67400000D03*
X87400000Y-86462500D03*
X132200000Y-55400000D03*
X80500000Y-56800000D03*
X119000000Y-84400000D03*
X109900000Y-63600000D03*
X102000000Y-85595000D03*
X105700000Y-82200000D03*
X81300000Y-62000000D03*
X99800000Y-76700000D03*
X99800000Y-57200000D03*
X91100000Y-84900000D03*
X63100000Y-91600000D03*
X93100000Y-87700000D03*
X123800000Y-84500000D03*
X140900000Y-85900000D03*
X83600000Y-96300000D03*
X75800000Y-97800000D03*
X55900000Y-61300000D03*
X135100000Y-84300000D03*
X129900000Y-57700000D03*
X112500000Y-75800000D03*
X142500000Y-53600000D03*
X125100000Y-83800000D03*
X74400000Y-96900000D03*
X55100000Y-57400000D03*
X111800000Y-75800000D03*
X108100000Y-82400000D03*
X100530000Y-84700000D03*
X112500000Y-57900000D03*
X124400000Y-84500000D03*
X125200000Y-76500000D03*
X55700000Y-72900000D03*
X120800000Y-87600000D03*
X92630000Y-78800000D03*
X90700000Y-84300000D03*
X87400000Y-83900000D03*
X139500000Y-84300000D03*
X106400000Y-89900000D03*
X131200000Y-55200000D03*
X62800000Y-76000000D03*
X100530000Y-87385000D03*
X91100000Y-87200000D03*
X83400000Y-88800000D03*
X91100000Y-88400000D03*
X99000000Y-57900000D03*
X133300000Y-62800000D03*
X115900000Y-55200000D03*
X105700000Y-90600000D03*
X112500000Y-57100000D03*
X106400000Y-82200000D03*
X137100000Y-56000000D03*
X59600000Y-75000000D03*
X125200000Y-75800000D03*
X107100000Y-82200000D03*
X92730000Y-80600000D03*
X108800000Y-81700000D03*
X120600000Y-84400000D03*
X120800000Y-95900000D03*
X104700000Y-75800000D03*
X60600000Y-82000000D03*
X125800000Y-84500000D03*
X100530000Y-85595000D03*
X125100000Y-84500000D03*
X107300000Y-90100000D03*
X106400000Y-90600000D03*
X112500000Y-76500000D03*
X117400000Y-63600000D03*
X124500000Y-75800000D03*
X111800000Y-77200000D03*
X102000000Y-84700000D03*
X99800000Y-57900000D03*
X99800000Y-77400000D03*
X108100000Y-81700000D03*
X129700000Y-62600000D03*
X85600000Y-83500000D03*
X140600000Y-56800000D03*
X134100000Y-84300000D03*
X99000000Y-57200000D03*
X85600000Y-87600000D03*
X105700000Y-89900000D03*
X55600000Y-76600000D03*
X90700000Y-87800000D03*
X111700000Y-57100000D03*
X135600000Y-56300000D03*
X87400000Y-82362500D03*
X83400000Y-84700000D03*
X100530000Y-86490000D03*
X102000000Y-86490000D03*
X56900000Y-58700000D03*
X124500000Y-77200000D03*
X107500000Y-74400000D03*
X137525000Y-79440000D03*
X124825000Y-60060000D03*
X111800000Y-76500000D03*
X93100000Y-84400000D03*
X107300000Y-89400000D03*
X59400000Y-78300000D03*
X99100000Y-76700000D03*
X137895000Y-60060000D03*
X77300000Y-61300000D03*
%TO.N,/I2C_SCL*%
X133349997Y-63600000D03*
X134900000Y-56000000D03*
X131200000Y-54050000D03*
%TO.N,/I2C_SDA*%
X132200000Y-54700000D03*
X134000000Y-63600000D03*
X136050000Y-57050000D03*
%TO.N,Net-(U11-CS)*%
X130703554Y-57696446D03*
X139787500Y-56800000D03*
%TO.N,/BTN_0*%
X104500000Y-81700000D03*
X84400000Y-90500000D03*
%TO.N,Net-(U12A--)*%
X56900000Y-57400000D03*
%TO.N,/XSHUT_4*%
X140065000Y-85000000D03*
%TO.N,Net-(U1-VINT)*%
X103135002Y-85067500D03*
X103135002Y-87000000D03*
%TO.N,/XSHUT_0*%
X84100000Y-79600000D03*
X63100000Y-90900000D03*
%TO.N,/XSHUT_3*%
X127800000Y-57100000D03*
X140065000Y-60060000D03*
%TO.N,/DBG_0*%
X59900000Y-82000000D03*
X104700000Y-77100000D03*
X59700000Y-77600000D03*
%TO.N,+5V*%
X110600000Y-83200000D03*
X96600000Y-54800000D03*
X110600000Y-83900000D03*
X99400000Y-54800000D03*
X110600000Y-85300000D03*
X97300000Y-54800000D03*
X98700000Y-55500000D03*
X98000000Y-54800000D03*
X99400000Y-55500000D03*
X109900000Y-83900000D03*
X97300000Y-55500000D03*
X109900000Y-84600000D03*
X110600000Y-84600000D03*
X98000000Y-55500000D03*
X98700000Y-54800000D03*
X109900000Y-83200000D03*
X109900000Y-85300000D03*
X96600000Y-55500000D03*
%TO.N,/ITR_0*%
X117400000Y-65900000D03*
X109900000Y-65900000D03*
%TO.N,Net-(U12B--)*%
X129000000Y-57000000D03*
X109900000Y-66700000D03*
X129000000Y-62600000D03*
X117400000Y-66700000D03*
%TO.N,/ITR_1*%
X109900000Y-65100000D03*
X117400000Y-65100000D03*
%TO.N,/Motors/AOUT2*%
X83600000Y-95600000D03*
%TO.N,Net-(J1-Pin_5)*%
X132100000Y-84300000D03*
%TO.N,Net-(J1-Pin_6)*%
X133100000Y-84300000D03*
%TO.N,/XSHUT_1*%
X85100000Y-79700000D03*
%TO.N,/XSHUT_2*%
X116200000Y-53450000D03*
%TO.N,/Motors/BOUT1*%
X100800000Y-96000000D03*
%TO.N,Net-(J2-Pin_5)*%
X136100000Y-84300000D03*
%TO.N,Net-(J2-Pin_6)*%
X137100000Y-84300000D03*
%TO.N,/RST*%
X117400000Y-64300000D03*
X109900000Y-64300000D03*
X87450000Y-58450000D03*
X77300000Y-60100000D03*
%TO.N,Net-(U10-A)*%
X131700000Y-57800000D03*
%TO.N,/Motors/AISEN_RAW*%
X87450000Y-84612500D03*
X94100000Y-84400000D03*
%TO.N,/XSHUT_5*%
X140900000Y-85000000D03*
%TO.N,/DBG_1*%
X104700000Y-76449997D03*
X59600000Y-75700000D03*
%TO.N,/AIN1*%
X114665000Y-79440000D03*
X105000000Y-83749997D03*
%TO.N,/AIN2*%
X117205000Y-79440000D03*
X105000000Y-84400000D03*
%TO.N,/BIN2*%
X105000000Y-87700000D03*
X119745000Y-79440000D03*
%TO.N,/BIN1*%
X105000000Y-88400000D03*
X122285000Y-79440000D03*
%TO.N,/AISEN*%
X84700000Y-83500000D03*
X108650000Y-75550000D03*
%TO.N,/BISEN*%
X84700000Y-87600000D03*
X108050000Y-74850000D03*
%TO.N,/Motors/BISEN_RAW*%
X94100000Y-87700000D03*
X87512500Y-88750000D03*
%TO.N,Net-(U4-A)*%
X55100000Y-61300000D03*
%TD*%
%TO.N,+3.3V*%
D64*
X75687500Y-91802500D02*
X73500000Y-93990000D01*
D65*
X78200000Y-89300000D02*
X78200000Y-86617919D01*
D66*
X141700000Y-52620000D02*
X141580000Y-52500000D01*
X131700000Y-55990000D02*
X129700000Y-55990000D01*
D67*
X76050000Y-53960000D02*
X77810000Y-52200000D01*
D66*
X138062500Y-53400000D02*
X138062500Y-53074568D01*
D64*
X139750000Y-98050000D02*
X139700000Y-98100000D01*
D68*
X131200000Y-51015000D02*
X132200000Y-51015000D01*
X80750000Y-85270000D02*
X81475000Y-85270000D01*
X132200000Y-51015000D02*
X140095000Y-51015000D01*
D65*
X136500000Y-93700000D02*
X135250000Y-92450000D01*
X78200000Y-86617919D02*
X79547919Y-85270000D01*
D64*
X58722500Y-73800000D02*
X59457500Y-73065000D01*
D65*
X142250000Y-98100000D02*
X139700000Y-98100000D01*
X76760000Y-90740000D02*
X78200000Y-89300000D01*
D68*
X140095000Y-51015000D02*
X141700000Y-52620000D01*
D65*
X52500000Y-72200000D02*
X52500000Y-78400000D01*
X70609872Y-80509872D02*
X72600000Y-82500000D01*
D64*
X59457500Y-73065000D02*
X61700000Y-73065000D01*
D66*
X127380000Y-53960000D02*
X126150000Y-53960000D01*
D65*
X58140128Y-80509872D02*
X69490128Y-80509872D01*
X72600000Y-82500000D02*
X72600000Y-89400000D01*
D64*
X84580000Y-58090000D02*
X84475000Y-58195000D01*
D66*
X131200000Y-52090000D02*
X131200000Y-51015000D01*
D68*
X126150000Y-53960000D02*
X129095000Y-51015000D01*
D65*
X58800000Y-51800000D02*
X52500000Y-58100000D01*
D64*
X81920000Y-56240000D02*
X82480000Y-56800000D01*
D67*
X82300000Y-52200000D02*
X100510000Y-52200000D01*
D64*
X78950000Y-56240000D02*
X81920000Y-56240000D01*
D65*
X138400000Y-98100000D02*
X136500000Y-96200000D01*
X69490128Y-80509872D02*
X70609872Y-80509872D01*
D66*
X138637068Y-52500000D02*
X140462500Y-52500000D01*
D65*
X52500000Y-78400000D02*
X54609872Y-80509872D01*
X69380256Y-80400000D02*
X69490128Y-80509872D01*
D67*
X104505000Y-56195000D02*
X108600000Y-52100000D01*
D64*
X58722500Y-73800000D02*
X57122500Y-72200000D01*
D68*
X82975000Y-83045000D02*
X83350000Y-83045000D01*
D65*
X72600000Y-89400000D02*
X73940000Y-90740000D01*
D67*
X100510000Y-52200000D02*
X104505000Y-56195000D01*
D66*
X141580000Y-52500000D02*
X140462500Y-52500000D01*
D65*
X75687500Y-90740000D02*
X76760000Y-90740000D01*
X52000000Y-86650000D02*
X52000000Y-83119744D01*
D66*
X124260000Y-55850000D02*
X126150000Y-53960000D01*
D64*
X55610000Y-62100000D02*
X56490000Y-62100000D01*
D65*
X54609872Y-80509872D02*
X58140128Y-80509872D01*
X139700000Y-98100000D02*
X138400000Y-98100000D01*
D64*
X57122500Y-72200000D02*
X52500000Y-72200000D01*
D66*
X74160000Y-56300000D02*
X74160000Y-55850000D01*
D68*
X80750000Y-85270000D02*
X82975000Y-83045000D01*
X83980000Y-87145000D02*
X84650000Y-86475000D01*
D67*
X104505000Y-60060000D02*
X104505000Y-56195000D01*
D68*
X82480000Y-56800000D02*
X83080000Y-56800000D01*
D66*
X138062500Y-53074568D02*
X138637068Y-52500000D01*
D65*
X52500000Y-58100000D02*
X52500000Y-63400000D01*
D66*
X129410000Y-55990000D02*
X127380000Y-53960000D01*
X132200000Y-52090000D02*
X132200000Y-51015000D01*
D67*
X77810000Y-52200000D02*
X82300000Y-52200000D01*
D65*
X72600000Y-89400000D02*
X70600000Y-89400000D01*
D68*
X129095000Y-51015000D02*
X131200000Y-51015000D01*
X83930000Y-83045000D02*
X84650000Y-82325000D01*
D64*
X69810624Y-83489376D02*
X69810624Y-80830368D01*
D65*
X135250000Y-92450000D02*
X133490128Y-90690128D01*
D67*
X108600000Y-52100000D02*
X124290000Y-52100000D01*
D64*
X54310000Y-63400000D02*
X52500000Y-63400000D01*
D68*
X81475000Y-85270000D02*
X83350000Y-87145000D01*
D69*
X132619632Y-90360624D02*
X133490128Y-89490128D01*
D65*
X70600000Y-89400000D02*
X69400000Y-90600000D01*
X136500000Y-96200000D02*
X136500000Y-93700000D01*
D68*
X82480000Y-52380000D02*
X82300000Y-52200000D01*
D65*
X73890000Y-51800000D02*
X58800000Y-51800000D01*
D68*
X83350000Y-83045000D02*
X83930000Y-83045000D01*
D64*
X86300000Y-58090000D02*
X84580000Y-58090000D01*
D68*
X82480000Y-56800000D02*
X82480000Y-52380000D01*
D65*
X52000000Y-83119744D02*
X54609872Y-80509872D01*
X73940000Y-90740000D02*
X75687500Y-90740000D01*
D64*
X55610000Y-62100000D02*
X54310000Y-63400000D01*
D66*
X74160000Y-55850000D02*
X76050000Y-53960000D01*
D64*
X75687500Y-90740000D02*
X75687500Y-91802500D01*
D68*
X83350000Y-87145000D02*
X83980000Y-87145000D01*
X83080000Y-56800000D02*
X84475000Y-58195000D01*
D65*
X52500000Y-72200000D02*
X52500000Y-63400000D01*
D64*
X69810624Y-80830368D02*
X69490128Y-80509872D01*
D65*
X79547919Y-85270000D02*
X80750000Y-85270000D01*
D69*
X130610624Y-90360624D02*
X132619632Y-90360624D01*
D65*
X133490128Y-90690128D02*
X133490128Y-89740128D01*
X76050000Y-53960000D02*
X73890000Y-51800000D01*
D67*
X124290000Y-52100000D02*
X126150000Y-53960000D01*
D66*
X140462500Y-52500000D02*
X139787500Y-53175000D01*
D64*
X77800000Y-57390000D02*
X78950000Y-56240000D01*
D66*
X124260000Y-56200000D02*
X124260000Y-55850000D01*
D64*
X53590000Y-88240000D02*
X52000000Y-86650000D01*
X54500000Y-88240000D02*
X53590000Y-88240000D01*
X139750000Y-96510000D02*
X139750000Y-98050000D01*
D66*
X129700000Y-55990000D02*
X129410000Y-55990000D01*
%TO.N,GND*%
D64*
X137307107Y-84800000D02*
X135600000Y-84800000D01*
X64000000Y-77825000D02*
X64000000Y-75600000D01*
D66*
X137700000Y-55400000D02*
X137100000Y-56000000D01*
D64*
X138100000Y-83610000D02*
X138100000Y-84007107D01*
D68*
X83350000Y-84650000D02*
X83400000Y-84700000D01*
D66*
X141700000Y-53580000D02*
X142480000Y-53580000D01*
D68*
X83350000Y-88105000D02*
X83350000Y-88750000D01*
D64*
X91880000Y-80800000D02*
X92530000Y-80800000D01*
D66*
X140512500Y-54900000D02*
X141600000Y-54900000D01*
D64*
X54912500Y-75700000D02*
X54912500Y-75912500D01*
X133600000Y-84800000D02*
X134100000Y-84300000D01*
X91900000Y-78800000D02*
X92630000Y-78800000D01*
D68*
X83350000Y-84005000D02*
X83350000Y-84650000D01*
D64*
X134100000Y-83610000D02*
X134100000Y-84300000D01*
D68*
X85600000Y-88750000D02*
X85600000Y-87600000D01*
D66*
X141380000Y-53900000D02*
X141700000Y-53580000D01*
D69*
X73500000Y-96880000D02*
X74380000Y-96880000D01*
D66*
X140512500Y-53900000D02*
X141380000Y-53900000D01*
D69*
X120810000Y-87000000D02*
X120810000Y-87590000D01*
D68*
X119800000Y-84400000D02*
X119737500Y-84462500D01*
D69*
X75800000Y-98750000D02*
X75800000Y-97800000D01*
D70*
X92237500Y-84400000D02*
X93100000Y-84400000D01*
D71*
X122590000Y-95900000D02*
X120800000Y-95900000D01*
D68*
X119737500Y-84462500D02*
X119737500Y-85537500D01*
D70*
X86550000Y-86475000D02*
X87387500Y-86475000D01*
D64*
X131100000Y-83610000D02*
X131100000Y-84007107D01*
X135100000Y-83610000D02*
X135100000Y-84300000D01*
D68*
X104040000Y-85717500D02*
X102122500Y-85717500D01*
D64*
X131892893Y-84800000D02*
X133600000Y-84800000D01*
D69*
X81295000Y-62005000D02*
X81300000Y-62000000D01*
D68*
X85600000Y-84600000D02*
X85600000Y-83500000D01*
D66*
X142480000Y-53580000D02*
X142500000Y-53600000D01*
D70*
X86550000Y-82325000D02*
X87362500Y-82325000D01*
D68*
X102122500Y-85717500D02*
X102000000Y-85595000D01*
D64*
X54925000Y-73675000D02*
X55700000Y-72900000D01*
X92530000Y-80800000D02*
X92730000Y-80600000D01*
D68*
X119000000Y-84400000D02*
X120600000Y-84400000D01*
D64*
X138100000Y-84007107D02*
X137307107Y-84800000D01*
D69*
X120810000Y-87590000D02*
X120800000Y-87600000D01*
D68*
X107300000Y-88780000D02*
X107300000Y-90100000D01*
D69*
X79525000Y-62005000D02*
X81295000Y-62005000D01*
D64*
X61700000Y-75955000D02*
X62755000Y-75955000D01*
D70*
X92137500Y-84300000D02*
X92237500Y-84400000D01*
D64*
X115900000Y-56000000D02*
X115900000Y-55200000D01*
D70*
X92137500Y-87800000D02*
X92237500Y-87700000D01*
D64*
X135600000Y-84800000D02*
X135100000Y-84300000D01*
X54912500Y-77287500D02*
X55600000Y-76600000D01*
D68*
X81520000Y-56800000D02*
X80500000Y-56800000D01*
D64*
X54912500Y-77600000D02*
X54912500Y-77287500D01*
X54912500Y-75912500D02*
X55600000Y-76600000D01*
D69*
X74380000Y-96880000D02*
X74400000Y-96900000D01*
D64*
X131100000Y-84007107D02*
X131892893Y-84800000D01*
D70*
X92237500Y-87700000D02*
X93100000Y-87700000D01*
D68*
X83350000Y-88750000D02*
X83400000Y-88800000D01*
D64*
X54925000Y-73800000D02*
X54925000Y-73675000D01*
X62755000Y-75955000D02*
X62800000Y-76000000D01*
D66*
X138062500Y-55400000D02*
X137700000Y-55400000D01*
%TO.N,/I2C_SCL*%
D64*
X139398026Y-85898026D02*
X143375000Y-89875000D01*
X136000000Y-54900000D02*
X132445000Y-58455000D01*
X131200000Y-53110000D02*
X131200000Y-54050000D01*
X129905000Y-85891052D02*
X129898026Y-85898026D01*
X132445000Y-62695003D02*
X132445000Y-60060000D01*
X143375000Y-89875000D02*
X143375000Y-91895000D01*
X132445000Y-58455000D02*
X132445000Y-60060000D01*
X138062500Y-54900000D02*
X136000000Y-54900000D01*
X133349997Y-63600000D02*
X132445000Y-62695003D01*
X129898026Y-85898026D02*
X139398026Y-85898026D01*
X143375000Y-91895000D02*
X142250000Y-93020000D01*
%TO.N,/I2C_SDA*%
X130500000Y-87200000D02*
X131200000Y-86500000D01*
X134000000Y-63600000D02*
X134985000Y-62615000D01*
X138270000Y-86500000D02*
X142250000Y-90480000D01*
X134985000Y-60060000D02*
X134985000Y-58115000D01*
X131200000Y-86500000D02*
X138270000Y-86500000D01*
X128101974Y-84101974D02*
X128500000Y-84500000D01*
X128500000Y-86300000D02*
X129400000Y-87200000D01*
X136090000Y-57010000D02*
X137690000Y-57010000D01*
X134985000Y-62615000D02*
X134985000Y-60060000D01*
X134985000Y-58115000D02*
X136090000Y-57010000D01*
X132200000Y-53110000D02*
X132200000Y-54700000D01*
X129400000Y-87200000D02*
X130500000Y-87200000D01*
X128500000Y-84500000D02*
X128500000Y-86300000D01*
X138787500Y-55912500D02*
X138787500Y-55625000D01*
X137690000Y-57010000D02*
X138787500Y-55912500D01*
%TO.N,Net-(U11-CS)*%
X130703554Y-57696446D02*
X130703554Y-57013554D01*
X139787500Y-56800000D02*
X139787500Y-55625000D01*
X130703554Y-57013554D02*
X130700000Y-57010000D01*
X139787500Y-55625000D02*
X139287500Y-55625000D01*
%TO.N,/IMU_INT1*%
X142605000Y-54705000D02*
X142605000Y-60060000D01*
X140512500Y-54400000D02*
X142300000Y-54400000D01*
X142605000Y-60060000D02*
X142850000Y-59815000D01*
X142300000Y-54400000D02*
X142605000Y-54705000D01*
%TO.N,Net-(JP1-A)*%
X74300000Y-81800000D02*
X74300000Y-86812500D01*
X74300000Y-86812500D02*
X75687500Y-88200000D01*
X74400000Y-81700000D02*
X74300000Y-81800000D01*
%TO.N,/Sensors/ITR_THR*%
X75700000Y-80750000D02*
X74050000Y-79100000D01*
X68000000Y-63900000D02*
X71165000Y-60735000D01*
X71600000Y-79100000D02*
X68000000Y-75500000D01*
X68000000Y-75500000D02*
X68000000Y-63900000D01*
X71165000Y-60735000D02*
X79525000Y-60735000D01*
X79525000Y-60735000D02*
X81135000Y-60735000D01*
X82405000Y-62005000D02*
X84475000Y-62005000D01*
X75700000Y-81700000D02*
X75700000Y-80750000D01*
X74050000Y-79100000D02*
X71600000Y-79100000D01*
X81135000Y-60735000D02*
X82405000Y-62005000D01*
%TO.N,Net-(JP1-B)*%
X88620000Y-78500000D02*
X90920000Y-80800000D01*
X78800000Y-78500000D02*
X88620000Y-78500000D01*
X77000000Y-80300000D02*
X78800000Y-78500000D01*
X77000000Y-81700000D02*
X77000000Y-80300000D01*
D69*
X90930000Y-80800000D02*
X91930000Y-79800000D01*
%TO.N,/BTN_0*%
D64*
X77154962Y-94300000D02*
X80954962Y-90500000D01*
X104505000Y-81595000D02*
X104505000Y-79440000D01*
X74165000Y-94345000D02*
X73500000Y-95010000D01*
X73500000Y-95920000D02*
X73500000Y-95010000D01*
X80954962Y-90500000D02*
X84400000Y-90500000D01*
X104500000Y-81700000D02*
X104500000Y-81600000D01*
X75800000Y-94300000D02*
X77154962Y-94300000D01*
X75800000Y-94345000D02*
X74165000Y-94345000D01*
X104500000Y-81600000D02*
X104505000Y-81595000D01*
%TO.N,Net-(U12A--)*%
X67900000Y-62100000D02*
X70535000Y-59465000D01*
X57510000Y-62100000D02*
X57510000Y-58010000D01*
X70535000Y-59465000D02*
X79525000Y-59465000D01*
X57510000Y-62100000D02*
X67900000Y-62100000D01*
X57510000Y-58010000D02*
X56900000Y-57400000D01*
%TO.N,/XSHUT_4*%
X140065000Y-84935000D02*
X140065000Y-79440000D01*
D69*
X128101974Y-87851974D02*
X128101974Y-87694077D01*
X129889376Y-89639376D02*
X128101974Y-87851974D01*
%TO.N,Net-(Q2-G)*%
D71*
X127425000Y-94699670D02*
X127075330Y-94350000D01*
X127075330Y-94350000D02*
X124448110Y-94350000D01*
X127425000Y-95000000D02*
X127425000Y-94699670D01*
X118500000Y-95197500D02*
X116900000Y-93597500D01*
X123600610Y-95197500D02*
X118500000Y-95197500D01*
X116900000Y-93597500D02*
X116900000Y-93000000D01*
X124448110Y-94350000D02*
X123600610Y-95197500D01*
%TO.N,+BATT*%
D64*
X122000000Y-83450000D02*
X122100000Y-83450000D01*
D67*
X122000000Y-83450000D02*
X122000000Y-88900000D01*
D72*
X110500000Y-89200000D02*
X108400000Y-87100000D01*
D64*
X121090000Y-81800000D02*
X121390000Y-82100000D01*
X121390000Y-82100000D02*
X121390000Y-82840000D01*
D67*
X122250000Y-83300000D02*
X122150000Y-83300000D01*
D72*
X122300000Y-89200000D02*
X110500000Y-89200000D01*
X108400000Y-87100000D02*
X108000000Y-87100000D01*
X126450000Y-91550000D02*
X124100000Y-89200000D01*
D64*
X121390000Y-82840000D02*
X122000000Y-83450000D01*
D72*
X126450000Y-92990000D02*
X126450000Y-91550000D01*
D67*
X122000000Y-88900000D02*
X122300000Y-89200000D01*
D72*
X124100000Y-89200000D02*
X122300000Y-89200000D01*
D64*
X122100000Y-83450000D02*
X122250000Y-83300000D01*
D67*
X122150000Y-83300000D02*
X122000000Y-83450000D01*
%TO.N,Net-(D1-A)*%
D64*
X79560000Y-96012500D02*
X79560000Y-96985000D01*
X79560000Y-96985000D02*
X79800000Y-97225000D01*
D70*
X78300000Y-97225000D02*
X79800000Y-97225000D01*
%TO.N,/Motors/AOUT1*%
D68*
X86170000Y-96250000D02*
X86170000Y-96170000D01*
X97492500Y-84392500D02*
X96000000Y-82900000D01*
X98490000Y-84417500D02*
X98465000Y-84392500D01*
X84920000Y-93080000D02*
X84920000Y-95000000D01*
D70*
X79800000Y-98800000D02*
X83620000Y-98800000D01*
D68*
X88450000Y-86430762D02*
X88450000Y-89550000D01*
X88450000Y-89550000D02*
X84920000Y-93080000D01*
X89813261Y-83886739D02*
X89813261Y-85067500D01*
X98465000Y-84392500D02*
X97492500Y-84392500D01*
D70*
X79800000Y-98800000D02*
X78300000Y-98800000D01*
D68*
X90800000Y-82900000D02*
X89813261Y-83886739D01*
X84920000Y-95000000D02*
X86170000Y-96250000D01*
X89813261Y-85067500D02*
X88450000Y-86430762D01*
D70*
X83620000Y-98800000D02*
X86170000Y-96250000D01*
D68*
X96000000Y-82900000D02*
X90800000Y-82900000D01*
%TO.N,Net-(U1-VINT)*%
D64*
X103265000Y-84155000D02*
X103265000Y-84937502D01*
X104040000Y-87017500D02*
X103152502Y-87017500D01*
D68*
X104040000Y-85067500D02*
X106217500Y-85067500D01*
D64*
X103152502Y-87017500D02*
X103135002Y-87000000D01*
X103135002Y-85067500D02*
X104040000Y-85067500D01*
D68*
X106217500Y-85067500D02*
X106400000Y-85250000D01*
D64*
X103265000Y-84937502D02*
X103135002Y-85067500D01*
X101710000Y-82600000D02*
X103265000Y-84155000D01*
%TO.N,/XSHUT_0*%
X54500000Y-91690000D02*
X54540000Y-91730000D01*
X96885000Y-81040000D02*
X96125000Y-81800000D01*
X54500000Y-89260000D02*
X54500000Y-91690000D01*
X86494974Y-79200000D02*
X84500000Y-79200000D01*
X96885000Y-79440000D02*
X96885000Y-81040000D01*
X84500000Y-79200000D02*
X84100000Y-79600000D01*
X89094974Y-81800000D02*
X86494974Y-79200000D01*
X96125000Y-81800000D02*
X89094974Y-81800000D01*
X55370000Y-90900000D02*
X54540000Y-91730000D01*
X63100000Y-90900000D02*
X55370000Y-90900000D01*
%TO.N,Net-(D3-A)*%
D70*
X115700000Y-97212500D02*
X115700000Y-96240000D01*
X114200000Y-97212500D02*
X115700000Y-97212500D01*
X115700000Y-96240000D02*
X115460000Y-96000000D01*
%TO.N,/Motors/BOUT2*%
D68*
X102705000Y-96252500D02*
X95952500Y-89500000D01*
X90632500Y-86367500D02*
X98490000Y-86367500D01*
X95952500Y-89500000D02*
X90700000Y-89500000D01*
X89900000Y-88700000D02*
X89900000Y-87100000D01*
X90700000Y-89500000D02*
X89900000Y-88700000D01*
D70*
X114440000Y-96000000D02*
X113750000Y-96000000D01*
X104102500Y-97650000D02*
X102705000Y-96252500D01*
X113750000Y-96000000D02*
X112100000Y-97650000D01*
X112100000Y-97650000D02*
X104102500Y-97650000D01*
D68*
X89900000Y-87100000D02*
X90632500Y-86367500D01*
%TO.N,/XSHUT_3*%
D64*
X124140000Y-57100000D02*
X127800000Y-57100000D01*
D66*
X123240000Y-56200000D02*
X121370000Y-56200000D01*
X121370000Y-56200000D02*
X121070000Y-56500000D01*
D64*
X123240000Y-56200000D02*
X124140000Y-57100000D01*
%TO.N,/DBG_0*%
X69400000Y-95680000D02*
X59900000Y-86180000D01*
X106500000Y-77100000D02*
X107045000Y-77645000D01*
X107045000Y-77645000D02*
X107045000Y-79440000D01*
X59900000Y-86180000D02*
X59900000Y-82000000D01*
X104700000Y-77100000D02*
X106500000Y-77100000D01*
X59700000Y-77600000D02*
X58710000Y-77600000D01*
%TO.N,Net-(Q5-G)*%
D71*
X125475000Y-95900000D02*
X123610000Y-95900000D01*
%TO.N,+5V*%
D66*
X116890000Y-87000000D02*
X116490000Y-87400000D01*
D68*
X111850000Y-85550000D02*
X111850000Y-84900000D01*
D66*
X117890000Y-87000000D02*
X116890000Y-87000000D01*
X111850000Y-87250000D02*
X111850000Y-84900000D01*
X112000000Y-87400000D02*
X111850000Y-87250000D01*
X116490000Y-87400000D02*
X112000000Y-87400000D01*
%TO.N,Net-(U2-FB)*%
D70*
X119790000Y-87000000D02*
X118910000Y-87000000D01*
X119790000Y-86900000D02*
X120687500Y-86002500D01*
X119790000Y-87000000D02*
X119790000Y-86900000D01*
X120687500Y-86002500D02*
X120687500Y-85537500D01*
%TO.N,/ITR_0*%
D64*
X127365000Y-61135000D02*
X127365000Y-60060000D01*
X118900000Y-65900000D02*
X122500000Y-62300000D01*
X117400000Y-65900000D02*
X118900000Y-65900000D01*
D69*
X79310000Y-58410000D02*
X79525000Y-58195000D01*
D64*
X82700000Y-60100000D02*
X80795000Y-58195000D01*
X122500000Y-62300000D02*
X126200000Y-62300000D01*
X93050000Y-64300000D02*
X88850000Y-60100000D01*
X88850000Y-60100000D02*
X82700000Y-60100000D01*
X107300000Y-65900000D02*
X105700000Y-64300000D01*
X109900000Y-65900000D02*
X107300000Y-65900000D01*
X105700000Y-64300000D02*
X93050000Y-64300000D01*
X126200000Y-62300000D02*
X127365000Y-61135000D01*
D69*
X77800000Y-58410000D02*
X79310000Y-58410000D01*
D64*
X80795000Y-58195000D02*
X79525000Y-58195000D01*
%TO.N,Net-(U12B--)*%
X122800000Y-62900000D02*
X128700000Y-62900000D01*
X128700000Y-62900000D02*
X129000000Y-62600000D01*
X106800000Y-66700000D02*
X105200000Y-65100000D01*
X119000000Y-66700000D02*
X122800000Y-62900000D01*
X105200000Y-65100000D02*
X92800000Y-65100000D01*
X129690000Y-57000000D02*
X129700000Y-57010000D01*
X88435000Y-60735000D02*
X84475000Y-60735000D01*
X129000000Y-57000000D02*
X129690000Y-57000000D01*
X109900000Y-66700000D02*
X106800000Y-66700000D01*
X92800000Y-65100000D02*
X88435000Y-60735000D01*
X117400000Y-66700000D02*
X119000000Y-66700000D01*
%TO.N,/ITR_1*%
X118600000Y-65100000D02*
X122285000Y-61415000D01*
X84475000Y-59465000D02*
X85945000Y-59465000D01*
X109900000Y-65100000D02*
X107700000Y-65100000D01*
X85945000Y-59465000D02*
X86300000Y-59110000D01*
X117400000Y-65100000D02*
X118600000Y-65100000D01*
X106149997Y-63549997D02*
X93249997Y-63549997D01*
X107700000Y-65100000D02*
X106149997Y-63549997D01*
X88810000Y-59110000D02*
X86300000Y-59110000D01*
X122285000Y-61415000D02*
X122285000Y-60060000D01*
X93249997Y-63549997D02*
X88810000Y-59110000D01*
%TO.N,/Motors/AOUT2*%
D68*
X89100000Y-86700000D02*
X89100000Y-90800000D01*
D70*
X78540000Y-96012500D02*
X79352500Y-95200000D01*
X83200000Y-95200000D02*
X83600000Y-95600000D01*
X79352500Y-95200000D02*
X83200000Y-95200000D01*
D68*
X86190000Y-93710000D02*
X86170000Y-93710000D01*
X98490000Y-85717500D02*
X90082500Y-85717500D01*
X90082500Y-85717500D02*
X89100000Y-86700000D01*
X89100000Y-90800000D02*
X86190000Y-93710000D01*
%TO.N,Net-(J1-Pin_5)*%
D70*
X132100000Y-84300000D02*
X132100000Y-83610000D01*
%TO.N,Net-(J1-Pin_6)*%
X133100000Y-84300000D02*
X133100000Y-83610000D01*
%TO.N,/XSHUT_1*%
D64*
X69089376Y-84210624D02*
X67694077Y-85605923D01*
X100700000Y-81900000D02*
X100000000Y-81900000D01*
X99700000Y-82200000D02*
X89000000Y-82200000D01*
X100000000Y-81900000D02*
X99700000Y-82200000D01*
X89000000Y-82200000D02*
X86500000Y-79700000D01*
X67694077Y-85605923D02*
X67694077Y-85898026D01*
X101965000Y-79440000D02*
X101965000Y-80635000D01*
X86500000Y-79700000D02*
X85100000Y-79700000D01*
X101965000Y-80635000D02*
X100700000Y-81900000D01*
%TO.N,/XSHUT_2*%
X116900000Y-54150000D02*
X116200000Y-53450000D01*
X116900000Y-57300000D02*
X116900000Y-54150000D01*
X117500000Y-57900000D02*
X116900000Y-57300000D01*
D66*
X73140000Y-56300000D02*
X71170000Y-56300000D01*
D64*
X129905000Y-60060000D02*
X129905000Y-58605000D01*
D66*
X71170000Y-56300000D02*
X70970000Y-56500000D01*
D64*
X129200000Y-57900000D02*
X117500000Y-57900000D01*
X129905000Y-58605000D02*
X129200000Y-57900000D01*
%TO.N,/Motors/BOUT1*%
D68*
X96600000Y-88000000D02*
X96600000Y-89100000D01*
D70*
X113612500Y-98200000D02*
X114200000Y-98787500D01*
D68*
X100192500Y-91200000D02*
X102705000Y-93712500D01*
D70*
X100800000Y-96000000D02*
X100800000Y-96700000D01*
X100800000Y-96700000D02*
X102300000Y-98200000D01*
X114200000Y-98787500D02*
X115700000Y-98787500D01*
D68*
X96600000Y-89100000D02*
X98700000Y-91200000D01*
X96932500Y-87667500D02*
X96600000Y-88000000D01*
X98490000Y-87667500D02*
X96932500Y-87667500D01*
X98700000Y-91200000D02*
X100192500Y-91200000D01*
D70*
X102300000Y-98200000D02*
X113612500Y-98200000D01*
%TO.N,Net-(J2-Pin_5)*%
X136100000Y-84300000D02*
X136100000Y-83610000D01*
%TO.N,Net-(J2-Pin_6)*%
X137100000Y-84300000D02*
X137100000Y-83610000D01*
%TO.N,Net-(C4-Pad1)*%
D69*
X90910000Y-77800000D02*
X90910000Y-79800000D01*
%TO.N,/ENC_L_B*%
D64*
X129905000Y-80605000D02*
X129905000Y-79440000D01*
X132300000Y-81790000D02*
X131090000Y-81790000D01*
X133100000Y-82590000D02*
X132300000Y-81790000D01*
X131090000Y-81790000D02*
X129905000Y-80605000D01*
X134100000Y-82590000D02*
X133100000Y-82590000D01*
%TO.N,/V_batt*%
X115800000Y-63500000D02*
X117205000Y-62095000D01*
X115800000Y-69100000D02*
X115800000Y-63500000D01*
D66*
X115900000Y-57400000D02*
X117205000Y-58705000D01*
D64*
X122110000Y-81800000D02*
X121000000Y-80690000D01*
X117205000Y-62095000D02*
X117205000Y-60060000D01*
X123070000Y-81720000D02*
X122990000Y-81800000D01*
X121000000Y-80690000D02*
X121000000Y-74300000D01*
X121000000Y-74300000D02*
X115800000Y-69100000D01*
D66*
X117205000Y-58705000D02*
X117205000Y-60060000D01*
D64*
X122990000Y-81800000D02*
X122110000Y-81800000D01*
%TO.N,/RST*%
X118300000Y-64300000D02*
X119745000Y-62855000D01*
X117400000Y-64300000D02*
X118300000Y-64300000D01*
X109900000Y-64300000D02*
X108300000Y-64300000D01*
X67300000Y-63600000D02*
X67300000Y-72700000D01*
X119745000Y-62855000D02*
X119745000Y-60060000D01*
X77300000Y-60100000D02*
X70800000Y-60100000D01*
X67300000Y-72700000D02*
X66625000Y-73375000D01*
X70800000Y-60100000D02*
X67300000Y-63600000D01*
X108300000Y-64300000D02*
X106750000Y-62750000D01*
X89150000Y-58450000D02*
X87450000Y-58450000D01*
X106750000Y-62750000D02*
X93450000Y-62750000D01*
X66625000Y-73375000D02*
X64000000Y-73375000D01*
D69*
X62410000Y-73375000D02*
X64000000Y-73375000D01*
X61700000Y-74995000D02*
X61700000Y-74085000D01*
D64*
X93450000Y-62750000D02*
X89150000Y-58450000D01*
D69*
X61700000Y-74085000D02*
X62410000Y-73375000D01*
%TO.N,/ENC_R_A*%
D64*
X135065381Y-82485000D02*
X135030190Y-82520190D01*
X135334619Y-82485000D02*
X135065381Y-82485000D01*
X136100000Y-82590000D02*
X135439619Y-82590000D01*
X135439619Y-82590000D02*
X135334619Y-82485000D01*
X134200000Y-81195000D02*
X132445000Y-79440000D01*
X134200000Y-81690000D02*
X134200000Y-81195000D01*
X135030190Y-82520190D02*
X134200000Y-81690000D01*
%TO.N,Net-(U10-A)*%
X131700000Y-57800000D02*
X131700000Y-57010000D01*
%TO.N,/Motors/AISEN_RAW*%
D68*
X98490000Y-85067500D02*
X95830000Y-85067500D01*
D70*
X95062500Y-84300000D02*
X94962500Y-84400000D01*
D68*
X95830000Y-85067500D02*
X95062500Y-84300000D01*
D70*
X86550000Y-84600000D02*
X87437500Y-84600000D01*
X94962500Y-84400000D02*
X94100000Y-84400000D01*
%TO.N,/XSHUT_5*%
D64*
X139750000Y-95490000D02*
X139750000Y-93160000D01*
X142605000Y-80795000D02*
X142605000Y-79440000D01*
X139750000Y-93160000D02*
X139610000Y-93020000D01*
X140900000Y-85000000D02*
X140900000Y-82500000D01*
X140900000Y-82500000D02*
X142605000Y-80795000D01*
%TO.N,/ENC_R_B*%
X137100000Y-82590000D02*
X134985000Y-80475000D01*
X134985000Y-80475000D02*
X134985000Y-79440000D01*
X138100000Y-82590000D02*
X137100000Y-82590000D01*
%TO.N,/ITR_THR_UC*%
X91930000Y-77800000D02*
X93400000Y-77800000D01*
X94345000Y-78745000D02*
X94345000Y-79440000D01*
X93400000Y-77800000D02*
X94345000Y-78745000D01*
%TO.N,/DBG_1*%
X104700000Y-76449997D02*
X108449997Y-76449997D01*
X108449997Y-76449997D02*
X109585000Y-77585000D01*
X59600000Y-75700000D02*
X58720000Y-75700000D01*
X109585000Y-77585000D02*
X109585000Y-79440000D01*
%TO.N,/AIN1*%
X104040000Y-83767500D02*
X104982497Y-83767500D01*
X104982497Y-83767500D02*
X105000000Y-83749997D01*
%TO.N,/AIN2*%
X104982500Y-84417500D02*
X105000000Y-84400000D01*
X104040000Y-84417500D02*
X104982500Y-84417500D01*
%TO.N,/BIN2*%
X104040000Y-87667500D02*
X104967500Y-87667500D01*
X104967500Y-87667500D02*
X105000000Y-87700000D01*
%TO.N,/BIN1*%
X104040000Y-88317500D02*
X104917500Y-88317500D01*
X104917500Y-88317500D02*
X105000000Y-88400000D01*
%TO.N,/ENC_L_A*%
X128290000Y-81790000D02*
X127365000Y-80865000D01*
X130300000Y-81790000D02*
X128290000Y-81790000D01*
X127365000Y-80865000D02*
X127365000Y-79440000D01*
X131100000Y-82590000D02*
X130300000Y-81790000D01*
X131100000Y-82590000D02*
X132100000Y-82590000D01*
%TO.N,/AISEN*%
X108650000Y-75550000D02*
X114665000Y-69535000D01*
X114665000Y-69535000D02*
X114665000Y-60060000D01*
X84650000Y-84600000D02*
X84650000Y-83550000D01*
X84650000Y-83550000D02*
X84700000Y-83500000D01*
%TO.N,/BISEN*%
X84650000Y-88750000D02*
X84650000Y-87650000D01*
X110600000Y-62700000D02*
X109585000Y-61685000D01*
X113600000Y-69300000D02*
X113600000Y-63700000D01*
X84650000Y-87650000D02*
X84700000Y-87600000D01*
X109585000Y-61685000D02*
X109585000Y-60060000D01*
X112600000Y-62700000D02*
X110600000Y-62700000D01*
X113600000Y-63700000D02*
X112600000Y-62700000D01*
X108050000Y-74850000D02*
X113600000Y-69300000D01*
%TO.N,Net-(A1-VSYS)*%
D67*
X96885000Y-60060000D02*
X96885000Y-57372500D01*
X96885000Y-57372500D02*
X96550000Y-57037500D01*
%TO.N,Net-(A1-VBUS)*%
X94345000Y-60060000D02*
X94345000Y-57342500D01*
X94345000Y-57342500D02*
X94650000Y-57037500D01*
%TO.N,Net-(U1-~{SLEEP})*%
D64*
X99522500Y-83767500D02*
X100690000Y-82600000D01*
X98490000Y-83767500D02*
X99522500Y-83767500D01*
%TO.N,/Motors/BISEN_RAW*%
D68*
X95845000Y-87017500D02*
X95062500Y-87800000D01*
D70*
X94962500Y-87700000D02*
X94100000Y-87700000D01*
X95062500Y-87800000D02*
X94962500Y-87700000D01*
D68*
X98490000Y-87017500D02*
X95845000Y-87017500D01*
D70*
X87512500Y-88750000D02*
X86550000Y-88750000D01*
%TO.N,Net-(D5-A)*%
D64*
X57702500Y-73800000D02*
X56500000Y-73800000D01*
%TO.N,Net-(D6-A)*%
X57690000Y-77600000D02*
X56487500Y-77600000D01*
%TO.N,Net-(D7-A)*%
X57700000Y-75700000D02*
X56487500Y-75700000D01*
%TO.N,Net-(U4-A)*%
X54590000Y-61810000D02*
X55100000Y-61300000D01*
X54590000Y-62100000D02*
X54590000Y-61810000D01*
%TD*%
%TA.AperFunction,Conductor*%
%TO.N,GND*%
G36*
X92643039Y-86919685D02*
G01*
X92688794Y-86972489D01*
X92700000Y-87024000D01*
X92700000Y-88576000D01*
X92680315Y-88643039D01*
X92627511Y-88688794D01*
X92576000Y-88700000D01*
X90972963Y-88700000D01*
X90905924Y-88680315D01*
X90864568Y-88636220D01*
X90436719Y-87866092D01*
X90421369Y-87797929D01*
X90441939Y-87737091D01*
X90789439Y-87215841D01*
X90963189Y-86955217D01*
X91016754Y-86910356D01*
X91066363Y-86900000D01*
X92576000Y-86900000D01*
X92643039Y-86919685D01*
G37*
%TD.AperFunction*%
%TD*%
%TA.AperFunction,Conductor*%
%TO.N,+BATT*%
G36*
X122693106Y-82505023D02*
G01*
X122708104Y-82509427D01*
X122766855Y-82547172D01*
X122768042Y-82548541D01*
X122787907Y-82592004D01*
X122791363Y-82590908D01*
X122794195Y-82599835D01*
X122795582Y-82608794D01*
X122797087Y-82612087D01*
X122796608Y-82615423D01*
X122800000Y-82637331D01*
X122800000Y-83758170D01*
X122794975Y-83793114D01*
X122790570Y-83808112D01*
X122752827Y-83866855D01*
X122751458Y-83868042D01*
X122696597Y-83895518D01*
X122689039Y-83897163D01*
X122662668Y-83900000D01*
X120681877Y-83900000D01*
X120673775Y-83899735D01*
X120671250Y-83899569D01*
X120670187Y-83899500D01*
X120670186Y-83899500D01*
X119541830Y-83899500D01*
X119506889Y-83894475D01*
X119491890Y-83890070D01*
X119433144Y-83852327D01*
X119431957Y-83850958D01*
X119404477Y-83796083D01*
X119402832Y-83788521D01*
X119400000Y-83762168D01*
X119400000Y-82641829D01*
X119405023Y-82606893D01*
X119409427Y-82591895D01*
X119447172Y-82533144D01*
X119448541Y-82531957D01*
X119503420Y-82504477D01*
X119510979Y-82502833D01*
X119537332Y-82500000D01*
X122658170Y-82500000D01*
X122693106Y-82505023D01*
G37*
%TD.AperFunction*%
%TD*%
%TA.AperFunction,Conductor*%
%TO.N,GND*%
G36*
X99993106Y-56905023D02*
G01*
X100008104Y-56909427D01*
X100066855Y-56947172D01*
X100068042Y-56948541D01*
X100087907Y-56992004D01*
X100091363Y-56990908D01*
X100094195Y-56999835D01*
X100095582Y-57008794D01*
X100097087Y-57012087D01*
X100096608Y-57015423D01*
X100100000Y-57037331D01*
X100100000Y-60358170D01*
X100094975Y-60393114D01*
X100090570Y-60408112D01*
X100052827Y-60466855D01*
X100051458Y-60468042D01*
X99996597Y-60495518D01*
X99989039Y-60497163D01*
X99962668Y-60500000D01*
X98841830Y-60500000D01*
X98806889Y-60494975D01*
X98791890Y-60490570D01*
X98733144Y-60452827D01*
X98731957Y-60451458D01*
X98704477Y-60396583D01*
X98702832Y-60389021D01*
X98700000Y-60362668D01*
X98700000Y-57041829D01*
X98705023Y-57006893D01*
X98709427Y-56991895D01*
X98747172Y-56933144D01*
X98748541Y-56931957D01*
X98803420Y-56904477D01*
X98810979Y-56902833D01*
X98837332Y-56900000D01*
X99958170Y-56900000D01*
X99993106Y-56905023D01*
G37*
%TD.AperFunction*%
%TD*%
%TA.AperFunction,Conductor*%
%TO.N,GND*%
G36*
X107293106Y-81805023D02*
G01*
X107308104Y-81809427D01*
X107366855Y-81847172D01*
X107368042Y-81848541D01*
X107387907Y-81892004D01*
X107391363Y-81890908D01*
X107394195Y-81899835D01*
X107395582Y-81908794D01*
X107397087Y-81912087D01*
X107396608Y-81915423D01*
X107400000Y-81937331D01*
X107400000Y-83758170D01*
X107394975Y-83793114D01*
X107390570Y-83808112D01*
X107352827Y-83866855D01*
X107351458Y-83868042D01*
X107296597Y-83895518D01*
X107289039Y-83897163D01*
X107262668Y-83900000D01*
X105642330Y-83900000D01*
X105607389Y-83894975D01*
X105592390Y-83890570D01*
X105533644Y-83852827D01*
X105532457Y-83851458D01*
X105504977Y-83796583D01*
X105503332Y-83789021D01*
X105500500Y-83762668D01*
X105500500Y-83684107D01*
X105500500Y-83684105D01*
X105466392Y-83556811D01*
X105424775Y-83484729D01*
X105412388Y-83454822D01*
X105404225Y-83424356D01*
X105400000Y-83392264D01*
X105400000Y-81941829D01*
X105405023Y-81906893D01*
X105409427Y-81891895D01*
X105447172Y-81833144D01*
X105448541Y-81831957D01*
X105503420Y-81804477D01*
X105510979Y-81802833D01*
X105537332Y-81800000D01*
X107258170Y-81800000D01*
X107293106Y-81805023D01*
G37*
%TD.AperFunction*%
%TD*%
%TA.AperFunction,Conductor*%
%TO.N,GND*%
G36*
X125643039Y-75419685D02*
G01*
X125688794Y-75472489D01*
X125700000Y-75524000D01*
X125700000Y-81076000D01*
X125680315Y-81143039D01*
X125627511Y-81188794D01*
X125576000Y-81200000D01*
X124024000Y-81200000D01*
X123956961Y-81180315D01*
X123911206Y-81127511D01*
X123900000Y-81076000D01*
X123900000Y-75524000D01*
X123919685Y-75456961D01*
X123972489Y-75411206D01*
X124024000Y-75400000D01*
X125576000Y-75400000D01*
X125643039Y-75419685D01*
G37*
%TD.AperFunction*%
%TD*%
%TA.AperFunction,Conductor*%
%TO.N,Net-(J4-Pin_2)*%
G36*
X127843039Y-96919685D02*
G01*
X127888794Y-96972489D01*
X127900000Y-97024000D01*
X127900000Y-99176000D01*
X127880315Y-99243039D01*
X127827511Y-99288794D01*
X127776000Y-99300000D01*
X121324000Y-99300000D01*
X121256961Y-99280315D01*
X121211206Y-99227511D01*
X121200000Y-99176000D01*
X121200000Y-97024000D01*
X121219685Y-96956961D01*
X121272489Y-96911206D01*
X121324000Y-96900000D01*
X127776000Y-96900000D01*
X127843039Y-96919685D01*
G37*
%TD.AperFunction*%
%TD*%
%TA.AperFunction,Conductor*%
%TO.N,Net-(U2-SW)*%
G36*
X118645903Y-82500264D02*
G01*
X118654033Y-82500797D01*
X118662074Y-82501589D01*
X118755173Y-82513846D01*
X118771065Y-82517007D01*
X118786645Y-82521181D01*
X118801995Y-82526392D01*
X118877411Y-82557630D01*
X118891953Y-82564802D01*
X118905914Y-82572862D01*
X118919403Y-82581875D01*
X118984154Y-82631561D01*
X118996348Y-82642255D01*
X119007742Y-82653649D01*
X119018437Y-82665844D01*
X119068126Y-82730600D01*
X119077137Y-82744086D01*
X119085194Y-82758041D01*
X119092368Y-82772589D01*
X119123603Y-82847998D01*
X119128815Y-82863351D01*
X119132988Y-82878922D01*
X119136154Y-82894834D01*
X119143439Y-82950163D01*
X119144500Y-82966350D01*
X119144500Y-83474922D01*
X119143439Y-83491109D01*
X119136154Y-83546439D01*
X119132988Y-83562351D01*
X119128815Y-83577922D01*
X119123603Y-83593275D01*
X119092368Y-83668684D01*
X119085194Y-83683232D01*
X119077137Y-83697187D01*
X119068126Y-83710673D01*
X119018437Y-83775429D01*
X119007742Y-83787624D01*
X118996349Y-83799017D01*
X118984154Y-83809712D01*
X118919398Y-83859401D01*
X118905912Y-83868412D01*
X118891957Y-83876469D01*
X118877409Y-83883643D01*
X118802000Y-83914878D01*
X118786647Y-83920090D01*
X118771076Y-83924263D01*
X118755163Y-83927429D01*
X118669398Y-83938721D01*
X118668060Y-83938897D01*
X118662063Y-83939686D01*
X118654015Y-83940479D01*
X118653484Y-83940513D01*
X118645919Y-83941009D01*
X118637819Y-83941275D01*
X118129352Y-83941275D01*
X118027588Y-83957391D01*
X118027587Y-83957392D01*
X118027563Y-83957403D01*
X117935770Y-84004175D01*
X117935762Y-84004181D01*
X117862906Y-84077037D01*
X117862900Y-84077045D01*
X117816119Y-84168855D01*
X117814977Y-84173613D01*
X117814593Y-84178499D01*
X117799236Y-84275455D01*
X117799236Y-84275461D01*
X117788478Y-84343380D01*
X117783937Y-84362296D01*
X117777982Y-84380625D01*
X117770534Y-84398607D01*
X117750441Y-84438040D01*
X117740275Y-84454629D01*
X117728943Y-84470226D01*
X117716306Y-84485021D01*
X117685021Y-84516306D01*
X117670226Y-84528943D01*
X117654629Y-84540275D01*
X117638040Y-84550441D01*
X117598607Y-84570534D01*
X117580624Y-84577982D01*
X117562294Y-84583937D01*
X117543379Y-84588478D01*
X117496255Y-84595942D01*
X117496253Y-84595942D01*
X117485090Y-84597710D01*
X117475425Y-84598855D01*
X117465733Y-84599618D01*
X117456001Y-84600000D01*
X116749992Y-84600000D01*
X116743872Y-84600753D01*
X116742966Y-84600925D01*
X116620592Y-84617035D01*
X116620571Y-84617043D01*
X116503760Y-84665428D01*
X116500365Y-84666705D01*
X116396446Y-84746446D01*
X116316705Y-84850365D01*
X116315428Y-84853760D01*
X116267043Y-84970571D01*
X116267035Y-84970593D01*
X116250003Y-85099969D01*
X116250000Y-85099998D01*
X116250000Y-86529095D01*
X116249734Y-86537194D01*
X116249256Y-86544497D01*
X116249204Y-86545291D01*
X116248409Y-86553352D01*
X116236154Y-86646437D01*
X116232988Y-86662351D01*
X116228815Y-86677922D01*
X116223603Y-86693275D01*
X116192368Y-86768684D01*
X116185194Y-86783232D01*
X116177137Y-86797187D01*
X116168126Y-86810673D01*
X116118437Y-86875429D01*
X116107742Y-86887624D01*
X116096349Y-86899017D01*
X116084154Y-86909712D01*
X116019395Y-86959403D01*
X116005913Y-86968412D01*
X115991966Y-86976465D01*
X115977418Y-86983640D01*
X115973208Y-86985384D01*
X115949950Y-86992440D01*
X115926449Y-86997116D01*
X115902251Y-86999500D01*
X115147747Y-86999500D01*
X115123550Y-86997116D01*
X115100048Y-86992440D01*
X115076799Y-86985387D01*
X115072580Y-86983640D01*
X115058044Y-86976471D01*
X115044080Y-86968409D01*
X115030603Y-86959403D01*
X114965844Y-86909712D01*
X114953649Y-86899017D01*
X114942256Y-86887624D01*
X114931561Y-86875429D01*
X114881872Y-86810673D01*
X114872861Y-86797187D01*
X114864804Y-86783232D01*
X114857630Y-86768685D01*
X114826394Y-86693275D01*
X114821181Y-86677918D01*
X114817010Y-86662351D01*
X114817007Y-86662340D01*
X114813846Y-86646448D01*
X114801589Y-86553349D01*
X114800796Y-86545305D01*
X114800264Y-86537180D01*
X114800000Y-86529095D01*
X114800000Y-83012178D01*
X114800264Y-83004094D01*
X114800797Y-82995965D01*
X114801590Y-82987920D01*
X114804430Y-82966350D01*
X114813846Y-82894822D01*
X114817006Y-82878936D01*
X114821183Y-82863348D01*
X114826390Y-82848007D01*
X114857633Y-82772581D01*
X114864801Y-82758046D01*
X114864804Y-82758041D01*
X114872864Y-82744079D01*
X114881856Y-82730620D01*
X114931578Y-82665822D01*
X114942251Y-82653653D01*
X114953653Y-82642251D01*
X114965830Y-82631572D01*
X115030613Y-82581862D01*
X115044075Y-82572866D01*
X115058052Y-82564796D01*
X115072566Y-82557638D01*
X115148012Y-82526387D01*
X115163352Y-82521181D01*
X115178931Y-82517007D01*
X115194821Y-82513846D01*
X115287927Y-82501589D01*
X115295966Y-82500797D01*
X115304095Y-82500264D01*
X115312179Y-82500000D01*
X118637821Y-82500000D01*
X118645903Y-82500264D01*
G37*
%TD.AperFunction*%
%TD*%
%TA.AperFunction,Conductor*%
%TO.N,+5V*%
G36*
X112743039Y-82519685D02*
G01*
X112788794Y-82572489D01*
X112800000Y-82624000D01*
X112800000Y-86876000D01*
X112780315Y-86943039D01*
X112727511Y-86988794D01*
X112676000Y-87000000D01*
X110924000Y-87000000D01*
X110856961Y-86980315D01*
X110811206Y-86927511D01*
X110800000Y-86876000D01*
X110800000Y-85900000D01*
X108773124Y-85900000D01*
X108734806Y-85893931D01*
X108728140Y-85891765D01*
X108692826Y-85880290D01*
X108498422Y-85849500D01*
X108498417Y-85849500D01*
X107924000Y-85849500D01*
X107856961Y-85829815D01*
X107811206Y-85777011D01*
X107800000Y-85725500D01*
X107800000Y-84424000D01*
X107819685Y-84356961D01*
X107872489Y-84311206D01*
X107924000Y-84300000D01*
X109500000Y-84300000D01*
X109500000Y-82624000D01*
X109519685Y-82556961D01*
X109572489Y-82511206D01*
X109624000Y-82500000D01*
X112676000Y-82500000D01*
X112743039Y-82519685D01*
G37*
%TD.AperFunction*%
%TD*%
%TA.AperFunction,Conductor*%
%TO.N,GND*%
G36*
X112943039Y-75419685D02*
G01*
X112988794Y-75472489D01*
X113000000Y-75524000D01*
X113000000Y-81076000D01*
X112980315Y-81143039D01*
X112927511Y-81188794D01*
X112876000Y-81200000D01*
X111324000Y-81200000D01*
X111256961Y-81180315D01*
X111211206Y-81127511D01*
X111200000Y-81076000D01*
X111200000Y-75524000D01*
X111219685Y-75456961D01*
X111272489Y-75411206D01*
X111324000Y-75400000D01*
X112876000Y-75400000D01*
X112943039Y-75419685D01*
G37*
%TD.AperFunction*%
%TD*%
%TA.AperFunction,Conductor*%
%TO.N,Net-(U2-CB)*%
G36*
X118708059Y-85092336D02*
G01*
X118813223Y-85106181D01*
X118844491Y-85114559D01*
X118934918Y-85152015D01*
X118962952Y-85168200D01*
X119040602Y-85227784D01*
X119063491Y-85250673D01*
X119123074Y-85328323D01*
X119139259Y-85356356D01*
X119176715Y-85446783D01*
X119185091Y-85478036D01*
X119185937Y-85484456D01*
X119187000Y-85500656D01*
X119187000Y-85931885D01*
X119185939Y-85948074D01*
X119185092Y-85954506D01*
X119176714Y-85985770D01*
X119139259Y-86076193D01*
X119123074Y-86104226D01*
X119063491Y-86181876D01*
X119040601Y-86204766D01*
X118962951Y-86264349D01*
X118934918Y-86280534D01*
X118844491Y-86317990D01*
X118813224Y-86326368D01*
X118719398Y-86338721D01*
X118708058Y-86340214D01*
X118691874Y-86341275D01*
X117258126Y-86341275D01*
X117241941Y-86340214D01*
X117228917Y-86338499D01*
X117136775Y-86326368D01*
X117105508Y-86317990D01*
X117015081Y-86280534D01*
X116987048Y-86264349D01*
X116909398Y-86204766D01*
X116886508Y-86181876D01*
X116826925Y-86104226D01*
X116810740Y-86076193D01*
X116773284Y-85985766D01*
X116764906Y-85954498D01*
X116751061Y-85849334D01*
X116750000Y-85833149D01*
X116750000Y-85599400D01*
X116751061Y-85583215D01*
X116764906Y-85478051D01*
X116773284Y-85446783D01*
X116810740Y-85356356D01*
X116826923Y-85328325D01*
X116886513Y-85250667D01*
X116909392Y-85227788D01*
X116987050Y-85168198D01*
X117015079Y-85152015D01*
X117105509Y-85114558D01*
X117136775Y-85106181D01*
X117241941Y-85092336D01*
X117258126Y-85091275D01*
X118691874Y-85091275D01*
X118708059Y-85092336D01*
G37*
%TD.AperFunction*%
%TD*%
%TA.AperFunction,Conductor*%
%TO.N,GND*%
G36*
X92643039Y-83420185D02*
G01*
X92688794Y-83472989D01*
X92700000Y-83524500D01*
X92700000Y-85076000D01*
X92680315Y-85143039D01*
X92627511Y-85188794D01*
X92576000Y-85200000D01*
X90972963Y-85200000D01*
X90905924Y-85180315D01*
X90864568Y-85136220D01*
X90436719Y-84366092D01*
X90421369Y-84297929D01*
X90441939Y-84237091D01*
X90962855Y-83455716D01*
X91016420Y-83410856D01*
X91066029Y-83400500D01*
X92576000Y-83400500D01*
X92643039Y-83420185D01*
G37*
%TD.AperFunction*%
%TD*%
%TA.AperFunction,Conductor*%
%TO.N,+BATT*%
G36*
X107894461Y-86100753D02*
G01*
X107902342Y-86101886D01*
X107924000Y-86105000D01*
X108421974Y-86105000D01*
X108474300Y-86126674D01*
X108490339Y-86150677D01*
X108494365Y-86160395D01*
X108500000Y-86188718D01*
X108500000Y-88111281D01*
X108494367Y-88139599D01*
X108490056Y-88150007D01*
X108450008Y-88190055D01*
X108450007Y-88190056D01*
X108439599Y-88194367D01*
X108411281Y-88200000D01*
X105588719Y-88200000D01*
X105560404Y-88194368D01*
X105549995Y-88190057D01*
X105509946Y-88150013D01*
X105505629Y-88139591D01*
X105500000Y-88111281D01*
X105500000Y-87400000D01*
X104800000Y-86700000D01*
X104730878Y-86700000D01*
X104709396Y-86696813D01*
X104689295Y-86690715D01*
X104669665Y-86681431D01*
X104623722Y-86650733D01*
X104579820Y-86642000D01*
X104579819Y-86642000D01*
X103588719Y-86642000D01*
X103560404Y-86636368D01*
X103549995Y-86632057D01*
X103509946Y-86592013D01*
X103505629Y-86581591D01*
X103500000Y-86553281D01*
X103500000Y-86206718D01*
X103505629Y-86178409D01*
X103509943Y-86167994D01*
X103549982Y-86127948D01*
X103560411Y-86123628D01*
X103588719Y-86118000D01*
X104092729Y-86118000D01*
X104092729Y-86117999D01*
X104129458Y-86108157D01*
X104145813Y-86103776D01*
X104155296Y-86101889D01*
X104164851Y-86100631D01*
X104174496Y-86100000D01*
X107883930Y-86100000D01*
X107894461Y-86100753D01*
G37*
%TD.AperFunction*%
%TD*%
%TA.AperFunction,Conductor*%
%TO.N,GND*%
G36*
X112743039Y-56819685D02*
G01*
X112788794Y-56872489D01*
X112800000Y-56924000D01*
X112800000Y-60376000D01*
X112780315Y-60443039D01*
X112727511Y-60488794D01*
X112676000Y-60500000D01*
X111524000Y-60500000D01*
X111456961Y-60480315D01*
X111411206Y-60427511D01*
X111400000Y-60376000D01*
X111400000Y-56924000D01*
X111419685Y-56856961D01*
X111472489Y-56811206D01*
X111524000Y-56800000D01*
X112676000Y-56800000D01*
X112743039Y-56819685D01*
G37*
%TD.AperFunction*%
%TD*%
%TA.AperFunction,Conductor*%
%TO.N,GND*%
G36*
X100243039Y-76219685D02*
G01*
X100288794Y-76272489D01*
X100300000Y-76324000D01*
X100300000Y-80576000D01*
X100280315Y-80643039D01*
X100227511Y-80688794D01*
X100176000Y-80700000D01*
X98624000Y-80700000D01*
X98556961Y-80680315D01*
X98511206Y-80627511D01*
X98500000Y-80576000D01*
X98500000Y-76324000D01*
X98519685Y-76256961D01*
X98572489Y-76211206D01*
X98624000Y-76200000D01*
X100176000Y-76200000D01*
X100243039Y-76219685D01*
G37*
%TD.AperFunction*%
%TD*%
%TA.AperFunction,Conductor*%
%TO.N,GND*%
G36*
X106643039Y-88719685D02*
G01*
X106688794Y-88772489D01*
X106700000Y-88824000D01*
X106700000Y-90776000D01*
X106680315Y-90843039D01*
X106627511Y-90888794D01*
X106576000Y-90900000D01*
X105524000Y-90900000D01*
X105456961Y-90880315D01*
X105411206Y-90827511D01*
X105400000Y-90776000D01*
X105400000Y-88824000D01*
X105419685Y-88756961D01*
X105472489Y-88711206D01*
X105524000Y-88700000D01*
X106576000Y-88700000D01*
X106643039Y-88719685D01*
G37*
%TD.AperFunction*%
%TD*%
%TA.AperFunction,Conductor*%
%TO.N,GND*%
G36*
X109093106Y-81405023D02*
G01*
X109108104Y-81409427D01*
X109166855Y-81447172D01*
X109168042Y-81448541D01*
X109187907Y-81492004D01*
X109191363Y-81490908D01*
X109194195Y-81499835D01*
X109195582Y-81508794D01*
X109197087Y-81512087D01*
X109196608Y-81515423D01*
X109200000Y-81537331D01*
X109200000Y-83758170D01*
X109194975Y-83793114D01*
X109190570Y-83808112D01*
X109152827Y-83866855D01*
X109151458Y-83868042D01*
X109096597Y-83895518D01*
X109089039Y-83897163D01*
X109062668Y-83900000D01*
X107841830Y-83900000D01*
X107806889Y-83894975D01*
X107791890Y-83890570D01*
X107733144Y-83852827D01*
X107731957Y-83851458D01*
X107704477Y-83796583D01*
X107702832Y-83789021D01*
X107700000Y-83762668D01*
X107700000Y-81541829D01*
X107705023Y-81506893D01*
X107709427Y-81491895D01*
X107747172Y-81433144D01*
X107748541Y-81431957D01*
X107803420Y-81404477D01*
X107810979Y-81402833D01*
X107837332Y-81400000D01*
X109058170Y-81400000D01*
X109093106Y-81405023D01*
G37*
%TD.AperFunction*%
%TD*%
%TA.AperFunction,Conductor*%
%TO.N,Net-(Q2-S-Pad1)*%
G36*
X126854466Y-94805522D02*
G01*
X126865937Y-94808889D01*
X126875987Y-94811840D01*
X126934765Y-94849612D01*
X126949888Y-94871393D01*
X126959333Y-94888691D01*
X126974184Y-94956964D01*
X126966439Y-94977725D01*
X126974385Y-95256978D01*
X126974498Y-95258710D01*
X126980842Y-95306905D01*
X126981424Y-95308119D01*
X127003675Y-95355836D01*
X127030094Y-95412491D01*
X127030095Y-95412492D01*
X127112509Y-95494906D01*
X127216889Y-95543579D01*
X127218095Y-95544157D01*
X127218139Y-95544162D01*
X127218140Y-95544163D01*
X127235687Y-95546473D01*
X127266274Y-95550500D01*
X127266275Y-95550500D01*
X127266276Y-95550500D01*
X127583722Y-95550500D01*
X127583724Y-95550500D01*
X127592139Y-95549392D01*
X127627429Y-95549812D01*
X127641384Y-95551988D01*
X127704591Y-95581766D01*
X127741460Y-95640271D01*
X127745180Y-95653221D01*
X127750000Y-95687457D01*
X127750000Y-96158170D01*
X127744975Y-96193114D01*
X127740570Y-96208112D01*
X127702827Y-96266855D01*
X127701458Y-96268042D01*
X127646597Y-96295518D01*
X127639039Y-96297163D01*
X127612668Y-96300000D01*
X126066125Y-96300000D01*
X126031191Y-96294977D01*
X126017636Y-96290997D01*
X125958858Y-96253223D01*
X125929939Y-96190390D01*
X125926868Y-96169891D01*
X125925500Y-96151523D01*
X125925500Y-95641275D01*
X125919163Y-95593140D01*
X125919162Y-95593139D01*
X125898958Y-95549812D01*
X125869906Y-95487509D01*
X125787491Y-95405094D01*
X125683119Y-95356424D01*
X125681905Y-95355842D01*
X125677340Y-95355241D01*
X125633725Y-95349500D01*
X125633724Y-95349500D01*
X125633721Y-95349500D01*
X125316275Y-95349500D01*
X125307856Y-95350608D01*
X125272571Y-95350187D01*
X125258611Y-95348010D01*
X125195405Y-95318231D01*
X125158534Y-95259714D01*
X125154814Y-95246760D01*
X125150000Y-95212545D01*
X125150000Y-94942329D01*
X125155023Y-94907393D01*
X125159427Y-94892395D01*
X125197172Y-94833644D01*
X125198541Y-94832457D01*
X125253420Y-94804977D01*
X125260979Y-94803333D01*
X125287332Y-94800500D01*
X126819535Y-94800500D01*
X126854466Y-94805522D01*
G37*
%TD.AperFunction*%
%TD*%
%TA.AperFunction,Conductor*%
%TO.N,GND*%
G36*
X126243039Y-81519685D02*
G01*
X126288794Y-81572489D01*
X126300000Y-81624000D01*
X126300000Y-84348638D01*
X126280315Y-84415677D01*
X126263681Y-84436319D01*
X125836319Y-84863681D01*
X125774996Y-84897166D01*
X125748638Y-84900000D01*
X123524000Y-84900000D01*
X123456961Y-84880315D01*
X123411206Y-84827511D01*
X123400000Y-84776000D01*
X123400000Y-82306540D01*
X123419685Y-82239501D01*
X123436322Y-82218856D01*
X123443076Y-82212102D01*
X123443077Y-82212100D01*
X123443078Y-82212099D01*
X123484869Y-82126614D01*
X123499582Y-82096518D01*
X123510500Y-82021582D01*
X123510500Y-81624000D01*
X123530185Y-81556961D01*
X123582989Y-81511206D01*
X123634500Y-81500000D01*
X126176000Y-81500000D01*
X126243039Y-81519685D01*
G37*
%TD.AperFunction*%
%TD*%
%TA.AperFunction,Conductor*%
%TO.N,+5V*%
G36*
X99843039Y-54319685D02*
G01*
X99888794Y-54372489D01*
X99900000Y-54424000D01*
X99900000Y-55876000D01*
X99880315Y-55943039D01*
X99827511Y-55988794D01*
X99776000Y-56000000D01*
X95424000Y-56000000D01*
X95356961Y-55980315D01*
X95311206Y-55927511D01*
X95300000Y-55876000D01*
X95300000Y-54424000D01*
X95319685Y-54356961D01*
X95372489Y-54311206D01*
X95424000Y-54300000D01*
X99776000Y-54300000D01*
X99843039Y-54319685D01*
G37*
%TD.AperFunction*%
%TD*%
M02*
