M48
; DRILL file KiCad 10.0.0 date 2026-04-06T11:51:39
; FORMAT={-:-/ absolute / inch / decimal}
; #@! TF.CreationDate,2026-04-06T11:51:39+02:00
; #@! TF.GenerationSoftware,Kicad,Pcbnew,10.0.0
; #@! TF.FileFunction,Plated,1,4,PTH
FMAT,2
INCH
; #@! TA.AperFunction,Plated,PTH,ViaDrill
T1C0.0118
; #@! TA.AperFunction,Plated,PTH,ComponentDrill
T2C0.0197
; #@! TA.AperFunction,Plated,PTH,ComponentDrill
T3C0.0315
; #@! TA.AperFunction,Plated,PTH,ComponentDrill
T4C0.0335
; #@! TA.AperFunction,Plated,PTH,ComponentDrill
T5C0.0394
; #@! TA.AperFunction,Plated,PTH,ComponentDrill
T6C0.0591
; #@! TA.AperFunction,Plated,PTH,ComponentDrill
T7C0.1260
%
G90
G05
T1
X2.0079Y-2.0472
X2.0079Y-2.126
X2.0079Y-2.2047
X2.0079Y-2.2835
X2.0079Y-2.3622
X2.0079Y-2.4409
X2.0079Y-2.5197
X2.0079Y-2.5984
X2.0079Y-2.6772
X2.0079Y-2.7559
X2.0079Y-2.8346
X2.0079Y-3.1496
X2.0079Y-3.2283
X2.0079Y-3.7795
X2.0079Y-3.8583
X2.0472Y-2.0079
X2.0472Y-3.8976
X2.126Y-2.0079
X2.126Y-3.8976
X2.1693Y-2.2598
X2.1693Y-2.4134
X2.189Y-3.0157
X2.1929Y-2.8701
X2.2008Y-2.4134
X2.2047Y-2.0079
X2.2047Y-3.8976
X2.2402Y-2.2598
X2.2402Y-2.311
X2.2441Y-3.2677
X2.2835Y-2.0079
X2.2835Y-3.8976
X2.3228Y-3.5039
X2.3386Y-3.0827
X2.3465Y-2.9528
X2.3465Y-2.9803
X2.3504Y-3.0551
X2.3583Y-3.2283
X2.3622Y-2.0079
X2.3622Y-3.8976
X2.3858Y-3.2283
X2.4409Y-2.0079
X2.4409Y-3.3071
X2.4724Y-2.9921
X2.4843Y-3.5787
X2.4843Y-3.6063
X2.5197Y-2.0079
X2.5197Y-2.9764
X2.5197Y-3.8976
X2.5984Y-2.0079
X2.5984Y-3.8976
X2.6378Y-2.3622
X2.6772Y-2.0079
X2.7165Y-2.5984
X2.7165Y-2.874
X2.7559Y-2.0079
X2.7953Y-3.3465
X2.8346Y-3.8976
X2.9134Y-2.0079
X2.9134Y-3.8976
X2.9291Y-3.815
X2.9843Y-3.8504
X2.9921Y-2.0079
X3.0433Y-2.3661
X3.0433Y-2.4134
X3.0709Y-2.0079
X3.1496Y-2.0079
X3.1693Y-2.2362
X3.189Y-3.8976
X3.2008Y-2.4409
X3.2283Y-2.0079
X3.2677Y-3.8976
X3.2835Y-3.3346
X3.2835Y-3.4961
X3.2913Y-3.7638
X3.2913Y-3.7913
X3.3071Y-2.0079
X3.311Y-3.1339
X3.3228Y-3.563
X3.3346Y-3.2874
X3.3346Y-3.4488
X3.3465Y-3.8976
X3.3504Y-3.1378
X3.3701Y-3.2874
X3.3701Y-3.4488
X3.3858Y-2.0079
X3.4252Y-2.1654
X3.4252Y-3.8976
X3.4409Y-3.2426
X3.4409Y-3.3031
X3.4409Y-3.404
X3.4429Y-2.3012
X3.4429Y-3.3312
X3.4449Y-3.4646
X3.4454Y-3.4941
X3.4646Y-2.0079
X3.5039Y-3.8976
X3.5433Y-2.0079
X3.5709Y-3.3189
X3.5709Y-3.4567
X3.5827Y-3.8976
X3.5866Y-3.2953
X3.5866Y-3.3425
X3.5866Y-3.4331
X3.5866Y-3.4803
X3.622Y-2.0079
X3.622Y-2.2441
X3.6469Y-3.1024
X3.6508Y-3.1732
X3.6614Y-3.8976
X3.6654Y-3.3228
X3.6654Y-3.4528
X3.7008Y-2.0079
X3.7047Y-3.3228
X3.7047Y-3.4528
X3.7402Y-3.7008
X3.7402Y-3.8976
X3.7795Y-2.0079
X3.8031Y-2.1575
X3.8031Y-2.185
X3.8189Y-3.8976
X3.8307Y-2.1575
X3.8307Y-2.185
X3.8583Y-2.0079
X3.8583Y-2.1575
X3.8583Y-2.185
X3.8858Y-2.1575
X3.8858Y-2.185
X3.8976Y-2.252
X3.8976Y-2.2795
X3.8976Y-3.7402
X3.8976Y-3.8976
X3.9016Y-3.0197
X3.9016Y-3.0472
X3.9134Y-2.1575
X3.9134Y-2.185
X3.9291Y-2.252
X3.9291Y-2.2795
X3.9291Y-3.0197
X3.9291Y-3.0472
X3.937Y-2.0079
X3.9579Y-3.3346
X3.9579Y-3.3699
X3.9579Y-3.4051
X3.9579Y-3.4404
X3.9685Y-3.7795
X3.9764Y-2.7165
X3.9764Y-3.8976
X4.0157Y-2.0079
X4.0157Y-3.3346
X4.0157Y-3.3699
X4.0157Y-3.4051
X4.0157Y-3.4404
X4.0157Y-3.5433
X4.0551Y-3.8976
X4.0604Y-3.3491
X4.0604Y-3.4252
X4.0945Y-2.0079
X4.1142Y-3.2165
X4.122Y-2.9843
X4.122Y-3.0098
X4.122Y-3.0354
X4.1339Y-3.2972
X4.1339Y-3.3228
X4.1339Y-3.4528
X4.1339Y-3.4803
X4.1339Y-3.8976
X4.1614Y-3.2362
X4.1614Y-3.5394
X4.1614Y-3.5669
X4.1732Y-2.0079
X4.189Y-3.2362
X4.189Y-3.5394
X4.189Y-3.5669
X4.2126Y-3.8976
X4.2165Y-3.2362
X4.2244Y-3.5197
X4.2244Y-3.5472
X4.2323Y-2.9291
X4.252Y-2.0079
X4.252Y-2.2047
X4.2539Y-2.9469
X4.2559Y-3.2165
X4.2559Y-3.2441
X4.2776Y-2.9744
X4.2835Y-3.2165
X4.2835Y-3.2441
X4.2913Y-3.8976
X4.3268Y-2.5039
X4.3268Y-2.5315
X4.3268Y-2.563
X4.3268Y-2.5945
X4.3268Y-2.626
X4.3268Y-2.6535
X4.3268Y-3.2756
X4.3268Y-3.3031
X4.3268Y-3.3307
X4.3268Y-3.3583
X4.3307Y-2.7559
X4.3543Y-3.2756
X4.3543Y-3.3031
X4.3543Y-3.3307
X4.3543Y-3.3583
X4.3701Y-3.8976
X4.3976Y-2.248
X4.3976Y-2.2795
X4.4016Y-2.9843
X4.4016Y-3.0118
X4.4016Y-3.0394
X4.4291Y-2.248
X4.4291Y-2.2795
X4.4291Y-2.9843
X4.4291Y-3.0118
X4.4291Y-3.0394
X4.4488Y-2.1654
X4.4488Y-3.8976
X4.5144Y-3.1276
X4.563Y-2.1732
X4.5669Y-2.874
X4.5748Y-2.1043
X4.6144Y-3.1276
X4.622Y-2.5039
X4.622Y-2.5315
X4.622Y-2.563
X4.622Y-2.5945
X4.622Y-2.626
X4.622Y-2.6535
X4.685Y-3.3228
X4.7144Y-3.1276
X4.7165Y-3.3228
X4.7244Y-2.7559
X4.748Y-3.3228
X4.7559Y-3.4488
X4.7559Y-3.7756
X4.8144Y-3.1276
X4.874Y-3.3268
X4.8976Y-3.3268
X4.9016Y-2.9843
X4.9016Y-3.0118
X4.9016Y-3.0394
X4.9144Y-2.3646
X4.9252Y-3.2992
X4.9252Y-3.3268
X4.9291Y-2.9843
X4.9291Y-3.0118
X4.9291Y-3.0394
X4.9528Y-3.2992
X4.9528Y-3.3268
X4.9606Y-2.0079
X5.0315Y-2.248
X5.0787Y-2.2441
X5.0787Y-2.4646
X5.0787Y-3.5827
X5.1063Y-2.4646
X5.1142Y-2.2717
X5.1181Y-2.6378
X5.1181Y-2.874
X5.1181Y-3.8976
X5.1458Y-2.2715
X5.1654Y-2.128
X5.1654Y-2.1732
X5.185Y-2.2756
X5.2008Y-3.3189
X5.2047Y-2.1535
X5.2047Y-2.1811
X5.2402Y-3.3189
X5.248Y-2.4724
X5.25Y-2.5039
X5.2756Y-2.4724
X5.2756Y-2.5039
X5.2756Y-3.8976
X5.2795Y-3.3189
X5.311Y-2.2047
X5.315Y-2.0472
X5.3189Y-3.3189
X5.3386Y-2.2165
X5.3543Y-3.8976
X5.3563Y-2.2461
X5.3583Y-3.3189
X5.3937Y-3.5827
X5.3976Y-2.2047
X5.3976Y-3.3189
X5.4144Y-3.1276
X5.4289Y-2.3646
X5.4331Y-3.8976
X5.4921Y-3.3189
X5.5034Y-2.2362
X5.5118Y-3.8976
X5.5144Y-2.3646
X5.5144Y-3.3465
X5.5354Y-2.2362
X5.5472Y-3.3465
X5.5472Y-3.3819
X5.5748Y-2.1614
X5.6102Y-2.0906
X5.6299Y-2.0472
X5.6299Y-2.126
X5.6299Y-2.2047
X5.6299Y-3.2283
X5.6299Y-3.3071
X5.6299Y-3.3858
X5.6299Y-3.4646
T2
X2.3465Y-3.7598
X2.3741Y-3.693
X2.3741Y-3.8267
X2.4409Y-3.6654
X2.4409Y-3.8543
X2.5078Y-3.693
X2.5078Y-3.8267
X2.5354Y-3.7598
X5.1043Y-3.7598
X5.132Y-3.693
X5.132Y-3.8267
X5.1988Y-3.6654
X5.1988Y-3.8543
X5.2656Y-3.693
X5.2656Y-3.8267
X5.2933Y-3.7598
T3
X4.6024Y-3.6614
X4.6811Y-3.6614
X4.7598Y-3.6614
T4
X2.9798Y-3.3724
X2.9798Y-3.4724
X2.9798Y-3.5724
T5
X2.0472Y-3.4114
X2.0472Y-3.5114
X2.0472Y-3.6114
X2.0472Y-3.7114
X2.1472Y-3.6114
X2.1472Y-3.7114
X2.5237Y-3.3818
X2.5944Y-3.3111
X2.5944Y-3.4525
X2.6651Y-3.2404
X2.6651Y-3.3818
X2.6941Y-2.1244
X2.6941Y-2.2244
X2.7323Y-3.5669
X2.7323Y-3.6669
X2.7323Y-3.7669
X2.7323Y-3.8669
X2.7358Y-3.1697
X2.7941Y-2.1244
X2.7941Y-2.2244
X2.8941Y-2.1244
X2.9941Y-2.1244
X3.1791Y-3.1571
X3.1791Y-3.2571
X3.1791Y-3.3571
X3.1791Y-3.4571
X3.3925Y-3.6894
X3.3925Y-3.7894
X3.4925Y-3.6894
X3.4925Y-3.7894
X3.5925Y-3.6894
X3.5925Y-3.7894
X4.0435Y-3.6895
X4.0435Y-3.7895
X4.1435Y-3.6895
X4.1435Y-3.7895
X4.2435Y-3.6895
X4.2435Y-3.7895
X4.6665Y-2.1244
X4.6665Y-2.2244
X4.7136Y-3.8661
X4.7665Y-2.1244
X4.7665Y-2.2244
X4.8136Y-3.8661
X4.8665Y-2.1244
X4.8888Y-2.5231
X4.8888Y-2.6231
X4.8888Y-2.7231
X4.9665Y-2.1244
X4.9727Y-3.3818
X5.0434Y-3.3111
X5.0434Y-3.4525
X5.1141Y-3.3818
X5.1848Y-3.4525
X5.2555Y-3.5232
X5.4965Y-3.5622
X5.4965Y-3.6622
X5.5965Y-3.5622
X5.5965Y-3.6622
X5.5965Y-3.7622
X5.5965Y-3.8622
T6
X4.5197Y-3.6614
X4.8425Y-3.6614
T7
X2.4409Y-3.7598
X5.1988Y-3.7598
M30
