%TF.GenerationSoftware,KiCad,Pcbnew,10.0.0*%
%TF.CreationDate,2026-04-04T16:00:48+02:00*%
%TF.ProjectId,minisumo,6d696e69-7375-46d6-9f2e-6b696361645f,rev?*%
%TF.SameCoordinates,Original*%
%TF.FileFunction,Copper,L4,Bot*%
%TF.FilePolarity,Positive*%
%FSLAX46Y46*%
G04 Gerber Fmt 4.6, Leading zero omitted, Abs format (unit mm)*
G04 Created by KiCad (PCBNEW 10.0.0) date 2026-04-04 16:00:48*
%MOMM*%
%LPD*%
G01*
G04 APERTURE LIST*
G04 Aperture macros list*
%AMRoundRect*
0 Rectangle with rounded corners*
0 $1 Rounding radius*
0 $2 $3 $4 $5 $6 $7 $8 $9 X,Y pos of 4 corners*
0 Add a 4 corners polygon primitive as box body*
4,1,4,$2,$3,$4,$5,$6,$7,$8,$9,$2,$3,0*
0 Add four circle primitives for the rounded corners*
1,1,$1+$1,$2,$3*
1,1,$1+$1,$4,$5*
1,1,$1+$1,$6,$7*
1,1,$1+$1,$8,$9*
0 Add four rect primitives between the rounded corners*
20,1,$1+$1,$2,$3,$4,$5,0*
20,1,$1+$1,$4,$5,$6,$7,0*
20,1,$1+$1,$6,$7,$8,$9,0*
20,1,$1+$1,$8,$9,$2,$3,0*%
%AMRotRect*
0 Rectangle, with rotation*
0 The origin of the aperture is its center*
0 $1 length*
0 $2 width*
0 $3 Rotation angle, in degrees counterclockwise*
0 Add horizontal line*
21,1,$1,$2,0,0,$3*%
G04 Aperture macros list end*
%TA.AperFunction,ComponentPad*%
%ADD10RotRect,1.700000X1.700000X225.000000*%
%TD*%
%TA.AperFunction,ComponentPad*%
%ADD11C,1.700000*%
%TD*%
%TA.AperFunction,ComponentPad*%
%ADD12C,0.800000*%
%TD*%
%TA.AperFunction,ComponentPad*%
%ADD13C,6.400000*%
%TD*%
%TA.AperFunction,ComponentPad*%
%ADD14R,1.700000X1.700000*%
%TD*%
%TA.AperFunction,ComponentPad*%
%ADD15RoundRect,0.250000X0.600000X-0.600000X0.600000X0.600000X-0.600000X0.600000X-0.600000X-0.600000X0*%
%TD*%
%TA.AperFunction,ComponentPad*%
%ADD16RotRect,1.700000X1.700000X315.000000*%
%TD*%
%TA.AperFunction,ComponentPad*%
%ADD17O,2.200000X3.500000*%
%TD*%
%TA.AperFunction,ComponentPad*%
%ADD18R,1.500000X2.500000*%
%TD*%
%TA.AperFunction,ComponentPad*%
%ADD19O,1.500000X2.500000*%
%TD*%
%TA.AperFunction,ComponentPad*%
%ADD20RoundRect,0.200000X0.600000X-0.600000X0.600000X0.600000X-0.600000X0.600000X-0.600000X-0.600000X0*%
%TD*%
%TA.AperFunction,ComponentPad*%
%ADD21C,1.600000*%
%TD*%
%TA.AperFunction,ComponentPad*%
%ADD22RoundRect,0.412500X0.412500X-0.412500X0.412500X0.412500X-0.412500X0.412500X-0.412500X-0.412500X0*%
%TD*%
%TA.AperFunction,ComponentPad*%
%ADD23C,1.650000*%
%TD*%
%TA.AperFunction,SMDPad,CuDef*%
%ADD24RoundRect,0.197500X-0.197500X-0.632500X0.197500X-0.632500X0.197500X0.632500X-0.197500X0.632500X0*%
%TD*%
%TA.AperFunction,ViaPad*%
%ADD25C,0.500000*%
%TD*%
%TA.AperFunction,Conductor*%
%ADD26C,1.000000*%
%TD*%
%TA.AperFunction,Conductor*%
%ADD27C,0.200000*%
%TD*%
%TA.AperFunction,Conductor*%
%ADD28C,0.500000*%
%TD*%
%TA.AperFunction,Conductor*%
%ADD29C,2.000000*%
%TD*%
%TA.AperFunction,Conductor*%
%ADD30C,0.150000*%
%TD*%
G04 APERTURE END LIST*
D10*
%TO.P,U8,1,VIN_1*%
%TO.N,+3.3V*%
X133490128Y-89490128D03*
D11*
%TO.P,U8,2,GND_2*%
%TO.N,GND*%
X131694077Y-87694077D03*
%TO.P,U8,3,SCL_3*%
%TO.N,/I2C_SCL*%
X129898026Y-85898026D03*
%TO.P,U8,4,SDA_4*%
%TO.N,/I2C_SDA*%
X128101974Y-84101974D03*
%TO.P,U8,5,GPIO_5*%
%TO.N,unconnected-(U8-GPIO-Pad5)*%
X126305923Y-85898026D03*
%TO.P,U8,6,XSHUT_6*%
%TO.N,/XSHUT_4*%
X128101974Y-87694077D03*
%TD*%
D12*
%TO.P,H4,1,1_1*%
%TO.N,unconnected-(H4-Pad1)_5*%
X129650000Y-95500000D03*
%TO.N,unconnected-(H4-Pad1)_8*%
X130352944Y-93802944D03*
%TO.N,unconnected-(H4-Pad1)_3*%
X130352944Y-97197056D03*
%TO.N,unconnected-(H4-Pad1)_6*%
X132050000Y-93100000D03*
D13*
%TO.N,unconnected-(H4-Pad1)_4*%
X132050000Y-95500000D03*
D12*
%TO.N,unconnected-(H4-Pad1)*%
X132050000Y-97900000D03*
%TO.N,unconnected-(H4-Pad1)_1*%
X133747056Y-93802944D03*
%TO.N,unconnected-(H4-Pad1)_7*%
X133747056Y-97197056D03*
%TO.N,unconnected-(H4-Pad1)_2*%
X134450000Y-95500000D03*
%TD*%
D14*
%TO.P,U7,1,VIN_1*%
%TO.N,+3.3V*%
X126150000Y-53960000D03*
D11*
%TO.P,U7,2,GND_2*%
%TO.N,GND*%
X123610000Y-53960000D03*
%TO.P,U7,3,SCL_3*%
%TO.N,/I2C_SCL*%
X121070000Y-53960000D03*
%TO.P,U7,4,SDA_4*%
%TO.N,/I2C_SDA*%
X118530000Y-53960000D03*
%TO.P,U7,5,GPIO_5*%
%TO.N,unconnected-(U7-GPIO-Pad5)*%
X118530000Y-56500000D03*
%TO.P,U7,6,XSHUT_6*%
%TO.N,/XSHUT_3*%
X121070000Y-56500000D03*
%TD*%
D14*
%TO.P,J5,1,Pin_1_1*%
%TO.N,+3.3V*%
X69400000Y-90600000D03*
D11*
%TO.P,J5,2,Pin_2_2*%
%TO.N,GND*%
X69400000Y-93140000D03*
%TO.P,J5,3,Pin_3_3*%
%TO.N,/DBG_0*%
X69400000Y-95680000D03*
%TO.P,J5,4,Pin_4_4*%
%TO.N,/User/KILL*%
X69400000Y-98220000D03*
%TD*%
D15*
%TO.P,J1,1,Pin_1_1*%
%TO.N,/Motors/AOUT1*%
X86170000Y-96250000D03*
D11*
%TO.P,J1,2,Pin_2_2*%
%TO.N,/Motors/AOUT2*%
X86170000Y-93710000D03*
%TO.P,J1,3,Pin_3_3*%
%TO.N,GND*%
X88710000Y-96250000D03*
%TO.P,J1,4,Pin_4_4*%
%TO.N,+5V*%
X88710000Y-93710000D03*
%TO.P,J1,5,Pin_5_5*%
%TO.N,Net-(J1-Pin_5)*%
X91250000Y-96250000D03*
%TO.P,J1,6,Pin_6_6*%
%TO.N,Net-(J1-Pin_6)*%
X91250000Y-93710000D03*
%TD*%
D16*
%TO.P,U5,1,VIN_1*%
%TO.N,+3.3V*%
X69490128Y-80509872D03*
D11*
%TO.P,U5,2,GND_2*%
%TO.N,GND*%
X67694077Y-82305923D03*
%TO.P,U5,3,SCL_3*%
%TO.N,/I2C_SCL*%
X65898026Y-84101974D03*
%TO.P,U5,4,SDA_4*%
%TO.N,/I2C_SDA*%
X64101974Y-85898026D03*
%TO.P,U5,5,GPIO_5*%
%TO.N,unconnected-(U5-GPIO-Pad5)*%
X65898026Y-87694077D03*
%TO.P,U5,6,XSHUT_6*%
%TO.N,/XSHUT_1*%
X67694077Y-85898026D03*
%TD*%
D17*
%TO.P,SW1,*%
%TO.N,*%
X114800000Y-93000000D03*
X123000000Y-93000000D03*
D18*
%TO.P,SW1,1,A_1*%
%TO.N,Net-(Q2-G)*%
X116900000Y-93000000D03*
D19*
%TO.P,SW1,2,B_2*%
%TO.N,GND*%
X118900000Y-93000000D03*
%TO.P,SW1,3,C_3*%
%TO.N,unconnected-(SW1-C-Pad3)*%
X120900000Y-93000000D03*
%TD*%
D15*
%TO.P,J2,1,Pin_1_1*%
%TO.N,/Motors/BOUT2*%
X102705000Y-96252500D03*
D11*
%TO.P,J2,2,Pin_2_2*%
%TO.N,/Motors/BOUT1*%
X102705000Y-93712500D03*
%TO.P,J2,3,Pin_3_3*%
%TO.N,GND*%
X105245000Y-96252500D03*
%TO.P,J2,4,Pin_4_4*%
%TO.N,+5V*%
X105245000Y-93712500D03*
%TO.P,J2,5,Pin_5_5*%
%TO.N,Net-(J2-Pin_5)*%
X107785000Y-96252500D03*
%TO.P,J2,6,Pin_6_6*%
%TO.N,Net-(J2-Pin_6)*%
X107785000Y-93712500D03*
%TD*%
D14*
%TO.P,U3,1,VIN_1*%
%TO.N,+3.3V*%
X52000000Y-86650000D03*
D11*
%TO.P,U3,2,GND_2*%
%TO.N,GND*%
X52000000Y-89190000D03*
%TO.P,U3,3,SCL_3*%
%TO.N,/I2C_SCL*%
X52000000Y-91730000D03*
%TO.P,U3,4,SDA_4*%
%TO.N,/I2C_SDA*%
X52000000Y-94270000D03*
%TO.P,U3,5,GPIO_5*%
%TO.N,unconnected-(U3-GPIO-Pad5)*%
X54540000Y-94270000D03*
%TO.P,U3,6,XSHUT_6*%
%TO.N,/XSHUT_0*%
X54540000Y-91730000D03*
%TD*%
D14*
%TO.P,U9,1,VIN_1*%
%TO.N,+3.3V*%
X142150000Y-98100000D03*
D11*
%TO.P,U9,2,GND_2*%
%TO.N,GND*%
X142150000Y-95560000D03*
%TO.P,U9,3,SCL_3*%
%TO.N,/I2C_SCL*%
X142150000Y-93020000D03*
%TO.P,U9,4,SDA_4*%
%TO.N,/I2C_SDA*%
X142150000Y-90480000D03*
%TO.P,U9,5,GPIO_5*%
%TO.N,unconnected-(U9-GPIO-Pad5)*%
X139610000Y-90480000D03*
%TO.P,U9,6,XSHUT_6*%
%TO.N,/XSHUT_5*%
X139610000Y-93020000D03*
%TD*%
D14*
%TO.P,J6,1,Pin_1_1*%
%TO.N,GND*%
X80750000Y-87810000D03*
D11*
%TO.P,J6,2,Pin_2_2*%
%TO.N,+3.3V*%
X80750000Y-85270000D03*
%TO.P,J6,3,Pin_3_3*%
%TO.N,/I2C_SCL*%
X80750000Y-82730000D03*
%TO.P,J6,4,Pin_4_4*%
%TO.N,/I2C_SDA*%
X80750000Y-80190000D03*
%TD*%
D12*
%TO.P,H3,1,1_1*%
%TO.N,unconnected-(H3-Pad1)_5*%
X59600000Y-95500000D03*
%TO.N,unconnected-(H3-Pad1)_6*%
X60302944Y-93802944D03*
%TO.N,unconnected-(H3-Pad1)_8*%
X60302944Y-97197056D03*
%TO.N,unconnected-(H3-Pad1)_1*%
X62000000Y-93100000D03*
D13*
%TO.N,unconnected-(H3-Pad1)_3*%
X62000000Y-95500000D03*
D12*
%TO.N,unconnected-(H3-Pad1)_7*%
X62000000Y-97900000D03*
%TO.N,unconnected-(H3-Pad1)_4*%
X63697056Y-93802944D03*
%TO.N,unconnected-(H3-Pad1)*%
X63697056Y-97197056D03*
%TO.N,unconnected-(H3-Pad1)_2*%
X64400000Y-95500000D03*
%TD*%
D20*
%TO.P,A1,D1*%
%TO.N,N/C*%
X124175000Y-69165900D03*
D21*
%TO.P,A1,D2*%
X124175000Y-66625900D03*
%TO.P,A1,D3*%
X124175000Y-64085900D03*
%TD*%
D14*
%TO.P,J4,1,Pin_1_1*%
%TO.N,GND*%
X119725000Y-98200000D03*
D11*
%TO.P,J4,2,Pin_2_2*%
%TO.N,Net-(J4-Pin_2)*%
X122265000Y-98200000D03*
%TD*%
D14*
%TO.P,U6,1,VIN_1*%
%TO.N,+3.3V*%
X76050000Y-53960000D03*
D11*
%TO.P,U6,2,GND_2*%
%TO.N,GND*%
X73510000Y-53960000D03*
%TO.P,U6,3,SCL_3*%
%TO.N,/I2C_SCL*%
X70970000Y-53960000D03*
%TO.P,U6,4,SDA_4*%
%TO.N,/I2C_SDA*%
X68430000Y-53960000D03*
%TO.P,U6,5,GPIO_5*%
%TO.N,unconnected-(U6-GPIO-Pad5)*%
X68430000Y-56500000D03*
%TO.P,U6,6,XSHUT_6*%
%TO.N,/XSHUT_2*%
X70970000Y-56500000D03*
%TD*%
D22*
%TO.P,RV2,1,1_1*%
%TO.N,+3.3V*%
X75687500Y-90740000D03*
D23*
%TO.P,RV2,2,2_2*%
%TO.N,Net-(JP1-A)*%
X75687500Y-88200000D03*
%TO.P,RV2,3,3_3*%
%TO.N,GND*%
X75687500Y-85660000D03*
%TD*%
D24*
%TO.P,U10,1,K_1*%
%TO.N,GND*%
X137100000Y-56000000D03*
%TO.P,U10,2,A_2*%
%TO.N,Net-(U10-A)*%
X137100000Y-60000000D03*
%TO.P,U10,3*%
%TO.N,Net-(U12B--)*%
X138900000Y-56000000D03*
%TO.P,U10,4*%
%TO.N,GND*%
X138900000Y-60000000D03*
%TD*%
%TO.P,U4,1,K_1*%
%TO.N,GND*%
X55100000Y-56000000D03*
%TO.P,U4,2,A_2*%
%TO.N,Net-(U4-A)*%
X55100000Y-60000000D03*
%TO.P,U4,3*%
%TO.N,Net-(U12A--)*%
X56900000Y-56000000D03*
%TO.P,U4,4*%
%TO.N,GND*%
X56900000Y-60000000D03*
%TD*%
D25*
%TO.N,GND*%
X111700000Y-57900000D03*
X125800000Y-83800000D03*
X134000000Y-62800000D03*
X91100000Y-83700000D03*
X125200000Y-77200000D03*
X141600000Y-54900000D03*
X102000000Y-87385000D03*
X99100000Y-77400000D03*
X124500000Y-76500000D03*
X117400000Y-67400000D03*
X119800000Y-84400000D03*
X87500000Y-88000000D03*
X108800000Y-82400000D03*
X64000000Y-75600000D03*
X112500000Y-77200000D03*
X109900000Y-67400000D03*
X87400000Y-86462500D03*
X132200000Y-55400000D03*
X80500000Y-56800000D03*
X119000000Y-84400000D03*
X109900000Y-63600000D03*
X102000000Y-85595000D03*
X105700000Y-82200000D03*
X81300000Y-62000000D03*
X99800000Y-76700000D03*
X99800000Y-57200000D03*
X91100000Y-84900000D03*
X63100000Y-91600000D03*
X93100000Y-87700000D03*
X123800000Y-84500000D03*
X140900000Y-85900000D03*
X83600000Y-96300000D03*
X75800000Y-97800000D03*
X55900000Y-61300000D03*
X135100000Y-84300000D03*
X129900000Y-57700000D03*
X112500000Y-75800000D03*
X142500000Y-53600000D03*
X125100000Y-83800000D03*
X74400000Y-96900000D03*
X55100000Y-57400000D03*
X111800000Y-75800000D03*
X108100000Y-82400000D03*
X100530000Y-84700000D03*
X112500000Y-57900000D03*
X124400000Y-84500000D03*
X125200000Y-76500000D03*
X55700000Y-72900000D03*
X120800000Y-87600000D03*
X92630000Y-78800000D03*
X90700000Y-84300000D03*
X87400000Y-83900000D03*
X139500000Y-84300000D03*
X106400000Y-89900000D03*
X131200000Y-55200000D03*
X62800000Y-76000000D03*
X100530000Y-87385000D03*
X91100000Y-87200000D03*
X83400000Y-88800000D03*
X91100000Y-88400000D03*
X99000000Y-57900000D03*
X133300000Y-62800000D03*
X115900000Y-55200000D03*
X105700000Y-90600000D03*
X112500000Y-57100000D03*
X106400000Y-82200000D03*
X137100000Y-56000000D03*
X59600000Y-75000000D03*
X125200000Y-75800000D03*
X107100000Y-82200000D03*
X92730000Y-80600000D03*
X108800000Y-81700000D03*
X120600000Y-84400000D03*
X120800000Y-95900000D03*
X104700000Y-75800000D03*
X60600000Y-82000000D03*
X125800000Y-84500000D03*
X100530000Y-85595000D03*
X125100000Y-84500000D03*
X107300000Y-90100000D03*
X106400000Y-90600000D03*
X112500000Y-76500000D03*
X117400000Y-63600000D03*
X124500000Y-75800000D03*
X111800000Y-77200000D03*
X102000000Y-84700000D03*
X99800000Y-57900000D03*
X99800000Y-77400000D03*
X108100000Y-81700000D03*
X129700000Y-62600000D03*
X85600000Y-83500000D03*
X140600000Y-56800000D03*
X134100000Y-84300000D03*
X99000000Y-57200000D03*
X85600000Y-87600000D03*
X105700000Y-89900000D03*
X55600000Y-76600000D03*
X90700000Y-87800000D03*
X111700000Y-57100000D03*
X135600000Y-56300000D03*
X87400000Y-82362500D03*
X83400000Y-84700000D03*
X100530000Y-86490000D03*
X102000000Y-86490000D03*
X56900000Y-58700000D03*
X124500000Y-77200000D03*
X107500000Y-74400000D03*
X137525000Y-79440000D03*
X124825000Y-60060000D03*
X111800000Y-76500000D03*
X93100000Y-84400000D03*
X107300000Y-89400000D03*
X59400000Y-78300000D03*
X99100000Y-76700000D03*
X137895000Y-60060000D03*
X77300000Y-61300000D03*
%TO.N,/I2C_SCL*%
X133349997Y-63600000D03*
X134900000Y-56000000D03*
X131200000Y-54050000D03*
%TO.N,/I2C_SDA*%
X132200000Y-54700000D03*
X134000000Y-63600000D03*
X136050000Y-57050000D03*
%TO.N,Net-(U11-CS)*%
X130703554Y-57696446D03*
X139787500Y-56800000D03*
%TO.N,/BTN_0*%
X104500000Y-81700000D03*
X84400000Y-90500000D03*
%TO.N,Net-(U12A--)*%
X56900000Y-57400000D03*
%TO.N,/XSHUT_4*%
X140065000Y-85000000D03*
%TO.N,Net-(U1-VINT)*%
X103135002Y-85067500D03*
X103135002Y-87000000D03*
%TO.N,/XSHUT_0*%
X84100000Y-79600000D03*
X63100000Y-90900000D03*
%TO.N,/XSHUT_3*%
X127800000Y-57100000D03*
X140065000Y-60060000D03*
%TO.N,/DBG_0*%
X59900000Y-82000000D03*
X104700000Y-77100000D03*
X59700000Y-77600000D03*
%TO.N,+5V*%
X110600000Y-83200000D03*
X96600000Y-54800000D03*
X110600000Y-83900000D03*
X99400000Y-54800000D03*
X110600000Y-85300000D03*
X97300000Y-54800000D03*
X98700000Y-55500000D03*
X98000000Y-54800000D03*
X99400000Y-55500000D03*
X109900000Y-83900000D03*
X97300000Y-55500000D03*
X109900000Y-84600000D03*
X110600000Y-84600000D03*
X98000000Y-55500000D03*
X98700000Y-54800000D03*
X109900000Y-83200000D03*
X109900000Y-85300000D03*
X96600000Y-55500000D03*
%TO.N,/ITR_0*%
X117400000Y-65900000D03*
X109900000Y-65900000D03*
%TO.N,Net-(U12B--)*%
X129000000Y-57000000D03*
X109900000Y-66700000D03*
X129000000Y-62600000D03*
X117400000Y-66700000D03*
%TO.N,/ITR_1*%
X109900000Y-65100000D03*
X117400000Y-65100000D03*
%TO.N,/Motors/AOUT2*%
X83600000Y-95600000D03*
%TO.N,Net-(J1-Pin_5)*%
X132100000Y-84300000D03*
%TO.N,Net-(J1-Pin_6)*%
X133100000Y-84300000D03*
%TO.N,/XSHUT_1*%
X85100000Y-79700000D03*
%TO.N,/XSHUT_2*%
X116200000Y-53450000D03*
%TO.N,/Motors/BOUT1*%
X100800000Y-96000000D03*
%TO.N,Net-(J2-Pin_5)*%
X136100000Y-84300000D03*
%TO.N,Net-(J2-Pin_6)*%
X137100000Y-84300000D03*
%TO.N,/RST*%
X117400000Y-64300000D03*
X109900000Y-64300000D03*
X87450000Y-58450000D03*
X77300000Y-60100000D03*
%TO.N,Net-(U10-A)*%
X131700000Y-57800000D03*
%TO.N,/Motors/AISEN_RAW*%
X87450000Y-84612500D03*
X94100000Y-84400000D03*
%TO.N,/XSHUT_5*%
X140900000Y-85000000D03*
%TO.N,/DBG_1*%
X104700000Y-76449997D03*
X59600000Y-75700000D03*
%TO.N,/AIN1*%
X114665000Y-79440000D03*
X105000000Y-83749997D03*
%TO.N,/AIN2*%
X117205000Y-79440000D03*
X105000000Y-84400000D03*
%TO.N,/BIN2*%
X105000000Y-87700000D03*
X119745000Y-79440000D03*
%TO.N,/BIN1*%
X105000000Y-88400000D03*
X122285000Y-79440000D03*
%TO.N,/AISEN*%
X84700000Y-83500000D03*
X108650000Y-75550000D03*
%TO.N,/BISEN*%
X84700000Y-87600000D03*
X108050000Y-74850000D03*
%TO.N,/Motors/BISEN_RAW*%
X94100000Y-87700000D03*
X87512500Y-88750000D03*
%TO.N,Net-(U4-A)*%
X55100000Y-61300000D03*
%TD*%
%TO.N,+3.3V*%
D26*
X138300000Y-84680256D02*
X138300000Y-82300000D01*
X134400000Y-80800000D02*
X126150000Y-72550000D01*
X126150000Y-72550000D02*
X126150000Y-53960000D01*
X136800000Y-80800000D02*
X134400000Y-80800000D01*
X138300000Y-82300000D02*
X136800000Y-80800000D01*
X133490128Y-89490128D02*
X138300000Y-84680256D01*
%TO.N,GND*%
D27*
X55100000Y-56000000D02*
X55100000Y-57400000D01*
X138900000Y-60000000D02*
X137955000Y-60000000D01*
X56900000Y-60000000D02*
X56900000Y-58700000D01*
X137955000Y-60000000D02*
X137895000Y-60060000D01*
%TO.N,/I2C_SCL*%
X77020000Y-79000000D02*
X80750000Y-82730000D01*
X69710000Y-52700000D02*
X67800000Y-52700000D01*
X56200000Y-96200000D02*
X64567965Y-87832035D01*
X50800000Y-92930000D02*
X50800000Y-94900000D01*
X140100000Y-78300000D02*
X141500000Y-79700000D01*
X130700000Y-54050000D02*
X128450000Y-51800000D01*
X134600000Y-78300000D02*
X140100000Y-78300000D01*
X65898026Y-85901974D02*
X65898026Y-84101974D01*
X121070000Y-53530000D02*
X121070000Y-53960000D01*
X134900000Y-56000000D02*
X132950000Y-54050000D01*
X67800000Y-52700000D02*
X53700000Y-66800000D01*
X119210000Y-52100000D02*
X121070000Y-53960000D01*
X64567965Y-87832035D02*
X64567965Y-87232035D01*
X53700000Y-66800000D02*
X53700000Y-90030000D01*
X70970000Y-53960000D02*
X69710000Y-52700000D01*
X70970000Y-53960000D02*
X72830000Y-52100000D01*
X131200000Y-54050000D02*
X130700000Y-54050000D01*
X140900000Y-89500000D02*
X140900000Y-91770000D01*
X64567965Y-87232035D02*
X65898026Y-85901974D01*
X140900000Y-91770000D02*
X142150000Y-93020000D01*
X68700000Y-79000000D02*
X77020000Y-79000000D01*
X122800000Y-51800000D02*
X121070000Y-53530000D01*
X72830000Y-52100000D02*
X119210000Y-52100000D01*
X65898026Y-81801974D02*
X68700000Y-79000000D01*
X128450000Y-51800000D02*
X122800000Y-51800000D01*
X52100000Y-96200000D02*
X56200000Y-96200000D01*
X141500000Y-88900000D02*
X140900000Y-89500000D01*
X133349997Y-63600000D02*
X133349997Y-77049997D01*
X132950000Y-54050000D02*
X131200000Y-54050000D01*
X141500000Y-79700000D02*
X141500000Y-88900000D01*
X50800000Y-94900000D02*
X52100000Y-96200000D01*
X53700000Y-90030000D02*
X52000000Y-91730000D01*
X52000000Y-91730000D02*
X50800000Y-92930000D01*
X65898026Y-84101974D02*
X65898026Y-81801974D01*
X133349997Y-77049997D02*
X134600000Y-78300000D01*
%TO.N,/I2C_SDA*%
X53330000Y-95600000D02*
X56000000Y-95600000D01*
X72300000Y-54500000D02*
X72300000Y-53400000D01*
X142150000Y-90480000D02*
X142150000Y-79250000D01*
X142150000Y-79250000D02*
X140500000Y-77600000D01*
X68430000Y-53960000D02*
X67440000Y-53960000D01*
X56000000Y-95600000D02*
X64101974Y-87498026D01*
X132500000Y-54700000D02*
X132200000Y-54700000D01*
X119820000Y-55250000D02*
X118530000Y-53960000D01*
X69670000Y-55200000D02*
X71600000Y-55200000D01*
X135000000Y-77600000D02*
X134000000Y-76600000D01*
X54300000Y-67100000D02*
X54300000Y-90100000D01*
X52000000Y-94270000D02*
X53330000Y-95600000D01*
X64101974Y-82798026D02*
X68500000Y-78400000D01*
X53300000Y-91100000D02*
X53300000Y-92970000D01*
X53300000Y-92970000D02*
X52000000Y-94270000D01*
X122350000Y-53400000D02*
X122350000Y-54560991D01*
X134850000Y-57050000D02*
X132500000Y-54700000D01*
X64101974Y-85898026D02*
X64101974Y-82798026D01*
X132200000Y-54700000D02*
X130050000Y-54700000D01*
X72300000Y-53400000D02*
X73100000Y-52600000D01*
X136050000Y-57050000D02*
X134850000Y-57050000D01*
X64101974Y-87498026D02*
X64101974Y-85898026D01*
X121660991Y-55250000D02*
X119820000Y-55250000D01*
X130050000Y-54700000D02*
X128000000Y-52650000D01*
X140500000Y-77600000D02*
X135000000Y-77600000D01*
X67440000Y-53960000D02*
X54300000Y-67100000D01*
X71600000Y-55200000D02*
X72300000Y-54500000D01*
X122350000Y-54560991D02*
X121660991Y-55250000D01*
X128000000Y-52650000D02*
X123100000Y-52650000D01*
X73100000Y-52600000D02*
X117170000Y-52600000D01*
X78960000Y-78400000D02*
X80750000Y-80190000D01*
X54300000Y-90100000D02*
X53300000Y-91100000D01*
X123100000Y-52650000D02*
X122350000Y-53400000D01*
X117170000Y-52600000D02*
X118530000Y-53960000D01*
X68430000Y-53960000D02*
X69670000Y-55200000D01*
X134000000Y-76600000D02*
X134000000Y-63600000D01*
X68500000Y-78400000D02*
X78960000Y-78400000D01*
%TO.N,Net-(U11-CS)*%
X132100000Y-56700000D02*
X131100000Y-56700000D01*
X131100000Y-56700000D02*
X130703554Y-57096446D01*
X139787500Y-56800000D02*
X139787500Y-57512500D01*
X133900000Y-58500000D02*
X132100000Y-56700000D01*
X130703554Y-57096446D02*
X130703554Y-57696446D01*
X138800000Y-58500000D02*
X133900000Y-58500000D01*
X139787500Y-57512500D02*
X138800000Y-58500000D01*
%TO.N,/BTN_0*%
X104500000Y-81700000D02*
X104100000Y-82100000D01*
X104100000Y-82100000D02*
X88404963Y-82100000D01*
X88404963Y-82100000D02*
X86200000Y-84304963D01*
X86200000Y-84304963D02*
X86200000Y-88700000D01*
X86200000Y-88700000D02*
X84400000Y-90500000D01*
%TO.N,Net-(U12A--)*%
X56900000Y-57400000D02*
X56900000Y-56000000D01*
%TO.N,/XSHUT_4*%
X134097790Y-90967210D02*
X131375107Y-90967210D01*
X131375107Y-90967210D02*
X128101974Y-87694077D01*
X140065000Y-85000000D02*
X134097790Y-90967210D01*
%TO.N,Net-(U1-VINT)*%
X103135002Y-87000000D02*
X103135002Y-85067500D01*
%TO.N,/XSHUT_0*%
X63100000Y-90900000D02*
X65700000Y-90900000D01*
X71450000Y-93650001D02*
X73000000Y-95200000D01*
X82700000Y-81000000D02*
X84100000Y-79600000D01*
X82700000Y-90100000D02*
X82700000Y-81000000D01*
X70500000Y-88600000D02*
X71450000Y-89550000D01*
X77600001Y-95200000D02*
X82700000Y-90100000D01*
X73000000Y-95200000D02*
X77600001Y-95200000D01*
X65700000Y-90900000D02*
X68000000Y-88600000D01*
X68000000Y-88600000D02*
X70500000Y-88600000D01*
X71450000Y-89550000D02*
X71450000Y-93650001D01*
%TO.N,/XSHUT_3*%
X139400000Y-61300000D02*
X140065000Y-60635000D01*
X127800000Y-57100000D02*
X132000000Y-61300000D01*
X132000000Y-61300000D02*
X139400000Y-61300000D01*
X140065000Y-60635000D02*
X140065000Y-60060000D01*
%TO.N,/DBG_0*%
X100650000Y-75850000D02*
X98050000Y-75850000D01*
X96300000Y-77600000D02*
X59700000Y-77600000D01*
X59900000Y-82000000D02*
X59900000Y-77800000D01*
X101900000Y-77100000D02*
X100650000Y-75850000D01*
X98050000Y-75850000D02*
X96300000Y-77600000D01*
X59900000Y-77800000D02*
X59700000Y-77600000D01*
X104700000Y-77100000D02*
X101900000Y-77100000D01*
%TO.N,+5V*%
D28*
X104400000Y-82900000D02*
X105600000Y-82900000D01*
D29*
X101850000Y-56350000D02*
X101850000Y-65850000D01*
X96200000Y-55200000D02*
X100700000Y-55200000D01*
D28*
X103900000Y-92000000D02*
X105245000Y-93345000D01*
X105600000Y-82900000D02*
X108000000Y-85300000D01*
D29*
X100700000Y-55200000D02*
X101850000Y-56350000D01*
D28*
X88710000Y-93710000D02*
X90420000Y-92000000D01*
X105245000Y-93345000D02*
X105245000Y-93712500D01*
D29*
X110300000Y-74300000D02*
X110300000Y-84900000D01*
D28*
X104100000Y-83200000D02*
X104400000Y-82900000D01*
X108000000Y-85300000D02*
X109900000Y-85300000D01*
D29*
X101850000Y-65850000D02*
X110300000Y-74300000D01*
D28*
X103900000Y-92000000D02*
X104100000Y-91800000D01*
X105287500Y-93712500D02*
X105245000Y-93712500D01*
X104100000Y-91800000D02*
X104100000Y-83200000D01*
X90420000Y-92000000D02*
X103900000Y-92000000D01*
%TO.N,/ITR_0*%
D27*
X117400000Y-65900000D02*
X109900000Y-65900000D01*
%TO.N,Net-(U12B--)*%
X137100000Y-57800000D02*
X134300000Y-57800000D01*
X127100000Y-60700000D02*
X127100000Y-56700000D01*
X127500000Y-56300000D02*
X128300000Y-56300000D01*
X132500000Y-56000000D02*
X129300000Y-56000000D01*
X129000000Y-62600000D02*
X127100000Y-60700000D01*
X127100000Y-56700000D02*
X127500000Y-56300000D01*
X117400000Y-66700000D02*
X109900000Y-66700000D01*
X138900000Y-56000000D02*
X137100000Y-57800000D01*
X129000000Y-56300000D02*
X129000000Y-57000000D01*
X129300000Y-56000000D02*
X129000000Y-56300000D01*
X134300000Y-57800000D02*
X132500000Y-56000000D01*
X128300000Y-56300000D02*
X129000000Y-57000000D01*
%TO.N,/ITR_1*%
X117400000Y-65100000D02*
X109900000Y-65100000D01*
%TO.N,/Motors/AOUT2*%
D30*
X84280000Y-95600000D02*
X86170000Y-93710000D01*
X83600000Y-95600000D02*
X84280000Y-95600000D01*
%TO.N,Net-(J1-Pin_5)*%
X118500000Y-88700000D02*
X118500000Y-83600000D01*
X109600000Y-98400000D02*
X111100000Y-96900000D01*
X130700000Y-82900000D02*
X132100000Y-84300000D01*
X111100000Y-96900000D02*
X111100000Y-93100000D01*
X111100000Y-93100000D02*
X113700000Y-90500000D01*
X119200000Y-82900000D02*
X130700000Y-82900000D01*
X91250000Y-96250000D02*
X93400000Y-98400000D01*
X116700000Y-90500000D02*
X118500000Y-88700000D01*
X113700000Y-90500000D02*
X116700000Y-90500000D01*
X118500000Y-83600000D02*
X119200000Y-82900000D01*
X93400000Y-98400000D02*
X109600000Y-98400000D01*
%TO.N,Net-(J1-Pin_6)*%
X117800000Y-83500000D02*
X118900000Y-82400000D01*
X91250000Y-93710000D02*
X95240000Y-97700000D01*
X116300000Y-89900000D02*
X117800000Y-88400000D01*
X117800000Y-88400000D02*
X117800000Y-83500000D01*
X95240000Y-97700000D02*
X109100000Y-97700000D01*
X110200000Y-93100000D02*
X113400000Y-89900000D01*
X131200000Y-82400000D02*
X133100000Y-84300000D01*
X110200000Y-96600000D02*
X110200000Y-93100000D01*
X118900000Y-82400000D02*
X131200000Y-82400000D01*
X113400000Y-89900000D02*
X116300000Y-89900000D01*
X109100000Y-97700000D02*
X110200000Y-96600000D01*
%TO.N,/XSHUT_1*%
D27*
X84400000Y-79000000D02*
X85100000Y-79700000D01*
X83700000Y-79000000D02*
X84400000Y-79000000D01*
X77300000Y-94700000D02*
X82200000Y-89800000D01*
X67694077Y-85898026D02*
X69193001Y-85898026D01*
X69193001Y-85898026D02*
X72000000Y-88705025D01*
X72000000Y-88705025D02*
X72000000Y-93500000D01*
X82200000Y-89800000D02*
X82200000Y-80500000D01*
X82200000Y-80500000D02*
X83700000Y-79000000D01*
X72000000Y-93500000D02*
X73200000Y-94700000D01*
X73200000Y-94700000D02*
X77300000Y-94700000D01*
%TO.N,/XSHUT_2*%
X79300000Y-53450000D02*
X76250000Y-56500000D01*
X116200000Y-53450000D02*
X79300000Y-53450000D01*
X76250000Y-56500000D02*
X70970000Y-56500000D01*
%TO.N,/Motors/BOUT1*%
D30*
X100800000Y-96000000D02*
X100800000Y-95617500D01*
X100800000Y-95617500D02*
X102705000Y-93712500D01*
%TO.N,Net-(J2-Pin_5)*%
X113100000Y-89300000D02*
X115700000Y-89300000D01*
X117100000Y-83300000D02*
X118500000Y-81900000D01*
X115700000Y-89300000D02*
X117100000Y-87900000D01*
X131700000Y-81900000D02*
X132700000Y-82900000D01*
X118500000Y-81900000D02*
X131700000Y-81900000D01*
X117100000Y-87900000D02*
X117100000Y-83300000D01*
X107785000Y-96252500D02*
X109500000Y-94537500D01*
X109500000Y-94537500D02*
X109500000Y-92900000D01*
X132700000Y-82900000D02*
X134700000Y-82900000D01*
X109500000Y-92900000D02*
X113100000Y-89300000D01*
X134700000Y-82900000D02*
X136100000Y-84300000D01*
%TO.N,Net-(J2-Pin_6)*%
X118000000Y-81400000D02*
X131900000Y-81400000D01*
X116400000Y-83000000D02*
X118000000Y-81400000D01*
X132900000Y-82400000D02*
X135200000Y-82400000D01*
X116400000Y-87500000D02*
X116400000Y-83000000D01*
X115200000Y-88700000D02*
X116400000Y-87500000D01*
X135200000Y-82400000D02*
X137100000Y-84300000D01*
X112797500Y-88700000D02*
X115200000Y-88700000D01*
X107785000Y-93712500D02*
X112797500Y-88700000D01*
X131900000Y-81400000D02*
X132900000Y-82400000D01*
%TO.N,/RST*%
D27*
X77300000Y-60100000D02*
X85800000Y-60100000D01*
X85800000Y-60100000D02*
X87450000Y-58450000D01*
X117400000Y-64300000D02*
X109900000Y-64300000D01*
%TO.N,Net-(U10-A)*%
X137100000Y-60000000D02*
X133900000Y-60000000D01*
X133900000Y-60000000D02*
X131700000Y-57800000D01*
%TO.N,/Motors/AISEN_RAW*%
X90700000Y-85700000D02*
X92800000Y-85700000D01*
X92800000Y-85700000D02*
X94100000Y-84400000D01*
X89612500Y-84612500D02*
X90700000Y-85700000D01*
X87450000Y-84612500D02*
X89612500Y-84612500D01*
%TO.N,/XSHUT_5*%
X138510000Y-87390000D02*
X138510000Y-91920000D01*
X139750000Y-93160000D02*
X139610000Y-93020000D01*
X138510000Y-91920000D02*
X139610000Y-93020000D01*
X140900000Y-85000000D02*
X138510000Y-87390000D01*
%TO.N,/DBG_1*%
X101000000Y-75300000D02*
X97700000Y-75300000D01*
X97700000Y-75300000D02*
X95900000Y-77100000D01*
X95900000Y-77100000D02*
X61000000Y-77100000D01*
X104700000Y-76449997D02*
X102149997Y-76449997D01*
X102149997Y-76449997D02*
X101000000Y-75300000D01*
X61000000Y-77100000D02*
X59600000Y-75700000D01*
%TO.N,/AIN1*%
X105249997Y-83749997D02*
X105000000Y-83749997D01*
X113600000Y-82400000D02*
X113600000Y-85800000D01*
X113600000Y-85800000D02*
X113200000Y-86200000D01*
X114665000Y-79440000D02*
X114665000Y-81335000D01*
X114665000Y-81335000D02*
X113600000Y-82400000D01*
X113200000Y-86200000D02*
X107700000Y-86200000D01*
X107700000Y-86200000D02*
X105249997Y-83749997D01*
%TO.N,/AIN2*%
X117205000Y-79440000D02*
X116750000Y-79895000D01*
X116750000Y-80000000D02*
X114000000Y-82750000D01*
X114000000Y-86400000D02*
X113700000Y-86700000D01*
X113700000Y-86700000D02*
X107300000Y-86700000D01*
X114000000Y-82750000D02*
X114000000Y-86400000D01*
X107300000Y-86700000D02*
X105000000Y-84400000D01*
X116750000Y-79895000D02*
X116750000Y-80000000D01*
%TO.N,/BIN2*%
X114500000Y-83050000D02*
X114500000Y-86900000D01*
X111100000Y-87700000D02*
X105000000Y-87700000D01*
X117150000Y-80400000D02*
X114500000Y-83050000D01*
X114500000Y-86900000D02*
X114100000Y-87300000D01*
X111500000Y-87300000D02*
X111100000Y-87700000D01*
X114100000Y-87300000D02*
X111500000Y-87300000D01*
X118785000Y-80400000D02*
X117150000Y-80400000D01*
X119745000Y-79440000D02*
X118785000Y-80400000D01*
%TO.N,/BIN1*%
X115100000Y-83300000D02*
X115100000Y-87500000D01*
X122285000Y-79440000D02*
X120825000Y-80900000D01*
X114700000Y-87900000D02*
X112100000Y-87900000D01*
X120825000Y-80900000D02*
X117500000Y-80900000D01*
X115100000Y-87500000D02*
X114700000Y-87900000D01*
X117500000Y-80900000D02*
X115100000Y-83300000D01*
X111600000Y-88400000D02*
X105000000Y-88400000D01*
X112100000Y-87900000D02*
X111600000Y-88400000D01*
%TO.N,/AISEN*%
X88300000Y-79900000D02*
X84700000Y-83500000D01*
X108650000Y-75550000D02*
X104300000Y-79900000D01*
X104300000Y-79900000D02*
X88300000Y-79900000D01*
%TO.N,/BISEN*%
X108050000Y-74850000D02*
X103500000Y-79400000D01*
X87600000Y-79400000D02*
X84000000Y-83000000D01*
X84000000Y-83000000D02*
X84000000Y-86900000D01*
X103500000Y-79400000D02*
X87600000Y-79400000D01*
X84000000Y-86900000D02*
X84700000Y-87600000D01*
%TO.N,/Motors/BISEN_RAW*%
X89150000Y-88750000D02*
X89500000Y-89100000D01*
X92700000Y-89100000D02*
X94100000Y-87700000D01*
X87512500Y-88750000D02*
X89150000Y-88750000D01*
X89500000Y-89100000D02*
X92700000Y-89100000D01*
%TO.N,Net-(U4-A)*%
X55100000Y-61300000D02*
X55100000Y-60000000D01*
%TD*%
%TA.AperFunction,Conductor*%
%TO.N,+5V*%
G36*
X99843039Y-54319685D02*
G01*
X99888794Y-54372489D01*
X99900000Y-54424000D01*
X99900000Y-55876000D01*
X99880315Y-55943039D01*
X99827511Y-55988794D01*
X99776000Y-56000000D01*
X95424000Y-56000000D01*
X95356961Y-55980315D01*
X95311206Y-55927511D01*
X95300000Y-55876000D01*
X95300000Y-54424000D01*
X95319685Y-54356961D01*
X95372489Y-54311206D01*
X95424000Y-54300000D01*
X99776000Y-54300000D01*
X99843039Y-54319685D01*
G37*
%TD.AperFunction*%
%TD*%
M02*
