ISO-10303-21;
HEADER;
/* Generated by software containing ST-Developer
 * from STEP Tools, Inc. (www.steptools.com) 
 */

FILE_DESCRIPTION(
/* description */ (''),
/* implementation_level */ '2;1');

FILE_NAME(
/* name */ 
'F:/Exit19/exit19-kicad-library/3D_models/RELPOL_RM50-3011-85-1005_3DM
ODEL.step',
/* time_stamp */ '2022-12-15T14:15:53+01:00',
/* author */ (''),
/* organization */ (''),
/* preprocessor_version */ 'ST-DEVELOPER v19',
/* originating_system */ 'Autodesk Translation Framework v11.7.0.108',
/* authorisation */ '');

FILE_SCHEMA (('AUTOMOTIVE_DESIGN { 1 0 10303 214 3 1 1 }'));
ENDSEC;

DATA;
#10=MECHANICAL_DESIGN_GEOMETRIC_PRESENTATION_REPRESENTATION('',(#13),#842);
#11=SHAPE_REPRESENTATION_RELATIONSHIP('SRR','None',#849,#12);
#12=ADVANCED_BREP_SHAPE_REPRESENTATION('',(#14),#841);
#13=STYLED_ITEM('',(#859),#14);
#14=MANIFOLD_SOLID_BREP('Body1',#482);
#15=FACE_BOUND('',#172,.T.);
#16=FACE_BOUND('',#173,.T.);
#17=FACE_BOUND('',#174,.T.);
#18=FACE_BOUND('',#175,.T.);
#19=FACE_BOUND('',#176,.T.);
#20=PLANE('',#524);
#21=PLANE('',#525);
#22=PLANE('',#530);
#23=PLANE('',#531);
#24=PLANE('',#532);
#25=PLANE('',#533);
#26=PLANE('',#534);
#27=PLANE('',#537);
#28=PLANE('',#540);
#29=PLANE('',#543);
#30=PLANE('',#544);
#31=PLANE('',#545);
#32=PLANE('',#546);
#33=PLANE('',#549);
#34=PLANE('',#550);
#35=PLANE('',#551);
#36=LINE('',#721,#75);
#37=LINE('',#722,#76);
#38=LINE('',#738,#77);
#39=LINE('',#739,#78);
#40=LINE('',#744,#79);
#41=LINE('',#745,#80);
#42=LINE('',#747,#81);
#43=LINE('',#748,#82);
#44=LINE('',#750,#83);
#45=LINE('',#751,#84);
#46=LINE('',#756,#85);
#47=LINE('',#757,#86);
#48=LINE('',#762,#87);
#49=LINE('',#763,#88);
#50=LINE('',#768,#89);
#51=LINE('',#769,#90);
#52=LINE('',#771,#91);
#53=LINE('',#773,#92);
#54=LINE('',#774,#93);
#55=LINE('',#775,#94);
#56=LINE('',#780,#95);
#57=LINE('',#782,#96);
#58=LINE('',#784,#97);
#59=LINE('',#785,#98);
#60=LINE('',#797,#99);
#61=LINE('',#799,#100);
#62=LINE('',#801,#101);
#63=LINE('',#802,#102);
#64=LINE('',#805,#103);
#65=LINE('',#806,#104);
#66=LINE('',#807,#105);
#67=LINE('',#810,#106);
#68=LINE('',#811,#107);
#69=LINE('',#815,#108);
#70=LINE('',#820,#109);
#71=LINE('',#825,#110);
#72=LINE('',#828,#111);
#73=LINE('',#830,#112);
#74=LINE('',#835,#113);
#75=VECTOR('',#572,10.);
#76=VECTOR('',#573,10.);
#77=VECTOR('',#592,10.);
#78=VECTOR('',#593,10.);
#79=VECTOR('',#598,10.);
#80=VECTOR('',#599,10.);
#81=VECTOR('',#602,10.);
#82=VECTOR('',#603,10.);
#83=VECTOR('',#606,10.);
#84=VECTOR('',#607,10.);
#85=VECTOR('',#612,10.);
#86=VECTOR('',#613,10.);
#87=VECTOR('',#618,10.);
#88=VECTOR('',#619,10.);
#89=VECTOR('',#624,10.);
#90=VECTOR('',#625,10.);
#91=VECTOR('',#628,10.);
#92=VECTOR('',#631,10.);
#93=VECTOR('',#632,10.);
#94=VECTOR('',#633,10.);
#95=VECTOR('',#636,10.);
#96=VECTOR('',#637,10.);
#97=VECTOR('',#638,10.);
#98=VECTOR('',#639,10.);
#99=VECTOR('',#652,10.);
#100=VECTOR('',#653,10.);
#101=VECTOR('',#654,10.);
#102=VECTOR('',#655,10.);
#103=VECTOR('',#658,10.);
#104=VECTOR('',#659,10.);
#105=VECTOR('',#660,10.);
#106=VECTOR('',#663,10.);
#107=VECTOR('',#664,10.);
#108=VECTOR('',#669,0.5);
#109=VECTOR('',#676,0.249999999999999);
#110=VECTOR('',#683,0.499999999999998);
#111=VECTOR('',#688,10.);
#112=VECTOR('',#691,10.);
#113=VECTOR('',#698,0.275000000000001);
#114=CYLINDRICAL_SURFACE('',#504,0.255);
#115=CYLINDRICAL_SURFACE('',#513,0.255);
#116=CYLINDRICAL_SURFACE('',#514,0.255);
#117=CYLINDRICAL_SURFACE('',#516,0.255);
#118=CYLINDRICAL_SURFACE('',#517,0.255);
#119=CYLINDRICAL_SURFACE('',#518,0.255);
#120=CYLINDRICAL_SURFACE('',#520,0.255);
#121=CYLINDRICAL_SURFACE('',#522,0.255);
#122=CYLINDRICAL_SURFACE('',#535,0.5);
#123=CYLINDRICAL_SURFACE('',#538,0.249999999999999);
#124=CYLINDRICAL_SURFACE('',#541,0.499999999999998);
#125=CYLINDRICAL_SURFACE('',#547,0.275000000000001);
#126=FACE_OUTER_BOUND('',#158,.T.);
#127=FACE_OUTER_BOUND('',#159,.T.);
#128=FACE_OUTER_BOUND('',#160,.T.);
#129=FACE_OUTER_BOUND('',#161,.T.);
#130=FACE_OUTER_BOUND('',#162,.T.);
#131=FACE_OUTER_BOUND('',#163,.T.);
#132=FACE_OUTER_BOUND('',#164,.T.);
#133=FACE_OUTER_BOUND('',#165,.T.);
#134=FACE_OUTER_BOUND('',#166,.T.);
#135=FACE_OUTER_BOUND('',#167,.T.);
#136=FACE_OUTER_BOUND('',#168,.T.);
#137=FACE_OUTER_BOUND('',#169,.T.);
#138=FACE_OUTER_BOUND('',#170,.T.);
#139=FACE_OUTER_BOUND('',#171,.T.);
#140=FACE_OUTER_BOUND('',#177,.T.);
#141=FACE_OUTER_BOUND('',#178,.T.);
#142=FACE_OUTER_BOUND('',#179,.T.);
#143=FACE_OUTER_BOUND('',#180,.T.);
#144=FACE_OUTER_BOUND('',#181,.T.);
#145=FACE_OUTER_BOUND('',#182,.T.);
#146=FACE_OUTER_BOUND('',#183,.T.);
#147=FACE_OUTER_BOUND('',#184,.T.);
#148=FACE_OUTER_BOUND('',#185,.T.);
#149=FACE_OUTER_BOUND('',#186,.T.);
#150=FACE_OUTER_BOUND('',#187,.T.);
#151=FACE_OUTER_BOUND('',#188,.T.);
#152=FACE_OUTER_BOUND('',#189,.T.);
#153=FACE_OUTER_BOUND('',#190,.T.);
#154=FACE_OUTER_BOUND('',#191,.T.);
#155=FACE_OUTER_BOUND('',#192,.T.);
#156=FACE_OUTER_BOUND('',#193,.T.);
#157=FACE_OUTER_BOUND('',#194,.T.);
#158=EDGE_LOOP('',(#320,#321,#322));
#159=EDGE_LOOP('',(#323,#324,#325));
#160=EDGE_LOOP('',(#326,#327,#328,#329));
#161=EDGE_LOOP('',(#330,#331,#332));
#162=EDGE_LOOP('',(#333,#334,#335));
#163=EDGE_LOOP('',(#336,#337,#338,#339));
#164=EDGE_LOOP('',(#340,#341,#342,#343));
#165=EDGE_LOOP('',(#344,#345,#346,#347));
#166=EDGE_LOOP('',(#348,#349,#350,#351));
#167=EDGE_LOOP('',(#352,#353,#354,#355));
#168=EDGE_LOOP('',(#356,#357,#358,#359));
#169=EDGE_LOOP('',(#360,#361,#362,#363));
#170=EDGE_LOOP('',(#364,#365,#366,#367));
#171=EDGE_LOOP('',(#368,#369,#370,#371,#372,#373,#374,#375));
#172=EDGE_LOOP('',(#376));
#173=EDGE_LOOP('',(#377,#378,#379,#380));
#174=EDGE_LOOP('',(#381));
#175=EDGE_LOOP('',(#382));
#176=EDGE_LOOP('',(#383));
#177=EDGE_LOOP('',(#384,#385,#386,#387));
#178=EDGE_LOOP('',(#388,#389,#390,#391));
#179=EDGE_LOOP('',(#392,#393,#394,#395));
#180=EDGE_LOOP('',(#396,#397,#398,#399,#400));
#181=EDGE_LOOP('',(#401,#402,#403,#404));
#182=EDGE_LOOP('',(#405,#406,#407,#408));
#183=EDGE_LOOP('',(#409));
#184=EDGE_LOOP('',(#410,#411,#412,#413));
#185=EDGE_LOOP('',(#414));
#186=EDGE_LOOP('',(#415,#416,#417,#418));
#187=EDGE_LOOP('',(#419));
#188=EDGE_LOOP('',(#420,#421,#422,#423));
#189=EDGE_LOOP('',(#424,#425,#426,#427,#428));
#190=EDGE_LOOP('',(#429,#430,#431,#432));
#191=EDGE_LOOP('',(#433,#434,#435,#436));
#192=EDGE_LOOP('',(#437));
#193=EDGE_LOOP('',(#438,#439,#440,#441));
#194=EDGE_LOOP('',(#442,#443,#444,#445));
#195=CIRCLE('',#497,0.255000000000001);
#196=CIRCLE('',#498,0.255);
#197=CIRCLE('',#499,0.255);
#198=CIRCLE('',#501,0.255);
#199=CIRCLE('',#502,0.255);
#200=CIRCLE('',#503,0.255);
#201=CIRCLE('',#506,0.255000000000001);
#202=CIRCLE('',#507,0.255);
#203=CIRCLE('',#508,0.255000000000001);
#204=CIRCLE('',#510,0.255);
#205=CIRCLE('',#511,0.255000000000001);
#206=CIRCLE('',#512,0.255);
#207=CIRCLE('',#515,0.255);
#208=CIRCLE('',#519,0.255);
#209=CIRCLE('',#521,0.255);
#210=CIRCLE('',#523,0.255);
#211=CIRCLE('',#526,0.275000000000001);
#212=CIRCLE('',#527,0.499999999999998);
#213=CIRCLE('',#528,0.249999999999999);
#214=CIRCLE('',#529,0.5);
#215=CIRCLE('',#536,0.5);
#216=CIRCLE('',#539,0.249999999999999);
#217=CIRCLE('',#542,0.499999999999998);
#218=CIRCLE('',#548,0.275000000000001);
#219=VERTEX_POINT('',#707);
#220=VERTEX_POINT('',#708);
#221=VERTEX_POINT('',#710);
#222=VERTEX_POINT('',#714);
#223=VERTEX_POINT('',#715);
#224=VERTEX_POINT('',#717);
#225=VERTEX_POINT('',#724);
#226=VERTEX_POINT('',#725);
#227=VERTEX_POINT('',#727);
#228=VERTEX_POINT('',#731);
#229=VERTEX_POINT('',#732);
#230=VERTEX_POINT('',#734);
#231=VERTEX_POINT('',#741);
#232=VERTEX_POINT('',#742);
#233=VERTEX_POINT('',#753);
#234=VERTEX_POINT('',#754);
#235=VERTEX_POINT('',#759);
#236=VERTEX_POINT('',#760);
#237=VERTEX_POINT('',#765);
#238=VERTEX_POINT('',#766);
#239=VERTEX_POINT('',#776);
#240=VERTEX_POINT('',#778);
#241=VERTEX_POINT('',#779);
#242=VERTEX_POINT('',#781);
#243=VERTEX_POINT('',#783);
#244=VERTEX_POINT('',#786);
#245=VERTEX_POINT('',#788);
#246=VERTEX_POINT('',#790);
#247=VERTEX_POINT('',#795);
#248=VERTEX_POINT('',#796);
#249=VERTEX_POINT('',#798);
#250=VERTEX_POINT('',#800);
#251=VERTEX_POINT('',#804);
#252=VERTEX_POINT('',#809);
#253=VERTEX_POINT('',#813);
#254=VERTEX_POINT('',#818);
#255=VERTEX_POINT('',#823);
#256=VERTEX_POINT('',#833);
#257=EDGE_CURVE('',#219,#220,#195,.F.);
#258=EDGE_CURVE('',#221,#219,#196,.F.);
#259=EDGE_CURVE('',#220,#221,#197,.F.);
#260=EDGE_CURVE('',#222,#223,#198,.F.);
#261=EDGE_CURVE('',#224,#222,#199,.F.);
#262=EDGE_CURVE('',#223,#224,#200,.F.);
#263=EDGE_CURVE('',#221,#224,#36,.T.);
#264=EDGE_CURVE('',#222,#220,#37,.T.);
#265=EDGE_CURVE('',#225,#226,#201,.F.);
#266=EDGE_CURVE('',#227,#225,#202,.F.);
#267=EDGE_CURVE('',#226,#227,#203,.F.);
#268=EDGE_CURVE('',#228,#229,#204,.F.);
#269=EDGE_CURVE('',#230,#228,#205,.F.);
#270=EDGE_CURVE('',#229,#230,#206,.F.);
#271=EDGE_CURVE('',#228,#227,#38,.T.);
#272=EDGE_CURVE('',#225,#230,#39,.T.);
#273=EDGE_CURVE('',#231,#232,#207,.T.);
#274=EDGE_CURVE('',#232,#229,#40,.T.);
#275=EDGE_CURVE('',#230,#231,#41,.T.);
#276=EDGE_CURVE('',#224,#228,#42,.T.);
#277=EDGE_CURVE('',#229,#223,#43,.T.);
#278=EDGE_CURVE('',#227,#221,#44,.T.);
#279=EDGE_CURVE('',#219,#226,#45,.T.);
#280=EDGE_CURVE('',#233,#234,#208,.T.);
#281=EDGE_CURVE('',#234,#225,#46,.T.);
#282=EDGE_CURVE('',#226,#233,#47,.T.);
#283=EDGE_CURVE('',#235,#236,#209,.T.);
#284=EDGE_CURVE('',#236,#222,#48,.T.);
#285=EDGE_CURVE('',#223,#235,#49,.T.);
#286=EDGE_CURVE('',#237,#238,#210,.T.);
#287=EDGE_CURVE('',#238,#219,#50,.T.);
#288=EDGE_CURVE('',#220,#237,#51,.T.);
#289=EDGE_CURVE('',#231,#234,#52,.T.);
#290=EDGE_CURVE('',#233,#238,#53,.T.);
#291=EDGE_CURVE('',#237,#236,#54,.T.);
#292=EDGE_CURVE('',#235,#232,#55,.T.);
#293=EDGE_CURVE('',#239,#239,#211,.T.);
#294=EDGE_CURVE('',#240,#241,#56,.T.);
#295=EDGE_CURVE('',#241,#242,#57,.T.);
#296=EDGE_CURVE('',#242,#243,#58,.T.);
#297=EDGE_CURVE('',#243,#240,#59,.T.);
#298=EDGE_CURVE('',#244,#244,#212,.T.);
#299=EDGE_CURVE('',#245,#245,#213,.T.);
#300=EDGE_CURVE('',#246,#246,#214,.T.);
#301=EDGE_CURVE('',#247,#248,#60,.T.);
#302=EDGE_CURVE('',#249,#247,#61,.T.);
#303=EDGE_CURVE('',#250,#249,#62,.T.);
#304=EDGE_CURVE('',#248,#250,#63,.T.);
#305=EDGE_CURVE('',#251,#249,#64,.T.);
#306=EDGE_CURVE('',#241,#251,#65,.T.);
#307=EDGE_CURVE('',#240,#250,#66,.T.);
#308=EDGE_CURVE('',#247,#252,#67,.T.);
#309=EDGE_CURVE('',#252,#251,#68,.T.);
#310=EDGE_CURVE('',#253,#253,#215,.T.);
#311=EDGE_CURVE('',#253,#246,#69,.T.);
#312=EDGE_CURVE('',#254,#254,#216,.T.);
#313=EDGE_CURVE('',#254,#245,#70,.T.);
#314=EDGE_CURVE('',#255,#255,#217,.T.);
#315=EDGE_CURVE('',#255,#244,#71,.T.);
#316=EDGE_CURVE('',#242,#252,#72,.T.);
#317=EDGE_CURVE('',#243,#248,#73,.T.);
#318=EDGE_CURVE('',#256,#256,#218,.T.);
#319=EDGE_CURVE('',#256,#239,#74,.T.);
#320=ORIENTED_EDGE('',*,*,#257,.F.);
#321=ORIENTED_EDGE('',*,*,#258,.F.);
#322=ORIENTED_EDGE('',*,*,#259,.F.);
#323=ORIENTED_EDGE('',*,*,#260,.F.);
#324=ORIENTED_EDGE('',*,*,#261,.F.);
#325=ORIENTED_EDGE('',*,*,#262,.F.);
#326=ORIENTED_EDGE('',*,*,#259,.T.);
#327=ORIENTED_EDGE('',*,*,#263,.T.);
#328=ORIENTED_EDGE('',*,*,#261,.T.);
#329=ORIENTED_EDGE('',*,*,#264,.T.);
#330=ORIENTED_EDGE('',*,*,#265,.F.);
#331=ORIENTED_EDGE('',*,*,#266,.F.);
#332=ORIENTED_EDGE('',*,*,#267,.F.);
#333=ORIENTED_EDGE('',*,*,#268,.F.);
#334=ORIENTED_EDGE('',*,*,#269,.F.);
#335=ORIENTED_EDGE('',*,*,#270,.F.);
#336=ORIENTED_EDGE('',*,*,#269,.T.);
#337=ORIENTED_EDGE('',*,*,#271,.T.);
#338=ORIENTED_EDGE('',*,*,#266,.T.);
#339=ORIENTED_EDGE('',*,*,#272,.T.);
#340=ORIENTED_EDGE('',*,*,#273,.T.);
#341=ORIENTED_EDGE('',*,*,#274,.T.);
#342=ORIENTED_EDGE('',*,*,#270,.T.);
#343=ORIENTED_EDGE('',*,*,#275,.T.);
#344=ORIENTED_EDGE('',*,*,#262,.T.);
#345=ORIENTED_EDGE('',*,*,#276,.T.);
#346=ORIENTED_EDGE('',*,*,#268,.T.);
#347=ORIENTED_EDGE('',*,*,#277,.T.);
#348=ORIENTED_EDGE('',*,*,#267,.T.);
#349=ORIENTED_EDGE('',*,*,#278,.T.);
#350=ORIENTED_EDGE('',*,*,#258,.T.);
#351=ORIENTED_EDGE('',*,*,#279,.T.);
#352=ORIENTED_EDGE('',*,*,#280,.T.);
#353=ORIENTED_EDGE('',*,*,#281,.T.);
#354=ORIENTED_EDGE('',*,*,#265,.T.);
#355=ORIENTED_EDGE('',*,*,#282,.T.);
#356=ORIENTED_EDGE('',*,*,#283,.T.);
#357=ORIENTED_EDGE('',*,*,#284,.T.);
#358=ORIENTED_EDGE('',*,*,#260,.T.);
#359=ORIENTED_EDGE('',*,*,#285,.T.);
#360=ORIENTED_EDGE('',*,*,#286,.T.);
#361=ORIENTED_EDGE('',*,*,#287,.T.);
#362=ORIENTED_EDGE('',*,*,#257,.T.);
#363=ORIENTED_EDGE('',*,*,#288,.T.);
#364=ORIENTED_EDGE('',*,*,#275,.F.);
#365=ORIENTED_EDGE('',*,*,#272,.F.);
#366=ORIENTED_EDGE('',*,*,#281,.F.);
#367=ORIENTED_EDGE('',*,*,#289,.F.);
#368=ORIENTED_EDGE('',*,*,#273,.F.);
#369=ORIENTED_EDGE('',*,*,#289,.T.);
#370=ORIENTED_EDGE('',*,*,#280,.F.);
#371=ORIENTED_EDGE('',*,*,#290,.T.);
#372=ORIENTED_EDGE('',*,*,#286,.F.);
#373=ORIENTED_EDGE('',*,*,#291,.T.);
#374=ORIENTED_EDGE('',*,*,#283,.F.);
#375=ORIENTED_EDGE('',*,*,#292,.T.);
#376=ORIENTED_EDGE('',*,*,#293,.T.);
#377=ORIENTED_EDGE('',*,*,#294,.T.);
#378=ORIENTED_EDGE('',*,*,#295,.T.);
#379=ORIENTED_EDGE('',*,*,#296,.T.);
#380=ORIENTED_EDGE('',*,*,#297,.T.);
#381=ORIENTED_EDGE('',*,*,#298,.T.);
#382=ORIENTED_EDGE('',*,*,#299,.T.);
#383=ORIENTED_EDGE('',*,*,#300,.T.);
#384=ORIENTED_EDGE('',*,*,#282,.F.);
#385=ORIENTED_EDGE('',*,*,#279,.F.);
#386=ORIENTED_EDGE('',*,*,#287,.F.);
#387=ORIENTED_EDGE('',*,*,#290,.F.);
#388=ORIENTED_EDGE('',*,*,#271,.F.);
#389=ORIENTED_EDGE('',*,*,#276,.F.);
#390=ORIENTED_EDGE('',*,*,#263,.F.);
#391=ORIENTED_EDGE('',*,*,#278,.F.);
#392=ORIENTED_EDGE('',*,*,#301,.F.);
#393=ORIENTED_EDGE('',*,*,#302,.F.);
#394=ORIENTED_EDGE('',*,*,#303,.F.);
#395=ORIENTED_EDGE('',*,*,#304,.F.);
#396=ORIENTED_EDGE('',*,*,#303,.T.);
#397=ORIENTED_EDGE('',*,*,#305,.F.);
#398=ORIENTED_EDGE('',*,*,#306,.F.);
#399=ORIENTED_EDGE('',*,*,#294,.F.);
#400=ORIENTED_EDGE('',*,*,#307,.T.);
#401=ORIENTED_EDGE('',*,*,#302,.T.);
#402=ORIENTED_EDGE('',*,*,#308,.T.);
#403=ORIENTED_EDGE('',*,*,#309,.T.);
#404=ORIENTED_EDGE('',*,*,#305,.T.);
#405=ORIENTED_EDGE('',*,*,#310,.F.);
#406=ORIENTED_EDGE('',*,*,#311,.T.);
#407=ORIENTED_EDGE('',*,*,#300,.F.);
#408=ORIENTED_EDGE('',*,*,#311,.F.);
#409=ORIENTED_EDGE('',*,*,#310,.T.);
#410=ORIENTED_EDGE('',*,*,#312,.F.);
#411=ORIENTED_EDGE('',*,*,#313,.T.);
#412=ORIENTED_EDGE('',*,*,#299,.F.);
#413=ORIENTED_EDGE('',*,*,#313,.F.);
#414=ORIENTED_EDGE('',*,*,#312,.T.);
#415=ORIENTED_EDGE('',*,*,#314,.F.);
#416=ORIENTED_EDGE('',*,*,#315,.T.);
#417=ORIENTED_EDGE('',*,*,#298,.F.);
#418=ORIENTED_EDGE('',*,*,#315,.F.);
#419=ORIENTED_EDGE('',*,*,#314,.T.);
#420=ORIENTED_EDGE('',*,*,#295,.F.);
#421=ORIENTED_EDGE('',*,*,#306,.T.);
#422=ORIENTED_EDGE('',*,*,#309,.F.);
#423=ORIENTED_EDGE('',*,*,#316,.F.);
#424=ORIENTED_EDGE('',*,*,#301,.T.);
#425=ORIENTED_EDGE('',*,*,#317,.F.);
#426=ORIENTED_EDGE('',*,*,#296,.F.);
#427=ORIENTED_EDGE('',*,*,#316,.T.);
#428=ORIENTED_EDGE('',*,*,#308,.F.);
#429=ORIENTED_EDGE('',*,*,#304,.T.);
#430=ORIENTED_EDGE('',*,*,#307,.F.);
#431=ORIENTED_EDGE('',*,*,#297,.F.);
#432=ORIENTED_EDGE('',*,*,#317,.T.);
#433=ORIENTED_EDGE('',*,*,#318,.F.);
#434=ORIENTED_EDGE('',*,*,#319,.T.);
#435=ORIENTED_EDGE('',*,*,#293,.F.);
#436=ORIENTED_EDGE('',*,*,#319,.F.);
#437=ORIENTED_EDGE('',*,*,#318,.T.);
#438=ORIENTED_EDGE('',*,*,#274,.F.);
#439=ORIENTED_EDGE('',*,*,#292,.F.);
#440=ORIENTED_EDGE('',*,*,#285,.F.);
#441=ORIENTED_EDGE('',*,*,#277,.F.);
#442=ORIENTED_EDGE('',*,*,#284,.F.);
#443=ORIENTED_EDGE('',*,*,#291,.F.);
#444=ORIENTED_EDGE('',*,*,#288,.F.);
#445=ORIENTED_EDGE('',*,*,#264,.F.);
#446=SPHERICAL_SURFACE('',#496,0.255);
#447=SPHERICAL_SURFACE('',#500,0.255);
#448=SPHERICAL_SURFACE('',#505,0.255);
#449=SPHERICAL_SURFACE('',#509,0.255000000000001);
#450=ADVANCED_FACE('',(#126),#446,.T.);
#451=ADVANCED_FACE('',(#127),#447,.T.);
#452=ADVANCED_FACE('',(#128),#114,.T.);
#453=ADVANCED_FACE('',(#129),#448,.T.);
#454=ADVANCED_FACE('',(#130),#449,.T.);
#455=ADVANCED_FACE('',(#131),#115,.T.);
#456=ADVANCED_FACE('',(#132),#116,.T.);
#457=ADVANCED_FACE('',(#133),#117,.T.);
#458=ADVANCED_FACE('',(#134),#118,.T.);
#459=ADVANCED_FACE('',(#135),#119,.T.);
#460=ADVANCED_FACE('',(#136),#120,.T.);
#461=ADVANCED_FACE('',(#137),#121,.T.);
#462=ADVANCED_FACE('',(#138),#20,.T.);
#463=ADVANCED_FACE('',(#139,#15,#16,#17,#18,#19),#21,.T.);
#464=ADVANCED_FACE('',(#140),#22,.T.);
#465=ADVANCED_FACE('',(#141),#23,.F.);
#466=ADVANCED_FACE('',(#142),#24,.F.);
#467=ADVANCED_FACE('',(#143),#25,.T.);
#468=ADVANCED_FACE('',(#144),#26,.T.);
#469=ADVANCED_FACE('',(#145),#122,.T.);
#470=ADVANCED_FACE('',(#146),#27,.T.);
#471=ADVANCED_FACE('',(#147),#123,.T.);
#472=ADVANCED_FACE('',(#148),#28,.T.);
#473=ADVANCED_FACE('',(#149),#124,.T.);
#474=ADVANCED_FACE('',(#150),#29,.T.);
#475=ADVANCED_FACE('',(#151),#30,.T.);
#476=ADVANCED_FACE('',(#152),#31,.T.);
#477=ADVANCED_FACE('',(#153),#32,.T.);
#478=ADVANCED_FACE('',(#154),#125,.T.);
#479=ADVANCED_FACE('',(#155),#33,.T.);
#480=ADVANCED_FACE('',(#156),#34,.T.);
#481=ADVANCED_FACE('',(#157),#35,.T.);
#482=CLOSED_SHELL('',(#450,#451,#452,#453,#454,#455,#456,#457,#458,#459,
#460,#461,#462,#463,#464,#465,#466,#467,#468,#469,#470,#471,#472,#473,#474,
#475,#476,#477,#478,#479,#480,#481));
#483=DERIVED_UNIT_ELEMENT(#485,1.);
#484=DERIVED_UNIT_ELEMENT(#844,-3.);
#485=(
MASS_UNIT()
NAMED_UNIT(*)
SI_UNIT(.KILO.,.GRAM.)
);
#486=DERIVED_UNIT((#483,#484));
#487=MEASURE_REPRESENTATION_ITEM('density measure',
POSITIVE_RATIO_MEASURE(7850.),#486);
#488=PROPERTY_DEFINITION_REPRESENTATION(#493,#490);
#489=PROPERTY_DEFINITION_REPRESENTATION(#494,#491);
#490=REPRESENTATION('material name',(#492),#841);
#491=REPRESENTATION('density',(#487),#841);
#492=DESCRIPTIVE_REPRESENTATION_ITEM('Steel','Steel');
#493=PROPERTY_DEFINITION('material property','material name',#851);
#494=PROPERTY_DEFINITION('material property','density of part',#851);
#495=AXIS2_PLACEMENT_3D('placement',#705,#552,#553);
#496=AXIS2_PLACEMENT_3D('',#706,#554,#555);
#497=AXIS2_PLACEMENT_3D('',#709,#556,#557);
#498=AXIS2_PLACEMENT_3D('',#711,#558,#559);
#499=AXIS2_PLACEMENT_3D('',#712,#560,#561);
#500=AXIS2_PLACEMENT_3D('',#713,#562,#563);
#501=AXIS2_PLACEMENT_3D('',#716,#564,#565);
#502=AXIS2_PLACEMENT_3D('',#718,#566,#567);
#503=AXIS2_PLACEMENT_3D('',#719,#568,#569);
#504=AXIS2_PLACEMENT_3D('',#720,#570,#571);
#505=AXIS2_PLACEMENT_3D('',#723,#574,#575);
#506=AXIS2_PLACEMENT_3D('',#726,#576,#577);
#507=AXIS2_PLACEMENT_3D('',#728,#578,#579);
#508=AXIS2_PLACEMENT_3D('',#729,#580,#581);
#509=AXIS2_PLACEMENT_3D('',#730,#582,#583);
#510=AXIS2_PLACEMENT_3D('',#733,#584,#585);
#511=AXIS2_PLACEMENT_3D('',#735,#586,#587);
#512=AXIS2_PLACEMENT_3D('',#736,#588,#589);
#513=AXIS2_PLACEMENT_3D('',#737,#590,#591);
#514=AXIS2_PLACEMENT_3D('',#740,#594,#595);
#515=AXIS2_PLACEMENT_3D('',#743,#596,#597);
#516=AXIS2_PLACEMENT_3D('',#746,#600,#601);
#517=AXIS2_PLACEMENT_3D('',#749,#604,#605);
#518=AXIS2_PLACEMENT_3D('',#752,#608,#609);
#519=AXIS2_PLACEMENT_3D('',#755,#610,#611);
#520=AXIS2_PLACEMENT_3D('',#758,#614,#615);
#521=AXIS2_PLACEMENT_3D('',#761,#616,#617);
#522=AXIS2_PLACEMENT_3D('',#764,#620,#621);
#523=AXIS2_PLACEMENT_3D('',#767,#622,#623);
#524=AXIS2_PLACEMENT_3D('',#770,#626,#627);
#525=AXIS2_PLACEMENT_3D('',#772,#629,#630);
#526=AXIS2_PLACEMENT_3D('',#777,#634,#635);
#527=AXIS2_PLACEMENT_3D('',#787,#640,#641);
#528=AXIS2_PLACEMENT_3D('',#789,#642,#643);
#529=AXIS2_PLACEMENT_3D('',#791,#644,#645);
#530=AXIS2_PLACEMENT_3D('',#792,#646,#647);
#531=AXIS2_PLACEMENT_3D('',#793,#648,#649);
#532=AXIS2_PLACEMENT_3D('',#794,#650,#651);
#533=AXIS2_PLACEMENT_3D('',#803,#656,#657);
#534=AXIS2_PLACEMENT_3D('',#808,#661,#662);
#535=AXIS2_PLACEMENT_3D('',#812,#665,#666);
#536=AXIS2_PLACEMENT_3D('',#814,#667,#668);
#537=AXIS2_PLACEMENT_3D('',#816,#670,#671);
#538=AXIS2_PLACEMENT_3D('',#817,#672,#673);
#539=AXIS2_PLACEMENT_3D('',#819,#674,#675);
#540=AXIS2_PLACEMENT_3D('',#821,#677,#678);
#541=AXIS2_PLACEMENT_3D('',#822,#679,#680);
#542=AXIS2_PLACEMENT_3D('',#824,#681,#682);
#543=AXIS2_PLACEMENT_3D('',#826,#684,#685);
#544=AXIS2_PLACEMENT_3D('',#827,#686,#687);
#545=AXIS2_PLACEMENT_3D('',#829,#689,#690);
#546=AXIS2_PLACEMENT_3D('',#831,#692,#693);
#547=AXIS2_PLACEMENT_3D('',#832,#694,#695);
#548=AXIS2_PLACEMENT_3D('',#834,#696,#697);
#549=AXIS2_PLACEMENT_3D('',#836,#699,#700);
#550=AXIS2_PLACEMENT_3D('',#837,#701,#702);
#551=AXIS2_PLACEMENT_3D('',#838,#703,#704);
#552=DIRECTION('axis',(0.,0.,1.));
#553=DIRECTION('refdir',(1.,0.,0.));
#554=DIRECTION('center_axis',(-0.816496580927728,0.408248290463864,-0.408248290463858));
#555=DIRECTION('ref_axis',(0.577350269189626,0.57735026918963,-0.577350269189622));
#556=DIRECTION('center_axis',(0.,0.,-1.));
#557=DIRECTION('ref_axis',(1.,0.,0.));
#558=DIRECTION('center_axis',(-8.70763156568747E-15,1.,0.));
#559=DIRECTION('ref_axis',(0.,0.,-1.));
#560=DIRECTION('center_axis',(1.,0.,0.));
#561=DIRECTION('ref_axis',(0.,1.,0.));
#562=DIRECTION('center_axis',(0.408248290463863,-0.408248290463858,-0.816496580927728));
#563=DIRECTION('ref_axis',(-0.577350269189631,0.577350269189624,-0.577350269189623));
#564=DIRECTION('center_axis',(0.,0.,-1.));
#565=DIRECTION('ref_axis',(0.,1.,0.));
#566=DIRECTION('center_axis',(-1.,-8.70763156568749E-15,0.));
#567=DIRECTION('ref_axis',(0.,0.,-1.));
#568=DIRECTION('center_axis',(0.,1.,0.));
#569=DIRECTION('ref_axis',(-1.,0.,0.));
#570=DIRECTION('center_axis',(1.,0.,0.));
#571=DIRECTION('ref_axis',(0.,0.707106781186548,-0.707106781186547));
#572=DIRECTION('',(-1.,0.,0.));
#573=DIRECTION('',(1.,0.,0.));
#574=DIRECTION('center_axis',(-0.816496580927725,-0.408248290463866,-0.408248290463861));
#575=DIRECTION('ref_axis',(0.577350269189629,-0.577350269189622,-0.577350269189627));
#576=DIRECTION('center_axis',(0.,0.,-1.));
#577=DIRECTION('ref_axis',(0.,-1.,0.));
#578=DIRECTION('center_axis',(1.,0.,0.));
#579=DIRECTION('ref_axis',(0.,0.,-1.));
#580=DIRECTION('center_axis',(0.,-1.,0.));
#581=DIRECTION('ref_axis',(1.,0.,0.));
#582=DIRECTION('center_axis',(-0.816496580927725,0.408248290463866,0.408248290463862));
#583=DIRECTION('ref_axis',(-0.577350269189624,-0.57735026918963,-0.577350269189623));
#584=DIRECTION('center_axis',(0.,-1.,0.));
#585=DIRECTION('ref_axis',(0.,0.,-1.));
#586=DIRECTION('center_axis',(-1.,0.,0.));
#587=DIRECTION('ref_axis',(0.,-1.,0.));
#588=DIRECTION('center_axis',(0.,0.,-1.));
#589=DIRECTION('ref_axis',(-1.,0.,0.));
#590=DIRECTION('center_axis',(-1.,0.,0.));
#591=DIRECTION('ref_axis',(0.,-0.707106781186549,-0.707106781186546));
#592=DIRECTION('',(1.,0.,0.));
#593=DIRECTION('',(-1.,0.,0.));
#594=DIRECTION('center_axis',(0.,0.,1.));
#595=DIRECTION('ref_axis',(-0.707106781186546,-0.707106781186549,0.));
#596=DIRECTION('center_axis',(0.,0.,-1.));
#597=DIRECTION('ref_axis',(-0.707106781186546,-0.707106781186549,0.));
#598=DIRECTION('',(0.,0.,-1.));
#599=DIRECTION('',(0.,0.,1.));
#600=DIRECTION('center_axis',(0.,1.,0.));
#601=DIRECTION('ref_axis',(-0.707106781186548,0.,-0.707106781186547));
#602=DIRECTION('',(0.,-1.,0.));
#603=DIRECTION('',(0.,1.,0.));
#604=DIRECTION('center_axis',(0.,-1.,0.));
#605=DIRECTION('ref_axis',(0.707106781186549,0.,-0.707106781186546));
#606=DIRECTION('',(0.,1.,0.));
#607=DIRECTION('',(0.,-1.,0.));
#608=DIRECTION('center_axis',(0.,0.,1.));
#609=DIRECTION('ref_axis',(0.707106781186548,-0.707106781186548,0.));
#610=DIRECTION('center_axis',(0.,0.,-1.));
#611=DIRECTION('ref_axis',(0.707106781186548,-0.707106781186548,0.));
#612=DIRECTION('',(0.,0.,-1.));
#613=DIRECTION('',(0.,0.,1.));
#614=DIRECTION('center_axis',(0.,0.,1.));
#615=DIRECTION('ref_axis',(-0.707106781186547,0.707106781186548,0.));
#616=DIRECTION('center_axis',(0.,0.,-1.));
#617=DIRECTION('ref_axis',(-0.707106781186547,0.707106781186548,0.));
#618=DIRECTION('',(0.,0.,-1.));
#619=DIRECTION('',(0.,0.,1.));
#620=DIRECTION('center_axis',(0.,0.,1.));
#621=DIRECTION('ref_axis',(0.707106781186549,0.707106781186546,0.));
#622=DIRECTION('center_axis',(0.,0.,-1.));
#623=DIRECTION('ref_axis',(0.707106781186549,0.707106781186546,0.));
#624=DIRECTION('',(0.,0.,-1.));
#625=DIRECTION('',(0.,0.,1.));
#626=DIRECTION('center_axis',(0.,-1.,0.));
#627=DIRECTION('ref_axis',(1.,0.,0.));
#628=DIRECTION('',(1.,0.,0.));
#629=DIRECTION('center_axis',(0.,0.,1.));
#630=DIRECTION('ref_axis',(1.,0.,0.));
#631=DIRECTION('',(0.,1.,0.));
#632=DIRECTION('',(-1.,0.,0.));
#633=DIRECTION('',(0.,-1.,0.));
#634=DIRECTION('center_axis',(0.,0.,-1.));
#635=DIRECTION('ref_axis',(-1.,0.,0.));
#636=DIRECTION('',(1.,0.,0.));
#637=DIRECTION('',(0.,-1.,0.));
#638=DIRECTION('',(-1.,0.,0.));
#639=DIRECTION('',(0.,1.,0.));
#640=DIRECTION('center_axis',(0.,0.,-1.));
#641=DIRECTION('ref_axis',(-1.,0.,0.));
#642=DIRECTION('center_axis',(0.,0.,-1.));
#643=DIRECTION('ref_axis',(-1.,0.,0.));
#644=DIRECTION('center_axis',(0.,0.,-1.));
#645=DIRECTION('ref_axis',(-1.,0.,0.));
#646=DIRECTION('center_axis',(1.,0.,0.));
#647=DIRECTION('ref_axis',(0.,1.,0.));
#648=DIRECTION('center_axis',(0.,0.,1.));
#649=DIRECTION('ref_axis',(1.,0.,0.));
#650=DIRECTION('center_axis',(0.948683298050514,0.,-0.316227766016838));
#651=DIRECTION('ref_axis',(-0.316227766016838,0.,-0.948683298050514));
#652=DIRECTION('',(-0.316227766016838,0.,-0.948683298050514));
#653=DIRECTION('',(0.,-1.,0.));
#654=DIRECTION('',(0.316227766016838,0.,0.948683298050514));
#655=DIRECTION('',(0.,1.,0.));
#656=DIRECTION('center_axis',(0.,1.,0.));
#657=DIRECTION('ref_axis',(-1.,0.,0.));
#658=DIRECTION('',(-1.,0.,0.));
#659=DIRECTION('',(0.,0.,1.));
#660=DIRECTION('',(0.,0.,1.));
#661=DIRECTION('center_axis',(0.,0.,1.));
#662=DIRECTION('ref_axis',(1.,0.,0.));
#663=DIRECTION('',(1.,0.,0.));
#664=DIRECTION('',(0.,1.,0.));
#665=DIRECTION('center_axis',(0.,0.,1.));
#666=DIRECTION('ref_axis',(-1.,0.,0.));
#667=DIRECTION('center_axis',(0.,0.,1.));
#668=DIRECTION('ref_axis',(-1.,0.,0.));
#669=DIRECTION('',(0.,0.,-1.));
#670=DIRECTION('center_axis',(0.,0.,1.));
#671=DIRECTION('ref_axis',(-1.,0.,0.));
#672=DIRECTION('center_axis',(0.,0.,1.));
#673=DIRECTION('ref_axis',(-1.,0.,0.));
#674=DIRECTION('center_axis',(0.,0.,1.));
#675=DIRECTION('ref_axis',(-1.,0.,0.));
#676=DIRECTION('',(0.,0.,-1.));
#677=DIRECTION('center_axis',(0.,0.,1.));
#678=DIRECTION('ref_axis',(-1.,0.,0.));
#679=DIRECTION('center_axis',(0.,0.,1.));
#680=DIRECTION('ref_axis',(-1.,0.,0.));
#681=DIRECTION('center_axis',(0.,0.,1.));
#682=DIRECTION('ref_axis',(-1.,0.,0.));
#683=DIRECTION('',(0.,0.,-1.));
#684=DIRECTION('center_axis',(0.,0.,1.));
#685=DIRECTION('ref_axis',(-1.,0.,0.));
#686=DIRECTION('center_axis',(1.,0.,0.));
#687=DIRECTION('ref_axis',(0.,1.,0.));
#688=DIRECTION('',(0.,0.,1.));
#689=DIRECTION('center_axis',(0.,-1.,0.));
#690=DIRECTION('ref_axis',(1.,0.,0.));
#691=DIRECTION('',(0.,0.,1.));
#692=DIRECTION('center_axis',(-1.,0.,0.));
#693=DIRECTION('ref_axis',(0.,-1.,0.));
#694=DIRECTION('center_axis',(0.,0.,1.));
#695=DIRECTION('ref_axis',(-1.,0.,0.));
#696=DIRECTION('center_axis',(0.,0.,1.));
#697=DIRECTION('ref_axis',(-1.,0.,0.));
#698=DIRECTION('',(0.,0.,-1.));
#699=DIRECTION('center_axis',(0.,0.,1.));
#700=DIRECTION('ref_axis',(-1.,0.,0.));
#701=DIRECTION('center_axis',(-1.,0.,0.));
#702=DIRECTION('ref_axis',(0.,-1.,0.));
#703=DIRECTION('center_axis',(0.,1.,0.));
#704=DIRECTION('ref_axis',(-1.,0.,0.));
#705=CARTESIAN_POINT('',(0.,0.,0.));
#706=CARTESIAN_POINT('Origin',(15.145,-0.255000000000001,0.255));
#707=CARTESIAN_POINT('',(15.4,-0.254999999999999,0.255));
#708=CARTESIAN_POINT('',(15.145,0.,0.255));
#709=CARTESIAN_POINT('Origin',(15.145,-0.255,0.255));
#710=CARTESIAN_POINT('',(15.145,-0.255,0.));
#711=CARTESIAN_POINT('Origin',(15.145,-0.255000000000001,0.255));
#712=CARTESIAN_POINT('Origin',(15.145,-0.255,0.255));
#713=CARTESIAN_POINT('Origin',(0.255000000000001,-0.255,0.255));
#714=CARTESIAN_POINT('',(0.254999999999999,0.,0.255));
#715=CARTESIAN_POINT('',(0.,-0.255,0.255));
#716=CARTESIAN_POINT('Origin',(0.255,-0.255,0.255));
#717=CARTESIAN_POINT('',(0.255,-0.255,0.));
#718=CARTESIAN_POINT('Origin',(0.255000000000001,-0.255,0.255));
#719=CARTESIAN_POINT('Origin',(0.255,-0.255,0.255));
#720=CARTESIAN_POINT('Origin',(11.55,-0.255,0.255));
#721=CARTESIAN_POINT('',(11.55,-0.255,0.));
#722=CARTESIAN_POINT('',(11.55,0.,0.255));
#723=CARTESIAN_POINT('Origin',(15.145,-18.745,0.255));
#724=CARTESIAN_POINT('',(15.145,-19.,0.255));
#725=CARTESIAN_POINT('',(15.4,-18.745,0.255));
#726=CARTESIAN_POINT('Origin',(15.145,-18.745,0.255));
#727=CARTESIAN_POINT('',(15.145,-18.745,0.));
#728=CARTESIAN_POINT('Origin',(15.145,-18.745,0.255));
#729=CARTESIAN_POINT('Origin',(15.145,-18.745,0.255));
#730=CARTESIAN_POINT('Origin',(0.255,-18.745,0.255));
#731=CARTESIAN_POINT('',(0.255,-18.745,0.));
#732=CARTESIAN_POINT('',(0.,-18.745,0.255));
#733=CARTESIAN_POINT('Origin',(0.255,-18.745,0.255));
#734=CARTESIAN_POINT('',(0.255,-19.,0.255));
#735=CARTESIAN_POINT('Origin',(0.255,-18.745,0.255));
#736=CARTESIAN_POINT('Origin',(0.255,-18.745,0.255));
#737=CARTESIAN_POINT('Origin',(3.85,-18.745,0.255));
#738=CARTESIAN_POINT('',(3.85,-18.745,0.));
#739=CARTESIAN_POINT('',(3.85,-19.,0.255));
#740=CARTESIAN_POINT('Origin',(0.255,-18.745,0.));
#741=CARTESIAN_POINT('',(0.255000000000001,-19.,15.5));
#742=CARTESIAN_POINT('',(0.,-18.745,15.5));
#743=CARTESIAN_POINT('Origin',(0.255,-18.745,15.5));
#744=CARTESIAN_POINT('',(0.,-18.745,0.));
#745=CARTESIAN_POINT('',(0.255,-19.,0.));
#746=CARTESIAN_POINT('Origin',(0.255,-4.75,0.255));
#747=CARTESIAN_POINT('',(0.255,-4.75,0.));
#748=CARTESIAN_POINT('',(0.,-4.75,0.255));
#749=CARTESIAN_POINT('Origin',(15.145,-14.25,0.255));
#750=CARTESIAN_POINT('',(15.145,-14.25,0.));
#751=CARTESIAN_POINT('',(15.4,-14.25,0.255));
#752=CARTESIAN_POINT('Origin',(15.145,-18.745,0.));
#753=CARTESIAN_POINT('',(15.4,-18.745,15.5));
#754=CARTESIAN_POINT('',(15.145,-19.,15.5));
#755=CARTESIAN_POINT('Origin',(15.145,-18.745,15.5));
#756=CARTESIAN_POINT('',(15.145,-19.,0.));
#757=CARTESIAN_POINT('',(15.4,-18.745,0.));
#758=CARTESIAN_POINT('Origin',(0.255,-0.255,0.));
#759=CARTESIAN_POINT('',(0.,-0.255000000000001,15.5));
#760=CARTESIAN_POINT('',(0.255,0.,15.5));
#761=CARTESIAN_POINT('Origin',(0.255,-0.255,15.5));
#762=CARTESIAN_POINT('',(0.255,0.,0.));
#763=CARTESIAN_POINT('',(0.,-0.255,0.));
#764=CARTESIAN_POINT('Origin',(15.145,-0.255,0.));
#765=CARTESIAN_POINT('',(15.145,0.,15.5));
#766=CARTESIAN_POINT('',(15.4,-0.255,15.5));
#767=CARTESIAN_POINT('Origin',(15.145,-0.255,15.5));
#768=CARTESIAN_POINT('',(15.4,-0.255,0.));
#769=CARTESIAN_POINT('',(15.145,0.,0.));
#770=CARTESIAN_POINT('Origin',(0.,-19.,0.));
#771=CARTESIAN_POINT('',(15.4,-19.,15.5));
#772=CARTESIAN_POINT('Origin',(7.7,-9.5,15.5));
#773=CARTESIAN_POINT('',(15.4,0.,15.5));
#774=CARTESIAN_POINT('',(0.,0.,15.5));
#775=CARTESIAN_POINT('',(0.,-19.,15.5));
#776=CARTESIAN_POINT('',(1.975,-15.6,15.5));
#777=CARTESIAN_POINT('Origin',(1.7,-15.6,15.5));
#778=CARTESIAN_POINT('',(7.2,-17.45,15.5));
#779=CARTESIAN_POINT('',(8.2,-17.45,15.5));
#780=CARTESIAN_POINT('',(7.95,-17.45,15.5));
#781=CARTESIAN_POINT('',(8.2,-17.75,15.5));
#782=CARTESIAN_POINT('',(8.2,-13.625,15.5));
#783=CARTESIAN_POINT('',(7.2,-17.75,15.5));
#784=CARTESIAN_POINT('',(7.45,-17.75,15.5));
#785=CARTESIAN_POINT('',(7.2,-13.475,15.5));
#786=CARTESIAN_POINT('',(14.2,-3.4,15.5));
#787=CARTESIAN_POINT('Origin',(13.7,-3.4,15.5));
#788=CARTESIAN_POINT('',(13.95,-15.6,15.5));
#789=CARTESIAN_POINT('Origin',(13.7,-15.6,15.5));
#790=CARTESIAN_POINT('',(2.2,-3.4,15.5));
#791=CARTESIAN_POINT('Origin',(1.7,-3.4,15.5));
#792=CARTESIAN_POINT('Origin',(15.4,-19.,0.));
#793=CARTESIAN_POINT('Origin',(7.7,-9.5,0.));
#794=CARTESIAN_POINT('Origin',(7.7,-17.75,20.));
#795=CARTESIAN_POINT('',(7.7,-17.75,20.));
#796=CARTESIAN_POINT('',(7.2,-17.75,18.5));
#797=CARTESIAN_POINT('',(7.,-17.75,17.9));
#798=CARTESIAN_POINT('',(7.7,-17.45,20.));
#799=CARTESIAN_POINT('',(7.7,-17.675,20.));
#800=CARTESIAN_POINT('',(7.2,-17.45,18.5));
#801=CARTESIAN_POINT('',(7.05,-17.45,18.05));
#802=CARTESIAN_POINT('',(7.2,-17.6,18.5));
#803=CARTESIAN_POINT('Origin',(8.2,-17.45,15.5));
#804=CARTESIAN_POINT('',(8.2,-17.45,20.));
#805=CARTESIAN_POINT('',(8.2,-17.45,20.));
#806=CARTESIAN_POINT('',(8.2,-17.45,15.5));
#807=CARTESIAN_POINT('',(7.2,-17.45,15.5));
#808=CARTESIAN_POINT('Origin',(7.7,-17.6,20.));
#809=CARTESIAN_POINT('',(8.2,-17.75,20.));
#810=CARTESIAN_POINT('',(7.2,-17.75,20.));
#811=CARTESIAN_POINT('',(8.2,-17.75,20.));
#812=CARTESIAN_POINT('Origin',(1.7,-3.4,15.5));
#813=CARTESIAN_POINT('',(2.2,-3.4,20.));
#814=CARTESIAN_POINT('Origin',(1.7,-3.4,20.));
#815=CARTESIAN_POINT('',(2.2,-3.4,15.5));
#816=CARTESIAN_POINT('Origin',(1.7,-3.4,20.));
#817=CARTESIAN_POINT('Origin',(13.7,-15.6,15.5));
#818=CARTESIAN_POINT('',(13.95,-15.6,20.));
#819=CARTESIAN_POINT('Origin',(13.7,-15.6,20.));
#820=CARTESIAN_POINT('',(13.95,-15.6,15.5));
#821=CARTESIAN_POINT('Origin',(13.7,-15.6,20.));
#822=CARTESIAN_POINT('Origin',(13.7,-3.4,15.5));
#823=CARTESIAN_POINT('',(14.2,-3.4,20.));
#824=CARTESIAN_POINT('Origin',(13.7,-3.4,20.));
#825=CARTESIAN_POINT('',(14.2,-3.4,15.5));
#826=CARTESIAN_POINT('Origin',(13.7,-3.4,20.));
#827=CARTESIAN_POINT('Origin',(8.2,-17.75,15.5));
#828=CARTESIAN_POINT('',(8.2,-17.75,15.5));
#829=CARTESIAN_POINT('Origin',(7.2,-17.75,15.5));
#830=CARTESIAN_POINT('',(7.2,-17.75,15.5));
#831=CARTESIAN_POINT('Origin',(7.2,-17.45,15.5));
#832=CARTESIAN_POINT('Origin',(1.7,-15.6,15.5));
#833=CARTESIAN_POINT('',(1.975,-15.6,20.));
#834=CARTESIAN_POINT('Origin',(1.7,-15.6,20.));
#835=CARTESIAN_POINT('',(1.975,-15.6,15.5));
#836=CARTESIAN_POINT('Origin',(1.7,-15.6,20.));
#837=CARTESIAN_POINT('Origin',(0.,0.,0.));
#838=CARTESIAN_POINT('Origin',(15.4,0.,0.));
#839=UNCERTAINTY_MEASURE_WITH_UNIT(LENGTH_MEASURE(0.01),#843,
'DISTANCE_ACCURACY_VALUE',
'Maximum model space distance between geometric entities at asserted c
onnectivities');
#840=UNCERTAINTY_MEASURE_WITH_UNIT(LENGTH_MEASURE(0.01),#843,
'DISTANCE_ACCURACY_VALUE',
'Maximum model space distance between geometric entities at asserted c
onnectivities');
#841=(
GEOMETRIC_REPRESENTATION_CONTEXT(3)
GLOBAL_UNCERTAINTY_ASSIGNED_CONTEXT((#839))
GLOBAL_UNIT_ASSIGNED_CONTEXT((#843,#845,#846))
REPRESENTATION_CONTEXT('','3D')
);
#842=(
GEOMETRIC_REPRESENTATION_CONTEXT(3)
GLOBAL_UNCERTAINTY_ASSIGNED_CONTEXT((#840))
GLOBAL_UNIT_ASSIGNED_CONTEXT((#843,#845,#846))
REPRESENTATION_CONTEXT('','3D')
);
#843=(
LENGTH_UNIT()
NAMED_UNIT(*)
SI_UNIT(.MILLI.,.METRE.)
);
#844=(
LENGTH_UNIT()
NAMED_UNIT(*)
SI_UNIT($,.METRE.)
);
#845=(
NAMED_UNIT(*)
PLANE_ANGLE_UNIT()
SI_UNIT($,.RADIAN.)
);
#846=(
NAMED_UNIT(*)
SI_UNIT($,.STERADIAN.)
SOLID_ANGLE_UNIT()
);
#847=SHAPE_DEFINITION_REPRESENTATION(#848,#849);
#848=PRODUCT_DEFINITION_SHAPE('',$,#851);
#849=SHAPE_REPRESENTATION('',(#495),#841);
#850=PRODUCT_DEFINITION_CONTEXT('part definition',#855,'design');
#851=PRODUCT_DEFINITION('RELPOL_RM50-3011-85-1005',
'RELPOL_RM50-3011-85-1005 v0',#852,#850);
#852=PRODUCT_DEFINITION_FORMATION('',$,#857);
#853=PRODUCT_RELATED_PRODUCT_CATEGORY('RELPOL_RM50-3011-85-1005 v0',
'RELPOL_RM50-3011-85-1005 v0',(#857));
#854=APPLICATION_PROTOCOL_DEFINITION('international standard',
'automotive_design',2009,#855);
#855=APPLICATION_CONTEXT(
'Core Data for Automotive Mechanical Design Process');
#856=PRODUCT_CONTEXT('part definition',#855,'mechanical');
#857=PRODUCT('RELPOL_RM50-3011-85-1005','RELPOL_RM50-3011-85-1005 v0',$,
(#856));
#858=PRESENTATION_STYLE_ASSIGNMENT((#860));
#859=PRESENTATION_STYLE_ASSIGNMENT((#861));
#860=SURFACE_STYLE_USAGE(.BOTH.,#862);
#861=SURFACE_STYLE_USAGE(.BOTH.,#863);
#862=SURFACE_SIDE_STYLE('',(#864));
#863=SURFACE_SIDE_STYLE('',(#865));
#864=SURFACE_STYLE_FILL_AREA(#866);
#865=SURFACE_STYLE_FILL_AREA(#867);
#866=FILL_AREA_STYLE('Steel - Satin',(#868));
#867=FILL_AREA_STYLE('ABS (White)',(#869));
#868=FILL_AREA_STYLE_COLOUR('Steel - Satin',#870);
#869=FILL_AREA_STYLE_COLOUR('ABS (White)',#871);
#870=COLOUR_RGB('Steel - Satin',0.627450980392157,0.627450980392157,0.627450980392157);
#871=COLOUR_RGB('ABS (White)',0.964705882352941,0.964705882352941,0.952941176470588);
ENDSEC;
END-ISO-10303-21;
